<svg width="459" height="221" viewBox="0 0 459 221" fill="none" xmlns="http://www.w3.org/2000/svg">
<path d="M169.222 151.435C182.175 114.832 190.749 90.6548 183.299 85.1605C181.739 84.0174 179.557 83.6979 176.772 84.2141C162.846 86.7953 127.292 117.339 78.0804 159.609C53.9696 180.32 27.1406 203.354 -0.779053 226.166V227.813C27.56 204.706 54.7917 181.315 79.2381 160.322C126.42 119.785 163.685 87.7786 177.141 85.2834C177.88 85.1482 178.551 85.0745 179.172 85.0745C180.43 85.0745 181.437 85.3572 182.225 85.9349C189.054 90.9743 180.128 116.221 167.762 151.153C158.484 177.358 146.94 209.979 138.601 244.161C128.836 284.243 125.413 318.314 128.148 348.342C129.171 359.625 129.893 370.208 130.312 380.152H131.822C131.403 370.184 130.681 359.576 129.658 348.268C126.94 318.327 130.346 284.341 140.094 244.345C148.4 210.212 159.943 177.616 169.222 151.435Z" fill="#252525"/>
<path d="M162.275 123.952C160.816 122.809 158.786 122.416 156.218 122.76C143.03 124.542 107.577 153.808 62.6944 190.854C43.1641 206.98 21.6539 224.741 -0.779053 242.514V244.136C22.0566 226.056 43.9527 207.988 63.8354 191.579C108.517 154.693 143.819 125.55 156.504 123.829C157.007 123.755 157.494 123.731 157.93 123.731C159.289 123.731 160.363 124.05 161.185 124.689C167.762 129.839 159.071 155 148.047 186.847C131.084 235.913 107.846 303.122 113.097 363.792C113.584 369.434 114.003 374.879 114.339 380.14H115.849C115.513 374.891 115.111 369.434 114.607 363.719C109.356 303.233 132.561 236.122 149.507 187.117C161.504 152.443 169.423 129.532 162.275 123.952Z" fill="#252525"/>
<path d="M141.269 162.756C139.91 161.613 138.03 161.134 135.681 161.318C123.181 162.277 89.6577 188.605 47.2078 221.951C32.2916 233.665 16.117 246.374 -0.779053 259.255V260.841C16.5029 247.677 33.0802 234.66 48.3152 222.701C90.5469 189.527 123.903 163.334 135.849 162.412C137.712 162.264 139.121 162.621 140.145 163.481C146.453 168.779 138.483 192.501 128.383 222.541C113.735 266.114 93.6845 325.788 98.0805 379.28C98.1141 379.575 98.1309 379.87 98.1476 380.165H99.6577C99.6242 379.845 99.6074 379.538 99.5738 379.218C95.2114 325.899 115.228 266.323 129.842 222.811C140.43 191.26 148.098 168.484 141.269 162.756Z" fill="#252525"/>
<path d="M120.278 201.572C119.02 200.429 117.275 199.851 115.144 199.863C103.298 199.937 71.6369 223.266 31.5528 252.79C21.2004 260.41 10.3614 268.4 -0.796387 276.475V278.024C10.7473 269.678 21.9386 261.43 32.6098 253.564C70.8651 225.38 103.919 201.031 115.144 200.957C115.161 200.957 115.177 200.957 115.211 200.957C116.872 200.957 118.147 201.387 119.087 202.248C125.077 207.754 117.862 229.989 108.734 258.136C97.6773 292.269 82.9624 337.698 82.543 380.14H84.053C84.4557 337.833 99.1538 292.466 110.194 258.394C119.808 228.846 126.738 207.496 120.278 201.572Z" fill="#252525"/>
<path d="M459.206 30.538C441.656 24.4415 421.689 21.5039 399.86 21.8111C366.269 22.2905 329.189 30.6978 295.48 45.4842C261.722 60.2952 232.946 80.7971 214.44 103.216C194.674 127.172 172.275 186.195 158.701 250.085C146.352 308.211 144.473 354.93 153.047 380.152H154.574C145.949 355.225 147.812 308.518 160.194 250.257C173.751 186.49 196.067 127.639 215.732 103.794C234.104 81.5223 262.695 61.1556 296.252 46.4429C329.742 31.7548 366.554 23.3967 399.894 22.9296C400.934 22.9174 401.957 22.9051 402.981 22.9051C423.367 22.9051 442.058 25.8058 458.552 31.5459C477.243 38.048 492.797 48.1022 504.777 61.426C521.572 80.1088 528.888 99.8364 527.814 123.522C526.857 144.466 519.542 165.165 511.807 187.08C499.76 221.188 487.31 256.452 501.052 292.38C504.71 301.918 504.408 307.965 500.129 310.866C491.824 316.483 468.132 310.091 440.682 302.692C394.994 290.376 335.145 274.25 296.017 296.731C294.893 297.898 293.786 299.054 292.678 300.172C292.594 300.271 292.527 300.357 292.443 300.443C330.782 274.225 393.065 291.015 440.162 303.712C469.223 311.542 492.176 317.737 501.152 311.665C505.884 308.457 506.32 302.053 502.512 292.072C488.871 256.428 501.27 221.311 513.267 187.338C520.683 166.332 528.351 144.601 529.324 123.546C530.398 99.9593 522.78 79.4328 506.035 60.8115C493.921 47.3156 478.149 37.1384 459.206 30.538Z" fill="#252525"/>
<path d="M262.528 331.995C260.699 334.011 258.887 335.977 257.108 337.87C248.115 347.408 239.759 355.324 232.075 361.531C217.93 372.974 206.001 378.763 196.605 378.763C196.538 378.763 196.487 378.763 196.42 378.763C190.095 378.714 184.809 375.949 180.749 370.565C167.007 352.362 166.923 303.897 180.564 240.916C193.115 182.963 213.82 129.299 232.108 107.396C248.769 87.3363 274.625 69.0592 304.877 55.9566C335.045 42.891 368.334 35.4793 398.619 35.0983C399.475 35.086 400.331 35.086 401.169 35.086C420.314 35.086 437.864 37.8393 453.385 43.272C470.885 49.3931 485.432 58.8451 496.64 71.3454C512.076 88.5409 518.888 106.72 518.1 128.549C517.395 147.846 510.902 166.935 504.022 187.142C493.435 218.239 482.495 250.393 494.677 283.063C497.932 291.716 497.579 297.235 493.603 299.939C485.75 305.286 463.385 299.484 437.495 292.761C395.129 281.76 339.441 267.306 303.753 288.41C302.646 289.627 301.555 290.819 300.464 291.999C314.089 282.313 332.344 277.975 355.8 278.786C382.83 279.732 411.606 287.193 436.992 293.793C464.425 300.922 486.103 306.552 494.626 300.738C499.039 297.727 499.542 291.851 496.12 282.756C484.039 250.368 494.928 218.349 505.465 187.388C512.059 168.016 518.871 147.982 519.593 128.561C520.398 106.793 513.301 87.8772 497.898 70.7185C486.539 58.0462 471.774 48.4712 454.039 42.2641C437.613 36.5118 418.955 33.7217 398.586 33.9798C368.049 34.3731 334.491 41.8339 304.105 54.9979C273.635 68.1988 247.612 86.5989 230.816 106.818C212.444 128.832 191.638 182.655 179.071 240.732C165.396 303.958 165.531 352.681 179.423 371.093C183.769 376.858 189.491 379.808 196.403 379.857C196.47 379.857 196.538 379.857 196.605 379.857C209.004 379.857 225.128 370.54 244.759 352.103C249.139 347.986 253.702 343.413 258.417 338.399C263.887 332.597 269.575 326.193 275.498 319.175C271.035 323.87 266.689 328.135 262.528 331.995Z" fill="#252525"/>
<path d="M280.48 311.935C278.366 314.246 276.285 316.459 274.238 318.597C271.571 321.375 268.97 324.005 266.42 326.488C259.993 332.757 253.92 338.104 248.265 342.455C235.547 352.251 224.758 357.217 216.218 357.217C216.084 357.217 215.966 357.217 215.832 357.217C209.809 357.106 204.809 354.426 200.983 349.252C188.449 332.327 188.466 288.348 201 231.624C212.527 179.484 231.604 131.007 248.467 110.985C263.517 93.1255 286.671 76.9501 313.685 65.4332C340.581 53.9654 370.38 47.5001 397.578 47.2297C398.199 47.2297 398.82 47.2174 399.424 47.2174C417.326 47.2174 433.77 49.8232 448.317 54.9855C464.558 60.7379 478.082 69.563 488.501 81.2152C502.579 96.9358 508.904 113.566 508.384 133.539C507.931 151.214 502.243 168.692 496.236 187.191C487.109 215.264 477.679 244.309 488.3 273.709C491.136 281.477 490.75 286.48 487.092 288.987C479.676 294.076 458.635 288.865 434.29 282.817C411.118 277.065 384.86 270.551 360.229 269.739C339.709 269.063 323.517 272.542 311.185 280.248C310.765 280.666 310.363 281.06 309.943 281.477C309.054 282.498 308.148 283.518 307.259 284.513C319.809 274.57 337.242 270.083 360.162 270.846C384.575 271.644 410.732 278.134 433.82 283.862C459.659 290.278 480.062 295.342 488.132 289.799C492.243 286.984 492.763 281.625 489.776 273.427C479.256 244.296 488.636 215.399 497.73 187.449C503.501 169.7 509.458 151.349 509.911 133.564C510.431 113.627 503.854 96.2966 489.793 80.6129C479.223 68.7887 465.498 59.8283 449.004 53.99C433.736 48.5818 416.437 45.9392 397.595 46.1235C370.128 46.3939 340.078 52.9083 312.964 64.4744C285.749 76.0774 262.393 92.388 247.225 110.395C230.262 130.528 211.117 179.165 199.557 231.44C186.973 288.397 187.023 332.634 199.708 349.768C203.819 355.311 209.238 358.188 215.849 358.298C215.983 358.298 216.134 358.298 216.268 358.298C227.678 358.298 242.426 350.137 260.346 333.986C261.084 333.322 261.822 332.646 262.577 331.958C266.738 328.111 271.067 323.833 275.564 319.15C280.967 313.509 286.621 307.265 292.494 300.418C292.577 300.332 292.645 300.234 292.728 300.148C288.467 304.475 284.39 308.395 280.48 311.935Z" fill="#252525"/>
<path d="M307.243 284.538C308.132 283.542 309.021 282.522 309.927 281.502C306.018 285.349 302.243 288.864 298.602 292.06C296.169 294.666 293.803 297.161 291.454 299.533C288.786 302.25 286.186 304.794 283.635 307.215C281.118 309.6 278.669 311.837 276.269 313.926C269.843 319.531 263.87 324.091 258.35 327.533C245.883 335.326 235.816 337.55 228.434 334.121C219.608 330.028 214.289 317.638 213.048 298.28C211.94 280.973 214.021 258.443 219.088 233.123C223.786 209.635 230.85 184.954 238.987 163.641C247.477 141.406 256.404 124.444 264.81 114.611C292.293 82.4442 346.37 59.7176 396.337 59.3611C413.468 59.2259 429.223 61.7087 443.133 66.699C458.166 72.0826 470.683 80.3178 480.331 91.1464C493.049 105.367 498.854 120.437 498.603 138.566C498.385 154.594 493.301 171.187 488.368 187.24C480.666 212.326 472.713 238.261 481.874 264.417C484.291 271.3 483.821 275.774 480.465 278.11C473.452 282.952 453.72 278.318 430.868 272.947C410.045 268.055 386.438 262.512 364.458 261.836C345.733 261.27 331.035 264.38 319.911 271.263C318.233 273.045 316.572 274.779 314.927 276.45C326.253 266.691 342.511 262.266 364.391 262.93C386.169 263.593 409.659 269.112 430.398 273.98C454.66 279.683 473.838 284.181 481.489 278.884C485.281 276.266 485.885 271.435 483.317 264.122C474.24 238.236 482.16 212.425 489.811 187.461C494.76 171.359 499.861 154.705 500.079 138.554C500.331 120.449 494.274 104.741 481.556 90.5196C471.74 79.5188 459.022 71.1608 443.753 65.6911C429.626 60.6271 413.653 58.1197 396.27 58.2426C371.891 58.4147 345.364 63.9949 321.555 73.9632C297.259 84.1281 277.192 97.9681 263.484 114.008C246.454 133.957 227.561 182.864 217.544 232.951C212.477 258.333 210.38 280.936 211.487 298.316C212.779 318.327 218.182 330.679 227.578 335.031C230.095 336.198 232.863 336.776 235.883 336.776C245.548 336.776 257.746 330.778 272.377 318.843C274.021 317.503 275.699 316.09 277.41 314.59C277.545 314.479 277.679 314.357 277.796 314.246C278.652 313.484 279.524 312.71 280.397 311.923C284.323 308.371 288.384 304.45 292.612 300.148C293.719 299.029 294.827 297.874 295.951 296.706C297.41 295.182 298.904 293.597 300.397 291.986C301.488 290.819 302.578 289.614 303.686 288.397C304.927 287.144 306.085 285.853 307.243 284.538Z" fill="#252525"/>
<path d="M319.943 271.264C320.38 270.797 320.833 270.329 321.269 269.862C331.235 259.218 346.756 254.351 368.736 254.965C387.88 255.506 408.719 260.066 427.092 264.098C449.81 269.076 467.746 272.997 474.978 267.957C478.451 265.536 479.105 261.234 476.958 254.818C469.39 232.202 475.833 209.524 482.075 187.609C486.186 173.13 490.448 158.147 490.414 143.618C490.38 127.32 484.827 113.197 473.468 100.439C464.424 90.2496 452.696 82.4815 438.618 77.356C425.766 72.673 411.303 70.3008 395.632 70.3008C395.447 70.3008 395.246 70.3008 395.061 70.3008C373.484 70.3745 351.084 74.91 330.279 83.4156C309.306 91.9826 291.89 103.807 279.893 117.61C264.305 135.543 247.141 178.772 238.131 222.713C233.55 245.071 231.671 265.044 232.711 280.445C233.919 298.194 238.852 309.293 247.409 313.435C249.926 314.652 252.711 315.254 255.748 315.254C265.094 315.254 276.973 309.539 291.252 298.169C292.678 297.039 294.121 295.859 295.581 294.617C296.571 293.781 297.561 292.921 298.567 292.036C302.208 288.853 305.984 285.325 309.893 281.478C310.312 281.072 310.715 280.667 311.135 280.249C312.376 279.007 313.651 277.729 314.927 276.426C316.604 274.767 318.265 273.046 319.943 271.264ZM274.977 307.904C263.869 314.173 254.893 315.721 248.282 312.513C232.896 305.065 229.674 271.559 239.658 222.885C248.651 179.067 265.732 136.022 281.202 118.2C293.064 104.544 310.296 92.8553 331.051 84.3743C351.638 75.9671 373.786 71.4807 395.095 71.407C410.749 71.3578 425.179 73.6809 437.981 78.3393C451.806 83.3787 463.333 91.0116 472.226 101.029C483.585 113.775 488.887 127.308 488.938 143.606C488.971 158.012 484.726 172.933 480.632 187.363C474.374 209.402 467.897 232.202 475.531 255.064C477.545 261.062 477.025 265.02 473.971 267.146C467.377 271.743 448.921 267.699 427.545 263.028C409.071 258.985 388.132 254.4 368.803 253.847C351.504 253.355 338.081 256.219 328.131 262.537C324.239 266.187 320.48 269.531 316.873 272.542C315.849 273.624 314.826 274.668 313.802 275.713C312.074 277.471 310.396 279.167 308.718 280.802C295.984 293.339 284.658 302.434 274.977 307.904Z" fill="#252525"/>
<path d="M423.702 254.215C444.911 258.456 461.656 261.811 468.468 257.018C471.622 254.805 472.31 251.032 470.582 245.513C464.542 226.191 469.508 206.685 474.324 187.83C477.612 174.949 481.018 161.637 480.716 148.719C480.397 134.215 475.347 121.678 465.313 110.358C449.34 92.2774 423.921 82.3092 393.719 82.2969C393.686 82.2969 393.652 82.2969 393.618 82.2969C375.263 82.2969 356.353 85.9474 338.937 92.8551C321.303 99.8489 306.537 109.657 296.269 121.236C282.141 137.153 266.688 174.654 258.702 212.425C254.608 231.747 252.963 249.065 253.937 262.5C255.061 277.974 259.541 287.832 267.259 291.802C269.809 293.117 272.678 293.769 275.849 293.769C286.269 293.769 299.994 286.677 316.873 272.579C320.48 269.567 324.239 266.224 328.132 262.573C329.491 261.307 330.85 260.005 332.242 258.653C351.638 239.798 391.588 247.799 423.702 254.215ZM291.604 288.275C281.873 293.007 273.97 293.879 268.131 290.88C254.289 283.776 251.336 254.498 260.212 212.572C268.182 174.936 283.534 137.62 297.561 121.813C307.695 110.395 322.259 100.709 339.675 93.8015C356.873 86.9799 375.531 83.3785 393.635 83.3785C393.669 83.3785 393.702 83.3785 393.736 83.3785C423.417 83.4031 448.384 93.187 464.072 110.948C474.089 122.244 478.904 134.24 479.24 148.731C479.525 161.539 476.136 174.801 472.864 187.621C468.015 206.587 463.015 226.203 469.122 245.759C470.716 250.872 470.162 254.301 467.428 256.219C461.219 260.582 444.021 257.141 424.088 253.146C391.538 246.632 351.034 238.532 331.034 257.964C315.799 272.763 302.527 282.965 291.604 288.275Z" fill="#252525"/>
<path d="M420.212 244.345C439.171 247.701 455.547 250.614 461.973 246.054C464.792 244.05 465.531 240.83 464.205 236.196C459.675 220.205 463.215 203.931 466.638 188.186C469.104 176.891 471.638 165.201 471.084 153.869C470.464 141.135 465.917 130.134 457.192 120.252C442.561 103.585 419.507 94.3052 392.309 94.1208C392.04 94.1208 391.789 94.1208 391.52 94.1208C360.597 94.1208 329.708 106.117 312.644 124.812C299.959 138.714 286.268 170.438 279.338 201.965C275.765 218.226 274.355 232.877 275.261 244.345C276.301 257.558 280.312 266.199 287.191 270.034C289.892 271.546 292.963 272.296 296.419 272.296C307.912 272.296 323.584 263.974 343.181 247.43C359.574 233.603 393.198 239.564 420.212 244.345ZM308.349 268.645C300.01 271.829 293.198 272.013 288.114 269.161C275.848 262.303 273.13 237.241 280.832 202.137C287.728 170.745 301.318 139.205 313.902 125.427C330.681 107.039 361.084 95.2271 391.52 95.2271C391.772 95.2271 392.04 95.2271 392.292 95.2271C418.97 95.3991 441.571 104.507 455.916 120.854C475.044 142.524 470.229 164.624 465.145 188.026C461.705 203.87 458.131 220.242 462.729 236.43C463.937 240.658 463.333 243.559 460.916 245.267C455.094 249.397 439.087 246.558 420.547 243.276C393.131 238.421 359.02 232.373 342.04 246.705C329.053 257.694 317.711 265.068 308.349 268.645Z" fill="#252525"/>
<path d="M416.605 234.475C434.223 237.118 449.441 239.392 455.498 235.09C457.964 233.332 458.736 230.653 457.83 226.904C454.793 214.342 456.958 201.412 459.038 188.899C462.293 169.344 465.666 149.124 449.072 130.171C442.176 122.256 433.333 116.098 422.78 111.894C413.132 108.047 402.075 105.933 390.816 105.761C366.32 105.404 342.645 114.082 329.054 128.413C317.846 140.238 306 166.111 300.245 191.32C297.242 204.472 296.118 216.456 296.99 225.97C297.98 236.909 301.504 244.382 307.46 248.192C310.48 250.122 314.037 251.081 318.131 251.081C327.427 251.081 339.491 246.127 354.138 236.257C367.628 227.137 393.652 231.034 416.605 234.475ZM308.417 247.344C302.779 243.743 299.423 236.515 298.467 225.884C297.611 216.444 298.735 204.558 301.705 191.492C307.41 166.43 319.155 140.742 330.262 129.04C343.299 115.286 365.833 106.854 389.323 106.854C389.793 106.854 390.279 106.855 390.749 106.867C401.773 107.027 412.595 109.104 422.024 112.865C432.36 116.983 441.018 123.005 447.78 130.773C464.088 149.395 460.901 168.52 457.528 188.776C455.431 201.362 453.266 214.379 456.337 227.113C457.142 230.468 456.521 232.828 454.441 234.315C448.971 238.212 434.105 235.987 416.907 233.418C393.602 229.927 367.175 225.97 353.098 235.446C332.645 249.2 317.611 253.219 308.417 247.344Z" fill="#252525"/>
<path d="M448.803 224.655C451.068 222.995 451.957 220.623 451.437 217.612C449.877 208.725 450.766 199.433 451.622 190.46C453.233 173.634 454.894 156.217 440.917 140.078C428.786 125.956 409.927 117.536 389.205 116.995C371.638 116.54 355.279 122.145 345.397 132.003C335.715 141.664 327.662 162.412 324.876 184.868C321.94 208.639 325.816 226.326 335.245 232.202C337.645 233.701 340.346 234.439 343.316 234.439C349.39 234.439 356.638 231.317 364.977 225.097C375.749 222.897 391.756 224.458 407.242 225.97C425.279 227.728 442.31 229.387 448.803 224.655ZM364.39 224.065L364.205 224.102L364.071 224.2C352.242 233.062 342.88 235.459 336.252 231.341C327.326 225.798 323.551 208.012 326.403 184.954C329.155 162.694 337.091 142.155 346.638 132.642C355.984 123.325 370.648 118.065 387.125 118.065C387.796 118.065 388.484 118.077 389.172 118.089C409.39 118.618 427.796 126.841 439.659 140.656C453.384 156.499 451.739 173.72 450.145 190.374C449.29 199.408 448.384 208.75 449.961 217.747C450.431 220.451 449.709 222.455 447.763 223.868C441.79 228.219 425.112 226.597 407.477 224.864C391.739 223.327 375.481 221.742 364.39 224.065Z" fill="#252525"/>
<path d="M441.47 214.33C443.987 212.794 445.195 210.766 445.061 208.332C444.843 204.325 444.876 200.281 444.91 196.016C445.044 180.554 445.178 164.575 432.779 149.973C421.688 136.821 404.524 128.193 387.997 127.443C377.359 126.964 368.064 129.852 361.806 135.568C353.618 143.041 347.611 157.839 346.118 174.175C344.591 190.903 348.064 204.817 355.396 211.38C360.581 216.026 367.594 216.911 375.698 213.925C383.718 215.215 402.997 218.03 419.188 218.03C428.601 218.042 436.974 217.096 441.47 214.33ZM411.453 216.776C397.594 216.125 383.131 214.023 375.749 212.831L375.48 212.794L375.245 212.88C367.644 215.744 361.353 215.019 356.554 210.704C349.574 204.436 346.134 190.473 347.611 174.261C349.071 158.134 354.96 143.581 362.963 136.268C368.92 130.835 377.762 128.094 387.896 128.549C403.953 129.274 420.665 137.706 431.504 150.563C443.668 164.882 443.534 180.713 443.4 196.016C443.366 200.306 443.333 204.35 443.551 208.394C443.668 210.495 442.678 212.167 440.497 213.507C435.85 216.346 426.068 217.452 411.453 216.776Z" fill="#252525"/>
<path d="M396.403 138.013C388.987 135.297 382.695 135.69 378.198 139.144C369.44 145.892 365.665 157.606 367.879 171.298C369.926 184.032 376.89 195.992 386.051 202.518C393.349 207.705 402.393 209.598 410.799 209.598C415.464 209.598 419.944 209.008 423.803 208.086C432.041 206.107 437.88 202.592 438.668 199.138C440.917 189.256 436.789 176.215 427.343 163.358C418.618 151.522 406.772 141.811 396.403 138.013ZM437.175 198.954C436.487 201.965 430.917 205.21 423.333 207.041C412.947 209.537 397.964 209.463 387.108 201.732C378.182 195.377 371.386 183.663 369.373 171.175C367.225 157.815 370.833 146.421 379.289 139.919C381.739 138.038 384.557 137.362 387.376 137.362C390.363 137.362 393.299 138.124 395.732 139.009C405.833 142.709 417.444 152.234 426.001 163.887C435.296 176.522 439.373 189.305 437.175 198.954Z" fill="#252525"/>
<path d="M119.137 -19.4874C157.493 14.1047 171.134 35.7005 166.185 55.0593C161.285 74.2338 138.684 90.9254 104.456 116.209C86.4191 129.532 65.9828 144.626 43.382 163.579C28.6672 175.944 13.8852 187.916 -0.779297 199.408V201.019C14.2711 189.244 29.4222 176.977 44.5397 164.292C67.1069 145.364 87.5265 130.282 105.547 116.983C173.215 67.0065 198.534 48.3114 120.295 -20.1881C115.413 -24.4654 110.496 -28.3986 105.547 -32H103.416C108.684 -28.2143 113.936 -24.0475 119.137 -19.4874Z" fill="#252525"/>
<path d="M102.376 -14.829C138.064 15.6165 150.799 35.3809 146.37 53.4123C141.974 71.2838 121.135 87.2011 89.6244 111.304C73.668 123.51 55.5806 137.337 35.6476 154.459C23.5838 164.821 11.4361 174.863 -0.761963 184.585V186.208C11.822 176.202 24.3556 165.865 36.8053 155.172C56.7048 138.075 74.7753 124.259 90.7318 112.066C153.064 64.413 176.387 46.5783 103.551 -15.5542C96.101 -21.8597 88.6009 -27.3539 81.0338 -32H78.6512C86.6378 -27.2187 94.5573 -21.4909 102.376 -14.829Z" fill="#252525"/>
<path d="M85.5975 -10.1706C118.651 17.1284 130.514 35.0983 126.554 51.8267C122.628 68.4323 103.551 83.6121 74.6747 106.597C60.8155 117.634 45.094 130.135 27.8791 145.364C18.4831 153.66 8.95285 161.736 -0.761963 169.627V171.274C9.35554 163.088 19.2717 154.693 29.0368 146.076C46.2349 130.884 61.9397 118.384 75.7821 107.359C132.88 61.9056 154.256 44.8944 86.7385 -10.8835C75.7988 -19.9176 64.6914 -26.9483 53.433 -32H50.5806C62.3927 -26.9483 74.1378 -19.6472 85.5975 -10.1706Z" fill="#252525"/>
<path d="M60.7311 102.873C112.762 59.4473 132.242 43.1982 69.9258 -6.262C50.4961 -21.6876 30.2947 -30.2915 9.58988 -32H-0.779297V-31.1519C0.0931908 -31.1765 0.965678 -31.2134 1.83817 -31.2134C24.8249 -31.2134 47.2914 -22.6094 68.8352 -5.51223C99.2883 18.6648 110.278 34.8401 106.772 50.3272C103.282 65.7036 85.9158 80.1951 59.6069 102.147C47.8787 111.943 34.5732 123.03 20.0933 136.256C13.0463 142.696 6.08315 148.781 -0.779297 154.545V156.217C6.45228 150.157 13.8013 143.753 21.2678 136.944C35.731 123.743 49.0196 112.656 60.7311 102.873Z" fill="#252525"/>
<path d="M45.5294 98.7791C92.7276 57.1361 110.379 41.5508 53.1301 -1.62861C35.8817 -14.6328 17.8279 -21.7618 -0.779608 -22.9294V-21.7986C17.4252 -20.6187 35.1266 -13.6249 52.0562 -0.841963C79.9926 20.2253 90.1269 34.6553 87.0396 48.9501C83.9692 63.1589 68.214 77.0603 44.3716 98.0908C34.8246 106.523 23.9856 116.073 12.3077 127.16C7.91171 131.326 3.54927 135.321 -0.796387 139.156V140.877C3.93518 136.722 8.70031 132.384 13.499 127.836C25.1769 116.761 35.9823 107.211 45.5294 98.7791Z" fill="#252525"/>
<path d="M30.0936 95.2887C72.7784 55.0101 88.7516 39.941 36.3352 3.01789C24.4392 -5.36479 12.023 -10.6255 -0.779053 -12.801V-11.6702C11.6539 -9.50695 23.7177 -4.34461 35.295 3.81682C60.7984 21.7867 70.0938 34.5082 67.3757 47.7337C64.6743 60.8731 50.446 74.2952 28.9023 94.625C21.6036 101.508 13.3318 109.325 4.53977 118.064C2.76123 119.834 0.982701 121.555 -0.779053 123.251V125.071C1.38539 123.018 3.56661 120.904 5.74783 118.728C14.5398 109.965 22.7949 102.172 30.0936 95.2887Z" fill="#252525"/>
<path d="M49.3051 46.947C51.8387 34.2009 43.2145 22.8192 19.5231 7.65171C12.9794 3.44808 6.18407 0.326095 -0.779053 -1.76343V-0.583463C5.8485 1.45689 12.2915 4.48056 18.5499 8.47523C41.7883 23.36 50.2783 34.4591 47.8286 46.7872C45.3957 59.0294 32.5265 72.1934 13.0297 92.1299C8.81831 96.4441 4.1203 101.262 -0.779053 106.375V108.293C4.52299 102.725 9.47268 97.661 14.2546 92.769C33.8688 72.7096 46.8219 59.4473 49.3051 46.947Z" fill="#252525"/>
<path d="M2.7109 12.2735C1.55317 11.6344 0.39545 11.0444 -0.779053 10.479V11.831C0.0934349 12.2612 0.949144 12.6914 1.80485 13.1585C43.6339 36.3153 32.2916 51.0034 -0.779053 88.2953V90.311C15.7479 71.6897 27.6271 58.0464 29.9258 46.5048C32.3755 34.2504 24.4895 24.3313 2.7109 12.2735Z" fill="#252525"/>
<path d="M-0.779053 23.9128V25.4247C14.5063 36.155 12.1069 48.2005 -0.779053 67.043V69.489C5.69749 60.2828 9.87537 52.6745 11.0163 45.988C12.5096 37.2981 8.88543 30.3412 -0.779053 23.9128Z" fill="#252525"/>
</svg>
