<svg width="213" height="22" viewBox="0 0 213 22" fill="none" xmlns="http://www.w3.org/2000/svg">
<path d="M0 18.0344V0.227325H1.7751L8.74687 13.0838L15.6672 0.227325H17.4423V18.0344H15.4871V4.11711L9.44148 15.2813H8.05227L1.92946 4.14237V18.0344H0Z" fill="white"/>
<path d="M21.9564 18.0344V0.227325H33.4045V1.97015H24.0145V8.13318H32.8643V9.876H24.0145V16.2916H33.4045V18.0344H21.9564Z" fill="white"/>
<path d="M35.1541 22V16.2916H36.9292C37.821 15.1971 38.4813 13.7153 38.9101 11.8462C39.3389 9.9602 39.5533 7.61959 39.5533 4.82434V0.227325H51.5931V16.2916H54.1657V22H52.2362V18.0344H37.0578V22H35.1541ZM39.1416 16.2916H49.4578V1.97015H41.5342V4.97589C41.5342 7.68695 41.3369 9.95178 40.9425 11.7704C40.5652 13.589 39.9649 15.0961 39.1416 16.2916Z" fill="white"/>
<path d="M56.9781 18.0344V0.227325H58.959V14.5993L69.8926 0.227325H71.5133V18.0344H69.5581V3.61194L58.5988 18.0344H56.9781Z" fill="white"/>
<path d="M74.272 18.0344L82.2729 0.227325H84.0737L92.0745 18.0344H89.8878L87.8811 13.4879H78.4397L76.4588 18.0344H74.272ZM83.1475 2.65212L79.2114 11.7451H87.1351L83.199 2.65212H83.1475Z" fill="white"/>
<path d="M92.1483 11.9724V10.6338H105.011V11.9724H92.1483Z" fill="white"/>
<path d="M107.249 18.0344V0.227325H114.427C116.382 0.227325 117.874 0.690394 118.903 1.61653C119.95 2.54267 120.473 3.86452 120.473 5.58209C120.473 7.28282 119.95 8.60467 118.903 9.54765C117.874 10.4738 116.382 10.9369 114.427 10.9369H109.359V18.0344H107.249ZM109.359 9.19403H114.17C116.983 9.19403 118.389 7.99005 118.389 5.58209C118.389 3.15729 116.983 1.94489 114.17 1.94489H109.359V9.19403Z" fill="white"/>
<path d="M123.529 18.0344V0.227325H134.977V1.97015H125.587V8.13318H134.437V9.876H125.587V16.2916H134.977V18.0344H123.529Z" fill="white"/>
<path d="M138.579 18.0344V0.227325H140.354L147.326 13.0838L154.246 0.227325H156.022V18.0344H154.066V4.11711L148.021 15.2813H146.632L140.509 4.14237V18.0344H138.579Z" fill="white"/>
<path d="M168.151 18.2618C166.47 18.2618 165.003 17.8913 163.751 17.1504C162.517 16.3927 161.556 15.3318 160.87 13.9679C160.201 12.6039 159.867 10.9874 159.867 9.11825C159.867 7.24914 160.201 5.63261 160.87 4.26866C161.539 2.90471 162.491 1.85228 163.726 1.11137C164.978 0.370456 166.453 0 168.151 0C169.866 0 171.341 0.370456 172.575 1.11137C173.827 1.85228 174.788 2.90471 175.457 4.26866C176.143 5.61577 176.486 7.22388 176.486 9.093C176.486 10.9621 176.143 12.5871 175.457 13.9679C174.771 15.3318 173.802 16.3927 172.55 17.1504C171.315 17.8913 169.848 18.2618 168.151 18.2618ZM168.151 16.4179C170.089 16.4179 171.589 15.778 172.653 14.4983C173.716 13.2185 174.248 11.4252 174.248 9.11825C174.248 6.81133 173.716 5.02641 172.653 3.76349C171.589 2.48374 170.089 1.84386 168.151 1.84386C166.247 1.84386 164.763 2.48374 163.7 3.76349C162.637 5.02641 162.105 6.81133 162.105 9.11825C162.105 11.4083 162.637 13.2017 163.7 14.4983C164.763 15.778 166.247 16.4179 168.151 16.4179Z" fill="white"/>
<path d="M180.257 18.0344V0.227325H182.367V8.10792H193.249V0.227325H195.359V18.0344H193.249V9.90126H182.367V18.0344H180.257Z" fill="white"/>
<path d="M204.279 18.0344V2.02067H197.693V0.227325H213V2.02067H206.414V18.0344H204.279Z" fill="white"/>
</svg>
