<svg width="77" height="77" viewBox="0 0 77 77" fill="none" xmlns="http://www.w3.org/2000/svg">
<path d="M31.3134 42.4337C31.3135 43.6472 31.6456 44.8393 32.2763 45.8902C32.9071 46.9411 33.8143 47.8138 34.9068 48.4206L34.9068 76.8209L38.5001 77.0001L41.0937 77.0001C41.646 77.0001 42.0937 76.5524 42.0937 76.0001L42.0937 48.4206C43.1861 47.8138 44.0933 46.9411 44.724 45.8902C45.3547 44.8393 45.6868 43.6472 45.6868 42.4337C45.6868 41.2202 45.3547 40.0281 44.724 38.9772C44.0933 37.9263 43.1861 37.0536 42.0937 36.4468L42.0937 42.4337L34.9068 42.4337L34.9068 36.4468C33.8143 37.0535 32.9071 37.9262 32.2763 38.9771C31.6456 40.0281 31.3135 41.2202 31.3134 42.4337Z" fill="url(#paint0_linear_27_677)"/>
<path d="M38.5 74.5C30.1712 74.5 22.1001 71.6121 15.6618 66.3284C9.2236 61.0446 4.8166 53.692 3.19173 45.5233C1.56686 37.3545 2.82467 28.8751 6.75084 21.5297C10.677 14.1844 17.0286 8.42763 24.7234 5.24034C32.4182 2.05305 40.9801 1.63243 48.9502 4.05015C56.9204 6.46787 63.8057 11.5743 68.4329 18.4995C73.0601 25.4246 75.143 33.7399 74.3267 42.0286C73.5103 50.3173 69.8452 58.0665 63.9558 63.9558" stroke="url(#paint1_linear_27_677)" stroke-width="5"/>
<defs>
<linearGradient id="paint0_linear_27_677" x1="63.3647" y1="39.3021" x2="-7.20524" y2="76.187" gradientUnits="userSpaceOnUse">
<stop stop-color="#06FFD2"/>
<stop offset="1" stop-color="#06BDFF"/>
</linearGradient>
<linearGradient id="paint1_linear_27_677" x1="77" y1="-7.01437e-05" x2="-0.350834" y2="0.488788" gradientUnits="userSpaceOnUse">
<stop stop-color="#06FFD2"/>
<stop offset="1" stop-color="#06BDFF"/>
</linearGradient>
</defs>
</svg>
