<svg width="60" height="60" viewBox="0 0 60 60" fill="none" xmlns="http://www.w3.org/2000/svg">
<path d="M24.3996 33.0651C24.3996 34.0107 24.6584 34.9397 25.1499 35.7586C25.6414 36.5775 26.3484 37.2575 27.1997 37.7303L27.1997 59.8603L29.9996 60L31.5498 60C32.2401 60 32.7998 59.4404 32.7998 58.75L32.7998 37.7303C33.6511 37.2574 34.3579 36.5774 34.8494 35.7585C35.3409 34.9396 35.5996 34.0107 35.5996 33.0651C35.5996 32.1196 35.3409 31.1907 34.8494 30.3718C34.3579 29.5529 33.6511 28.8728 32.7998 28.4L32.7998 33.0651L27.1997 33.0651L27.1997 28.4C26.3484 28.8728 25.6414 29.5528 25.1499 30.3717C24.6584 31.1906 24.3996 32.1196 24.3996 33.0651Z" fill="url(#paint0_linear_98_6022)"/>
<path d="M30 58.125C23.4931 58.125 17.1876 55.8688 12.1577 51.7409C7.12781 47.613 3.68484 41.8688 2.41541 35.4869C1.14599 29.1051 2.12865 22.4805 5.19596 16.742C8.26328 11.0034 13.2255 6.50596 19.237 4.01589C25.2486 1.52582 31.9376 1.19721 38.1643 3.08605C44.3909 4.9749 49.7701 8.96433 53.3851 14.3746C57.0001 19.7849 58.6274 26.2812 57.9896 32.7567C57.3518 39.2323 54.4884 45.2863 49.8874 49.8874" stroke="url(#paint1_linear_98_6022)" stroke-width="3.75"/>
<defs>
<linearGradient id="paint0_linear_98_6022" x1="49.3746" y1="30.625" x2="-5.61494" y2="59.3664" gradientUnits="userSpaceOnUse">
<stop stop-color="#06FFD2"/>
<stop offset="1" stop-color="#06BDFF"/>
</linearGradient>
<linearGradient id="paint1_linear_98_6022" x1="60" y1="-5.46574e-05" x2="-0.273377" y2="0.380874" gradientUnits="userSpaceOnUse">
<stop stop-color="#06FFD2"/>
<stop offset="1" stop-color="#06BDFF"/>
</linearGradient>
</defs>
</svg>
