<svg width="288" height="192" viewBox="0 0 288 192" fill="none" xmlns="http://www.w3.org/2000/svg">
<path d="M191.449 145.24C185.941 145.06 180.406 146.469 174.525 149.555C168.369 152.789 161.995 157.758 155.038 164.766C145.627 174.245 136.746 183.316 128.393 191.993H129.396C137.649 183.43 146.421 174.472 155.704 165.12C168.588 152.147 179.987 145.828 190.546 145.828C190.838 145.828 191.13 145.835 191.412 145.841C199.419 146.109 207.252 149.916 216.06 157.825C224.094 165.04 232.328 175.133 241.046 185.828C242.687 187.838 244.374 189.909 246.097 192H247.055C245.249 189.802 243.471 187.631 241.748 185.52C223.665 163.343 209.385 145.835 191.449 145.24Z" fill="#252525"/>
<path d="M193.036 153.944C182.869 153.643 172.063 159.428 159.999 171.659C152.996 178.753 146.403 185.52 140.157 191.993H141.16C147.306 185.627 153.799 178.974 160.665 172.006C172.556 159.949 183.133 154.244 193.009 154.538C200.468 154.765 207.809 158.319 216.107 165.721C223.675 172.474 231.463 181.933 239.706 191.946C239.715 191.96 239.733 191.98 239.742 191.993H240.7C240.599 191.879 240.499 191.752 240.408 191.639C223.292 170.864 209.778 154.451 193.036 153.944Z" fill="#252525"/>
<path d="M194.613 162.641C185.385 162.388 175.674 167.591 164.95 178.546C160.674 182.915 156.297 187.417 151.874 191.993H152.877C157.181 187.538 161.449 183.156 165.616 178.9C176.175 168.119 185.659 162.995 194.586 163.243C208.063 163.61 219.58 175.734 233.268 191.993H234.225C220.292 175.42 208.583 163.022 194.613 162.641Z" fill="#252525"/>
<path d="M196.2 171.339C187.893 171.138 179.303 175.754 169.911 185.44C167.795 187.625 165.68 189.809 163.573 191.993H164.577C166.574 189.922 168.571 187.858 170.577 185.788C179.805 176.275 188.176 171.76 196.173 171.933C206.696 172.18 216.061 180.317 226.511 191.993H227.486C216.781 179.996 207.179 171.599 196.2 171.339Z" fill="#252525"/>
<path d="M197.777 180.029C190.537 179.896 183.133 183.81 175.19 191.993H176.202C183.844 184.224 190.893 180.49 197.759 180.63C205.072 180.771 211.875 185.159 219.015 191.993H220.036C212.613 184.805 205.528 180.176 197.777 180.029Z" fill="#252525"/>
<path d="M188.431 191.993H189.744C193 190.156 196.182 189.268 199.346 189.314C202.538 189.354 205.647 190.316 208.757 191.993H210.088C206.568 189.942 203.03 188.76 199.364 188.713C195.735 188.666 192.115 189.749 188.431 191.993Z" fill="#252525"/>
<path d="M91.9374 67.692C98.977 47.799 103.637 34.6595 99.5879 31.6736C98.7399 31.0523 97.5545 30.8787 96.0408 31.1592C88.4722 32.562 69.1497 49.1618 42.4045 72.1342C29.301 83.39 14.7202 95.9083 -0.453369 108.306V109.201C14.9481 96.6431 29.7478 83.9311 43.0337 72.5217C68.6755 50.4911 88.9282 33.0964 96.2414 31.7404C96.6426 31.6669 97.0074 31.6268 97.3447 31.6268C98.0286 31.6268 98.5758 31.7804 99.0043 32.0944C102.716 34.8332 97.8645 48.5539 91.144 67.5384C86.1014 81.7801 79.8277 99.5088 75.2957 118.086C69.9886 139.869 68.1284 158.386 69.6148 174.705C70.171 180.838 70.5631 186.589 70.7911 191.993H71.6118C71.3838 186.576 70.9917 180.811 70.4354 174.665C68.9582 158.393 70.8093 139.923 76.1073 118.186C80.621 99.6357 86.8947 81.9204 91.9374 67.692Z" fill="#252525"/>
<path d="M88.1622 52.7556C87.3689 52.1343 86.2655 51.9206 84.8704 52.1076C77.703 53.0762 58.4352 68.9812 34.0427 89.1147C23.4285 97.8788 11.7383 107.531 -0.453369 117.191V118.072C11.9572 108.246 23.8571 98.4266 34.6628 89.5088C58.9459 69.4622 78.1316 53.624 85.0254 52.6888C85.2989 52.6487 85.5634 52.6353 85.8005 52.6353C86.5391 52.6353 87.1227 52.809 87.5695 53.1564C91.144 55.9553 86.4205 69.6292 80.4295 86.937C71.2105 113.604 58.5811 150.13 61.4353 183.102C61.6997 186.168 61.9277 189.127 62.1101 191.986H62.9307C62.7484 189.134 62.5295 186.168 62.256 183.062C59.4018 150.19 72.013 113.717 81.2229 87.084C87.7427 68.2398 92.0468 55.7883 88.1622 52.7556Z" fill="#252525"/>
<path d="M76.7456 73.8444C76.007 73.2232 74.9857 72.9627 73.7091 73.0629C66.9156 73.5839 48.6965 87.8924 25.6261 106.015C17.5196 112.381 8.72917 119.288 -0.453369 126.289V127.151C8.9389 119.996 17.9482 112.922 26.228 106.423C49.1797 88.3934 67.3077 74.1584 73.8003 73.6574C74.8124 73.5772 75.5784 73.7709 76.1346 74.2385C79.5633 77.1176 75.2319 90.01 69.7424 106.336C61.7818 130.016 50.8849 162.448 53.274 191.519C53.2923 191.679 53.3014 191.84 53.3105 192H54.1312C54.113 191.826 54.1039 191.659 54.0856 191.486C51.7147 162.508 62.5934 130.13 70.5358 106.483C76.2897 89.3353 80.4569 76.9573 76.7456 73.8444Z" fill="#252525"/>
<path d="M65.3377 94.9396C64.6538 94.3184 63.7054 94.0044 62.5474 94.0111C56.1096 94.0512 38.9026 106.73 17.118 122.775C11.4917 126.917 5.60105 131.259 -0.462891 135.647V136.489C5.81078 131.953 11.893 127.471 17.6924 123.196C38.4831 107.879 56.4469 94.6457 62.5474 94.6056C62.5565 94.6056 62.5656 94.6056 62.5838 94.6056C63.4866 94.6056 64.1796 94.8394 64.6903 95.307C67.9456 98.2996 64.0246 110.384 59.064 125.681C53.0548 144.231 45.0577 168.92 44.8297 191.986H45.6504C45.8692 168.994 53.8572 144.338 59.8573 125.821C65.0824 109.762 68.8484 98.1594 65.3377 94.9396Z" fill="#252525"/>
<path d="M53.9488 116.055C53.3288 115.414 52.4716 115.047 51.4047 114.966C45.3043 114.485 29.0548 125.454 8.5012 139.355C5.58321 141.326 2.59228 143.35 -0.453369 145.4V146.215C2.78377 144.038 5.9662 141.893 9.05744 139.803C28.2706 126.81 44.9213 115.554 50.967 115.554C51.0856 115.554 51.2041 115.561 51.3135 115.568C52.1433 115.634 52.7908 115.908 53.2832 116.409C56.3379 119.549 52.8637 130.791 48.4594 145.02C44.3468 158.319 39.0853 175.313 37.3345 192H38.1552C39.906 175.373 45.1493 158.426 49.2527 145.153C53.8759 130.21 57.2133 119.415 53.9488 116.055Z" fill="#252525"/>
<path d="M40.2617 135.928C34.4439 134.839 19.1063 144.024 -0.30747 155.647C-0.353063 155.674 -0.407776 155.708 -0.453369 155.734V156.509C-0.23452 156.376 -0.00655258 156.242 0.212296 156.108C17.784 145.587 33.0761 136.429 39.1856 136.429C39.5048 136.429 39.7875 136.456 40.061 136.503C45.6417 137.545 42.2131 149.295 37.8817 164.164C35.4196 172.615 32.6293 182.187 30.7691 191.986H31.5989C33.4682 182.234 36.2312 172.708 38.6932 164.291C43.2891 148.513 46.6083 137.117 40.2617 135.928Z" fill="#252525"/>
<path d="M29.1368 156.896C24.4954 155.387 13.6624 160.129 -0.453369 167.036V167.758C11.7201 161.799 21.9057 157.21 27.0578 157.21C27.7234 157.21 28.307 157.284 28.7994 157.444C33.8877 159.101 31.0153 169.835 27.386 183.429C26.6565 186.148 25.8906 189.027 25.1428 191.993H25.9726C26.7113 189.067 27.4681 186.235 28.1794 183.549C32.0366 169.147 34.8178 158.747 29.1368 156.896Z" fill="#252525"/>
<path d="M18.0029 177.878C14.7384 176.215 8.0635 177.464 -0.453369 180.056V180.697C5.46467 178.88 10.4526 177.698 13.9542 177.698C15.4314 177.698 16.6442 177.905 17.547 178.366C20.6747 179.962 20.5926 185.146 19.3616 191.986H20.1914C21.4771 184.852 21.4771 179.648 18.0029 177.878Z" fill="#252525"/>
<path d="M156.087 149.909C153.935 151.646 151.938 153.664 150.123 155.995C151.427 154.859 152.759 153.644 154.126 152.348C154.737 151.593 155.348 150.831 155.968 150.05C156.005 150.003 156.041 149.956 156.087 149.909Z" fill="#252525"/>
<path d="M142.646 165.821C142.236 166.195 141.835 166.563 141.433 166.923C140.85 167.631 140.266 168.326 139.692 169.014C140.667 167.985 141.652 166.917 142.646 165.821Z" fill="#252525"/>
<path d="M150.707 156.456C150.725 156.429 150.753 156.402 150.771 156.375C149.841 157.184 148.929 157.959 148.035 158.687C146.932 160.103 145.838 161.479 144.762 162.835C146.148 161.486 147.561 160.056 149.011 158.546C149.33 158.172 149.64 157.805 149.959 157.424C150.206 157.097 150.452 156.783 150.707 156.456Z" fill="#252525"/>
<path d="M117.606 191.993H118.682C125.175 186.428 132.433 178.853 140.431 169.301C137.859 172.026 135.388 174.511 133.008 176.749C127.455 182.901 122.312 187.998 117.606 191.993Z" fill="#252525"/>
<path d="M249.536 1.98756C239.997 -1.32571 229.146 -2.92222 217.283 -2.75522C199.027 -2.4947 178.875 2.0744 160.555 10.1104C142.208 18.1598 126.57 29.302 116.512 41.4863C105.77 54.5056 93.5966 86.5828 86.2196 121.305C79.5082 152.895 78.4869 178.286 83.1466 191.993H83.9764C79.2894 178.446 80.3016 153.062 87.0312 121.399C94.3991 86.7432 106.527 54.7594 117.214 41.8003C127.199 29.6961 142.737 18.6274 160.975 10.6315C179.176 2.64888 199.182 -1.89351 217.301 -2.14735C217.866 -2.15403 218.423 -2.16071 218.979 -2.16071C230.058 -2.16071 240.216 -0.584229 249.18 2.53532C259.338 6.06903 267.791 11.5333 274.302 18.7744C283.43 28.9279 287.406 39.6493 286.822 52.5216C286.302 63.9043 282.326 75.1534 278.123 87.0638C271.576 105.601 264.809 124.766 272.278 144.291C274.266 149.475 274.101 152.761 271.776 154.338C267.262 157.391 254.387 153.917 239.469 149.896C214.638 143.202 182.112 134.438 160.847 146.656C160.236 147.291 159.634 147.918 159.032 148.526C158.987 148.58 158.95 148.627 158.905 148.673C179.741 134.425 213.59 143.55 239.186 150.45C254.979 154.705 267.454 158.072 272.332 154.772C274.904 153.029 275.141 149.548 273.071 144.124C265.658 124.752 272.396 105.668 278.916 87.2041C282.947 75.788 287.114 63.9778 287.643 52.535C288.226 39.7161 284.086 28.5605 274.986 18.4404C268.402 11.1057 259.831 5.57471 249.536 1.98756Z" fill="#252525"/>
<path d="M149.959 157.418C149.64 157.798 149.33 158.166 149.011 158.54C150.123 157.378 151.254 156.175 152.403 154.919C151.929 155.354 151.455 155.774 150.989 156.182C150.643 156.596 150.296 157.01 149.959 157.418Z" fill="#252525"/>
<path d="M158.275 147.445C157.518 148.219 156.789 149.041 156.087 149.909C156.05 149.956 156.005 150.003 155.968 150.05C155.348 150.825 154.737 151.593 154.126 152.348C155.512 151.038 156.926 149.649 158.376 148.173C159.123 147.304 159.871 146.416 160.628 145.507C159.825 146.189 159.041 146.83 158.275 147.445Z" fill="#252525"/>
<path d="M142.646 165.821C141.653 166.917 140.668 167.985 139.701 169.014C134.814 174.198 130.272 178.5 126.096 181.873C118.409 188.092 111.926 191.238 106.819 191.238C106.783 191.238 106.755 191.238 106.719 191.238C103.281 191.212 100.409 189.709 98.2019 186.783C90.7337 176.89 90.6881 150.551 98.1016 116.322C104.922 84.8263 116.175 55.6615 126.114 43.7578C135.169 32.8561 149.221 22.9229 165.662 15.8021C182.058 8.70126 200.149 4.67324 216.608 4.46616C217.073 4.45948 217.538 4.45948 217.994 4.45948C228.399 4.45948 237.937 5.95579 246.372 8.90834C255.883 12.235 263.788 17.3719 269.88 24.1654C278.269 33.5107 281.971 43.3904 281.543 55.254C281.16 65.7416 277.631 76.1156 273.892 87.0975C268.138 103.998 262.193 121.473 268.813 139.228C270.582 143.931 270.39 146.93 268.229 148.4C263.962 151.305 251.806 148.153 237.736 144.499C214.712 138.52 184.447 130.664 165.051 142.134C164.449 142.795 163.857 143.443 163.264 144.084C170.668 138.821 180.589 136.463 193.337 136.903C208.028 137.418 223.666 141.473 237.463 145.06C252.372 148.934 264.153 151.994 268.786 148.834C271.184 147.197 271.457 144.004 269.597 139.061C263.032 121.459 268.95 104.058 274.676 87.2311C278.26 76.7035 281.962 65.8151 282.354 55.2607C282.792 43.4305 278.935 33.15 270.564 23.8247C264.39 16.9377 256.366 11.734 246.727 8.36058C237.8 5.23435 227.66 3.718 216.59 3.85828C199.994 4.07204 181.757 8.12678 165.243 15.281C148.683 22.4553 134.54 32.4553 125.412 43.4438C115.427 55.4077 104.12 84.6593 97.29 116.222C89.8583 150.584 89.9312 177.064 97.4815 187.07C99.8433 190.203 102.953 191.806 106.71 191.833C106.746 191.833 106.783 191.833 106.819 191.833C113.558 191.833 122.321 186.77 132.99 176.75C135.37 174.512 137.85 172.027 140.412 169.301C143.385 166.148 146.476 162.668 149.695 158.854C147.27 161.406 144.908 163.724 142.646 165.821Z" fill="#252525"/>
<path d="M152.403 154.919C151.254 156.175 150.123 157.378 149.011 158.54C147.561 160.05 146.148 161.479 144.762 162.828C141.269 166.235 137.968 169.141 134.895 171.506C127.983 176.83 122.12 179.528 117.478 179.528C117.405 179.528 117.342 179.528 117.269 179.528C113.995 179.468 111.278 178.012 109.199 175.2C102.387 166.001 102.396 142.1 109.208 111.272C115.472 82.9358 125.84 56.59 135.005 45.7083C143.184 36.0023 155.768 27.2114 170.449 20.9523C185.066 14.7199 201.261 11.2062 216.042 11.0592C216.38 11.0592 216.717 11.0525 217.046 11.0525C226.775 11.0525 235.712 12.4687 243.617 15.2743C252.444 18.4005 259.794 23.1968 265.457 29.5294C273.107 38.0731 276.545 47.1111 276.262 57.966C276.016 67.5719 272.925 77.0708 269.66 87.1242C264.7 102.381 259.575 118.166 265.347 134.145C266.888 138.366 266.679 141.085 264.691 142.448C260.66 145.213 249.225 142.381 235.994 139.094C223.401 135.968 209.131 132.428 195.744 131.987C184.592 131.62 175.793 133.51 169.09 137.698C168.862 137.925 168.643 138.139 168.415 138.366C167.932 138.921 167.44 139.475 166.956 140.016C173.777 134.612 183.252 132.174 195.708 132.588C208.975 133.022 223.192 136.549 235.739 139.662C249.782 143.149 260.87 145.901 265.256 142.889C267.49 141.359 267.773 138.446 266.15 133.991C260.432 118.159 265.53 102.455 270.472 87.2644C273.609 77.6186 276.846 67.6453 277.092 57.9794C277.375 47.1445 273.8 37.7257 266.159 29.2021C260.414 22.7759 252.955 17.9062 243.991 14.7332C235.693 11.794 226.292 10.3578 216.052 10.458C201.124 10.605 184.793 14.1454 170.057 20.4312C155.266 26.7371 142.573 35.6015 134.33 45.3876C125.111 56.3295 114.706 82.7621 108.424 111.172C101.585 142.127 101.612 166.168 108.506 175.48C110.74 178.493 113.685 180.056 117.278 180.116C117.351 180.116 117.433 180.116 117.506 180.116C123.706 180.116 131.722 175.681 141.461 166.903C141.862 166.542 142.263 166.175 142.673 165.801C144.935 163.71 147.287 161.386 149.731 158.84C152.667 155.774 155.74 152.381 158.932 148.66C158.978 148.613 159.014 148.56 159.06 148.513C156.744 150.865 154.528 152.995 152.403 154.919Z" fill="#252525"/>
<path d="M158.376 148.172C159.644 146.883 160.939 145.527 162.261 144.111C161.714 144.592 161.176 145.059 160.638 145.514C159.872 146.415 159.115 147.304 158.376 148.172Z" fill="#252525"/>
<path d="M166.948 140.029C167.431 139.488 167.914 138.934 168.407 138.38C166.282 140.47 164.23 142.381 162.252 144.118C160.929 145.534 159.644 146.89 158.367 148.179C156.917 149.655 155.504 151.038 154.118 152.354C152.75 153.65 151.419 154.866 150.115 156.001C146.622 159.047 143.376 161.526 140.376 163.396C133.601 167.631 128.129 168.84 124.117 166.977C119.321 164.752 116.43 158.019 115.755 147.498C115.154 138.092 116.284 125.848 119.038 112.087C121.591 99.3217 125.43 85.9083 129.853 74.3252C134.467 62.2411 139.318 53.0227 143.887 47.6787C158.823 30.1972 188.213 17.8459 215.368 17.6522C224.678 17.5787 233.241 18.9281 240.8 21.6402C248.971 24.566 255.773 29.0416 261.016 34.9266C267.928 42.6554 271.083 50.845 270.947 60.698C270.828 69.4087 268.065 78.4267 265.384 87.1507C261.199 100.785 256.876 114.879 261.855 129.094C263.168 132.835 262.913 135.267 261.089 136.536C257.278 139.168 246.554 136.649 234.134 133.73C222.818 131.072 209.988 128.059 198.043 127.692C187.866 127.384 179.878 129.074 173.832 132.815C172.921 133.784 172.018 134.726 171.124 135.634C177.279 130.33 186.115 127.925 198.006 128.286C209.842 128.647 222.608 131.646 233.879 134.291C247.065 137.391 257.487 139.836 261.646 136.957C263.706 135.534 264.035 132.909 262.64 128.934C257.706 114.866 262.01 100.838 266.168 87.271C268.858 78.5202 271.631 69.4688 271.749 60.6913C271.886 50.8517 268.594 42.3147 261.682 34.586C256.348 28.6074 249.436 24.065 241.138 21.0924C233.46 18.3403 224.779 16.9775 215.332 17.0443C202.082 17.1379 187.666 20.1706 174.726 25.588C161.522 31.1124 150.616 38.634 143.166 47.3514C133.911 58.193 123.643 84.7727 118.199 111.994C115.445 125.788 114.306 138.072 114.907 147.518C115.61 158.393 118.546 165.106 123.652 167.471C125.02 168.105 126.525 168.419 128.166 168.419C133.418 168.419 140.048 165.16 147.999 158.673C148.893 157.945 149.805 157.177 150.735 156.362C150.808 156.302 150.881 156.235 150.944 156.175C151.41 155.761 151.884 155.34 152.358 154.912C154.492 152.982 156.698 150.851 158.996 148.513C159.598 147.905 160.2 147.277 160.811 146.643C161.604 145.814 162.416 144.953 163.227 144.078C163.82 143.443 164.413 142.788 165.015 142.127C165.689 141.446 166.319 140.744 166.948 140.029Z" fill="#252525"/>
<path d="M167.759 138.006C168.671 137.11 169.583 136.195 170.522 135.24C169.601 136.035 168.725 136.897 167.923 137.825C167.859 137.885 167.814 137.945 167.759 138.006Z" fill="#252525"/>
<path d="M173.85 132.815C174.087 132.562 174.333 132.308 174.571 132.054C179.987 126.269 188.422 123.624 200.367 123.958C210.772 124.252 222.097 126.73 232.082 128.921C244.429 131.626 254.177 133.757 258.107 131.018C259.995 129.702 260.35 127.364 259.183 123.878C255.07 111.586 258.572 99.2618 261.964 87.3514C264.198 79.4824 266.514 71.3395 266.496 63.4437C266.478 54.5861 263.46 46.9108 257.286 39.977C252.371 34.4393 245.997 30.2175 238.347 27.432C231.362 24.8869 223.502 23.5977 214.985 23.5977C214.884 23.5977 214.775 23.5977 214.675 23.5977C202.948 23.6377 190.774 26.1026 179.467 30.7252C168.069 35.3811 158.604 41.8073 152.084 49.3089C143.613 59.055 134.284 82.5485 129.387 106.429C126.898 118.58 125.877 129.435 126.442 137.805C127.099 147.451 129.779 153.483 134.43 155.734C135.798 156.396 137.312 156.723 138.962 156.723C144.041 156.723 150.497 153.617 158.257 147.438C159.032 146.823 159.817 146.182 160.61 145.507C161.148 145.053 161.686 144.585 162.233 144.105C164.212 142.374 166.263 140.457 168.388 138.366C168.616 138.146 168.835 137.926 169.063 137.698C169.738 137.024 170.431 136.329 171.124 135.621C172.036 134.719 172.938 133.784 173.85 132.815ZM149.412 152.728C143.375 156.135 138.497 156.977 134.904 155.233C126.542 151.185 124.792 132.976 130.217 106.523C135.105 82.7088 144.388 59.3155 152.795 49.6295C159.242 42.2081 168.607 35.8554 179.887 31.2462C191.075 26.6771 203.112 24.2389 214.693 24.1989C223.201 24.1721 231.043 25.4346 238 27.9664C245.514 30.7052 251.779 34.8534 256.612 40.2976C262.785 47.2248 265.666 54.5794 265.694 63.4371C265.712 71.266 263.405 79.3755 261.18 87.2178C257.779 99.195 254.259 111.586 258.408 124.011C259.502 127.271 259.219 129.422 257.56 130.578C253.976 133.076 243.946 130.878 232.328 128.34C222.289 126.142 210.909 123.65 200.404 123.35C191.002 123.083 183.708 124.639 178.3 128.073C176.185 130.057 174.142 131.873 172.181 133.51C171.625 134.098 171.069 134.666 170.513 135.233C169.574 136.189 168.662 137.111 167.75 137.999C160.829 144.813 154.674 149.756 149.412 152.728Z" fill="#252525"/>
<path d="M230.24 123.55C241.767 125.855 250.867 127.678 254.569 125.073C256.284 123.871 256.657 121.82 255.718 118.821C252.435 108.32 255.135 97.7186 257.752 87.4715C259.539 80.4709 261.39 73.2365 261.226 66.2158C261.053 58.3334 258.308 51.5198 252.855 45.3676C244.174 35.5413 230.359 30.1239 213.945 30.1172C213.927 30.1172 213.909 30.1172 213.891 30.1172C203.915 30.1172 193.638 32.1011 184.173 35.8553C174.589 39.6562 166.565 44.9868 160.984 51.2794C153.306 59.9299 144.908 80.3106 140.567 100.838C138.342 111.339 137.449 120.751 137.977 128.052C138.588 136.462 141.023 141.82 145.218 143.977C146.604 144.692 148.163 145.046 149.886 145.046C155.549 145.046 163.008 141.192 172.182 133.53C174.142 131.893 176.185 130.076 178.3 128.092C179.039 127.404 179.778 126.696 180.534 125.962C191.076 115.714 212.787 120.063 230.24 123.55ZM158.449 142.06C153.16 144.632 148.865 145.106 145.692 143.476C138.169 139.615 136.564 123.704 141.388 100.918C145.719 80.4642 154.063 60.1838 161.686 51.5933C167.194 45.3876 175.109 40.1238 184.574 36.3696C193.921 32.6623 204.061 30.705 213.9 30.705C213.918 30.705 213.936 30.705 213.954 30.705C230.085 30.7184 243.654 36.0357 252.18 45.6882C257.624 51.8271 260.241 58.3468 260.423 66.2225C260.578 73.183 258.736 80.3907 256.958 87.3579C254.323 97.6651 251.606 108.326 254.925 118.954C255.791 121.733 255.49 123.597 254.004 124.639C250.63 127.01 241.283 125.14 230.45 122.969C212.76 119.429 190.747 115.026 179.878 125.587C171.598 133.63 164.385 139.175 158.449 142.06Z" fill="#252525"/>
<path d="M228.343 118.186C238.647 120.01 247.547 121.593 251.04 119.114C252.572 118.026 252.973 116.275 252.252 113.757C249.79 105.066 251.714 96.2222 253.575 87.6651C254.915 81.5262 256.292 75.1735 255.991 69.0146C255.654 62.0941 253.183 56.1156 248.441 50.7449C240.489 41.6868 227.96 36.6434 213.179 36.5432C213.033 36.5432 212.896 36.5432 212.75 36.5432C195.944 36.5432 179.157 43.0629 169.883 53.2231C162.989 60.7782 155.549 78.0192 151.783 95.1534C149.84 103.991 149.074 111.954 149.567 118.186C150.132 125.367 152.311 130.063 156.05 132.147C157.518 132.969 159.187 133.376 161.065 133.376C167.312 133.376 175.829 128.854 186.479 119.863C195.388 112.348 213.662 115.587 228.343 118.186ZM167.549 131.392C163.017 133.122 159.315 133.223 156.552 131.673C149.886 127.945 148.409 114.325 152.594 95.2469C156.342 78.1862 163.728 61.0454 170.567 53.5571C179.686 43.5639 196.209 37.1444 212.75 37.1444C212.887 37.1444 213.033 37.1444 213.17 37.1444C227.668 37.2379 239.951 42.1878 247.748 51.0722C258.143 62.849 255.526 74.8596 252.763 87.5783C250.894 96.1888 248.952 105.087 251.45 113.884C252.107 116.182 251.778 117.758 250.465 118.687C247.301 120.931 238.602 119.388 228.526 117.605C213.626 114.966 195.087 111.68 185.859 119.468C178.801 125.44 172.637 129.448 167.549 131.392Z" fill="#252525"/>
<path d="M226.383 112.822C235.958 114.258 244.228 115.494 247.52 113.156C248.861 112.201 249.28 110.744 248.788 108.707C247.137 101.88 248.314 94.8526 249.444 88.0524C251.213 77.4246 253.046 66.436 244.028 56.1355C240.28 51.8336 235.474 48.4869 229.739 46.2023C224.495 44.1115 218.486 42.9625 212.368 42.869C199.054 42.6753 186.188 47.3914 178.802 55.1802C172.71 61.6064 166.273 75.6677 163.145 89.3684C161.513 96.5159 160.902 103.029 161.376 108.199C161.914 114.144 163.829 118.206 167.066 120.277C168.707 121.325 170.64 121.846 172.865 121.846C177.917 121.846 184.473 119.154 192.434 113.79C199.766 108.834 213.909 110.951 226.383 112.822ZM167.586 119.816C164.522 117.858 162.698 113.931 162.178 108.152C161.713 103.022 162.324 96.5627 163.938 89.4619C167.039 75.8414 173.422 61.8803 179.458 55.5209C186.543 48.046 198.79 43.4635 211.556 43.4635C211.811 43.4635 212.076 43.4635 212.331 43.4702C218.322 43.5571 224.204 44.686 229.328 46.7301C234.946 48.9678 239.651 52.241 243.326 56.4628C252.189 66.583 250.456 76.977 248.624 87.9856C247.484 94.8259 246.307 101.9 247.976 108.82C248.414 110.644 248.076 111.927 246.946 112.735C243.973 114.852 235.894 113.643 226.547 112.247C213.881 110.35 199.519 108.199 191.869 113.349C180.753 120.824 172.583 123.009 167.586 119.816Z" fill="#252525"/>
<path d="M243.882 107.485C245.113 106.583 245.596 105.294 245.314 103.657C244.466 98.8274 244.949 93.7773 245.414 88.9009C246.289 79.756 247.192 70.2905 239.596 61.5197C233.003 53.8444 222.754 49.2686 211.492 48.9747C201.945 48.7275 193.054 51.7736 187.683 57.1309C182.422 62.3814 178.045 73.6572 176.531 85.8615C174.935 98.7806 177.042 108.393 182.167 111.586C183.471 112.401 184.939 112.802 186.553 112.802C189.854 112.802 193.793 111.105 198.325 107.725C204.179 106.529 212.878 107.378 221.295 108.199C231.098 109.155 240.353 110.056 243.882 107.485ZM198.006 107.164L197.905 107.184L197.833 107.237C191.404 112.054 186.316 113.356 182.714 111.119C177.863 108.106 175.811 98.4399 177.361 85.9083C178.857 73.8108 183.17 62.6486 188.358 57.4783C193.437 52.4148 201.407 49.5558 210.362 49.5558C210.726 49.5558 211.1 49.5625 211.474 49.5692C222.462 49.8564 232.465 54.3253 238.912 61.8336C246.371 70.4441 245.478 79.8028 244.611 88.8541C244.146 93.7639 243.654 98.8407 244.511 103.73C244.767 105.2 244.374 106.289 243.317 107.057C240.07 109.422 231.006 108.54 221.423 107.598C212.869 106.763 204.033 105.901 198.006 107.164Z" fill="#252525"/>
<path d="M239.897 101.873C241.265 101.038 241.921 99.9363 241.848 98.6136C241.73 96.436 241.748 94.2382 241.766 91.9203C241.839 83.5169 241.912 74.8329 235.173 66.8971C229.146 59.7495 219.817 55.0602 210.835 54.6527C205.054 54.3922 200.002 55.962 196.601 59.0681C192.151 63.1296 188.887 71.1723 188.075 80.05C187.245 89.1414 189.133 96.7031 193.118 100.27C195.935 102.795 199.747 103.276 204.151 101.653C208.51 102.354 218.988 103.884 227.787 103.884C232.903 103.891 237.453 103.376 239.897 101.873ZM223.583 103.203C216.051 102.849 208.191 101.706 204.179 101.059L204.033 101.038L203.905 101.085C199.774 102.642 196.355 102.248 193.747 99.9029C189.954 96.4961 188.084 88.9076 188.887 80.0967C189.68 71.3326 192.881 63.4235 197.23 59.4489C200.467 56.4963 205.273 55.0067 210.781 55.2539C219.507 55.648 228.59 60.2305 234.48 67.2177C241.091 74.9999 241.018 83.6037 240.945 91.9203C240.927 94.2516 240.909 96.4493 241.027 98.647C241.091 99.7893 240.553 100.698 239.368 101.426C236.842 102.969 231.526 103.57 223.583 103.203Z" fill="#252525"/>
<path d="M215.404 60.3976C211.373 58.9213 207.954 59.1351 205.51 61.0122C200.75 64.6795 198.698 71.0455 199.902 78.487C201.015 85.4075 204.799 91.9071 209.778 95.4542C213.744 98.2731 218.659 99.3018 223.228 99.3018C225.763 99.3018 228.197 98.9812 230.295 98.4802C234.772 97.4047 237.945 95.4942 238.374 93.6172C239.596 88.2465 237.353 81.159 232.219 74.1717C227.477 67.7389 221.039 62.4617 215.404 60.3976ZM237.562 93.517C237.188 95.1536 234.161 96.9171 230.039 97.9124C224.395 99.2684 216.252 99.2284 210.352 95.0266C205.501 91.5731 201.808 85.2071 200.714 78.4202C199.546 71.1591 201.507 64.9667 206.103 61.433C207.434 60.411 208.966 60.0436 210.498 60.0436C212.121 60.0436 213.717 60.4577 215.039 60.9387C220.529 62.9494 226.839 68.1264 231.489 74.459C236.541 81.326 238.757 88.2732 237.562 93.517Z" fill="#252525"/>
<path d="M64.718 -25.1998C85.5634 -6.94339 92.9769 4.79333 90.2868 15.3143C87.6242 25.7351 75.3413 34.8065 56.7391 48.5472C46.9365 55.7883 35.83 63.9913 23.5471 74.2918C15.55 81.0119 7.51638 87.5182 -0.453369 93.764V94.6391C7.72611 88.2397 15.9603 81.573 24.1762 74.6793C36.4409 64.3921 47.5384 56.1958 57.3319 48.968C94.1076 21.8072 107.868 11.647 65.3472 -25.5805C62.6937 -27.9052 60.0219 -30.0428 57.3319 -32H56.1738C59.0371 -29.9426 61.8912 -27.6781 64.718 -25.1998Z" fill="#252525"/>
<path d="M55.6083 -22.6681C75.0038 -6.12175 81.9249 4.61965 79.5176 14.4192C77.1285 24.1319 65.8031 32.7824 48.6781 45.8819C40.0062 52.5151 30.1763 60.0301 19.3433 69.3353C12.7869 74.9665 6.18496 80.4241 -0.444336 85.7079V86.5897C6.39469 81.1522 13.2064 75.5343 19.9724 69.7227C30.7872 60.4309 40.6081 52.9226 49.28 46.2961C83.1559 20.3978 95.8309 10.7051 56.2467 -23.0622C52.1979 -26.489 48.1219 -29.475 44.0093 -32H42.7145C47.055 -29.4015 51.359 -26.2886 55.6083 -22.6681Z" fill="#252525"/>
<path d="M46.4896 -20.1364C64.4535 -5.30011 70.9004 4.46602 68.7484 13.5575C66.6146 22.5821 56.2467 30.8319 40.5534 43.3235C33.0213 49.3221 24.4771 56.1156 15.1213 64.3921C10.0148 68.9011 4.83539 73.2899 -0.444336 77.5784V78.4735C5.05424 74.0247 10.4434 69.4622 15.7505 64.7796C25.0972 56.5231 33.6323 49.7296 41.1552 43.7376C72.1861 19.0351 83.8034 9.78997 47.1097 -20.5238C41.1643 -25.4336 35.1277 -29.2545 29.0091 -32H27.4589C33.8785 -29.2545 40.2616 -25.2866 46.4896 -20.1364Z" fill="#252525"/>
<path d="M32.9758 41.2994C61.2529 17.6991 71.8397 8.86813 37.9729 -18.0121C27.4134 -26.3955 16.4345 -31.0715 5.18199 -32H-0.453369V-31.5391C0.0208035 -31.5524 0.494976 -31.5725 0.969149 -31.5725C13.4618 -31.5725 25.6717 -26.8965 37.3801 -17.6046C53.9306 -4.46512 59.9033 4.32574 57.9975 12.7425C56.1008 21.0992 46.663 28.9749 32.3648 40.9053C25.9909 46.2293 18.7597 52.2546 10.8903 59.4423C7.06044 62.9426 3.27618 66.2492 -0.453369 69.3821V70.2906C3.47679 66.9973 7.47079 63.5171 11.5286 59.8163C19.3889 52.642 26.6109 46.6167 32.9758 41.2994Z" fill="#252525"/>
<path d="M24.7139 39.0749C50.3648 16.4431 59.9576 7.97287 28.8446 -15.4939C19.4706 -22.5613 9.65887 -26.4357 -0.453772 -27.0703V-26.4558C9.44002 -25.8145 19.0603 -22.0136 28.261 -15.0664C43.4437 -3.6169 48.9514 4.2254 47.2735 11.9942C45.6048 19.7163 37.0423 27.2713 24.0847 38.7008C18.8961 43.2832 13.0054 48.4736 6.65882 54.4989C4.26972 56.7635 1.89885 58.9344 -0.462891 61.0186V61.9538C2.10858 59.696 4.6983 57.3379 7.30625 54.8663C13.6529 48.8477 19.5253 43.6573 24.7139 39.0749Z" fill="#252525"/>
<path d="M16.325 37.1778C39.523 15.2875 48.204 7.09788 19.7172 -12.9688C13.252 -17.5245 6.5042 -20.3836 -0.453369 -21.5659V-20.9514C6.30359 -19.7757 12.8599 -16.9701 19.1518 -12.5346C33.0123 -2.76845 38.064 4.14533 36.5868 11.333C35.1187 18.4739 27.386 25.7684 15.6776 36.8171C11.711 40.5579 7.21546 44.8064 2.43726 49.5558C1.47068 50.5178 0.504095 51.4529 -0.453369 52.3748V53.3634C0.722944 52.2479 1.90838 51.0989 3.09381 49.9165C7.87201 45.1537 12.3584 40.9186 16.325 37.1778Z" fill="#252525"/>
<path d="M26.766 10.9054C28.1429 3.97824 23.4559 -2.20742 10.5803 -10.4505C7.02397 -12.7351 3.33089 -14.4318 -0.453369 -15.5674V-14.9261C3.14852 -13.8172 6.6501 -12.174 10.0514 -10.003C22.6808 -1.9135 27.2949 4.11852 25.9635 10.8185C24.6413 17.4718 17.6473 24.6261 7.05132 35.461C4.76253 37.8057 2.20929 40.4242 -0.453369 43.2031V44.2452C2.42814 41.2191 5.11816 38.467 7.71699 35.8084C18.3768 24.9066 25.4164 17.6989 26.766 10.9054Z" fill="#252525"/>
<path d="M1.44332 -7.93854C0.814131 -8.2859 0.18494 -8.60654 -0.453369 -8.91382V-8.17902C0.0208035 -7.94522 0.485857 -7.71142 0.950911 -7.45758C23.6838 5.1275 17.5196 13.1101 -0.453369 33.3771V34.4727C8.52856 24.3525 14.9846 16.9377 16.2339 10.6652C17.5652 4.00526 13.2794 -1.38548 1.44332 -7.93854Z" fill="#252525"/>
<path d="M-0.453369 -1.61304V-0.7914C7.85377 5.04022 6.5498 11.5866 -0.453369 21.827V23.1563C3.06645 18.153 5.33701 14.0181 5.95708 10.3842C6.76865 5.66146 4.79901 1.88059 -0.453369 -1.61304Z" fill="#252525"/>
</svg>
