<svg width="30" height="30" viewBox="0 0 30 30" fill="none" xmlns="http://www.w3.org/2000/svg">
<rect width="30" height="30" rx="6" fill="#2D2E2E"/>
<path d="M7.5 21.9446L8.57622 17.943C7.70827 16.3842 7.43252 14.5651 7.79956 12.8197C8.16659 11.0743 9.1518 9.51953 10.5744 8.44076C11.997 7.36199 13.7615 6.83156 15.5442 6.9468C17.3269 7.06205 19.0082 7.81524 20.2796 9.06816C21.5509 10.3211 22.327 11.9897 22.4655 13.7678C22.604 15.5459 22.0956 17.3143 21.0335 18.7483C19.9715 20.1824 18.427 21.186 16.6836 21.575C14.9402 21.964 13.1147 21.7122 11.5422 20.866L7.5 21.9446ZM11.7371 19.3685L11.9871 19.5166C13.1261 20.1906 14.4564 20.4695 15.7708 20.3099C17.0852 20.1502 18.3097 19.561 19.2536 18.634C20.1975 17.707 20.8078 16.4944 20.9893 15.185C21.1708 13.8756 20.9133 12.543 20.257 11.395C19.6007 10.2469 18.5824 9.34786 17.3608 8.8379C16.1393 8.32793 14.7831 8.23571 13.5035 8.5756C12.224 8.91549 11.093 9.6684 10.2868 10.717C9.48065 11.7656 9.04456 13.051 9.04653 14.3729C9.04546 15.4689 9.34908 16.5437 9.9236 17.4777L10.0804 17.7357L9.47871 19.9692L11.7371 19.3685Z" fill="white"/>
<path fill-rule="evenodd" clip-rule="evenodd" d="M17.8045 15.4004C17.658 15.2824 17.4864 15.1993 17.3028 15.1575C17.1193 15.1157 16.9286 15.1163 16.7453 15.1593C16.4699 15.2735 16.2919 15.7049 16.114 15.9207C16.0764 15.9724 16.0213 16.0087 15.9589 16.0227C15.8965 16.0367 15.8311 16.0275 15.775 15.9968C14.7667 15.6025 13.9215 14.8795 13.3768 13.9452C13.3303 13.8869 13.3084 13.8129 13.3155 13.7387C13.3226 13.6646 13.3582 13.5961 13.4149 13.5476C13.6134 13.3514 13.7591 13.1085 13.8386 12.8412C13.8563 12.5464 13.7886 12.2527 13.6437 11.9952C13.5317 11.6342 13.3185 11.3127 13.0294 11.0688C12.8802 11.0018 12.7149 10.9794 12.5532 11.0041C12.3916 11.0289 12.2406 11.0999 12.1184 11.2084C11.9063 11.3911 11.738 11.6189 11.6258 11.8751C11.5136 12.1314 11.4604 12.4094 11.4701 12.6889C11.4708 12.8458 11.4907 13.0021 11.5294 13.1542C11.6278 13.5196 11.7791 13.8688 11.9786 14.1906C12.1225 14.4371 12.2795 14.6757 12.4489 14.9055C12.9995 15.6601 13.6917 16.3008 14.4869 16.7921C14.886 17.0417 15.3125 17.2447 15.758 17.397C16.2209 17.6064 16.7319 17.6868 17.2368 17.6296C17.5245 17.5861 17.797 17.4727 18.0305 17.2994C18.264 17.1261 18.4512 16.8981 18.5757 16.6355C18.6488 16.4769 18.671 16.2996 18.6392 16.1279C18.563 15.7768 18.0927 15.5696 17.8045 15.4004Z" fill="white"/>
</svg>
