<svg width="477" height="221" viewBox="0 0 477 221" fill="none" xmlns="http://www.w3.org/2000/svg">
<path d="M323.982 125.225C312.331 80.2824 304.619 50.5975 311.32 43.8516C312.724 42.4481 314.685 42.0557 317.191 42.6896C329.717 45.8588 361.695 83.361 405.959 135.261C427.645 160.69 451.776 188.971 476.888 216.981V219.003C451.399 190.631 426.906 161.912 404.917 136.136C362.48 86.3642 328.962 47.0661 316.859 44.0025C316.195 43.8365 315.591 43.746 315.033 43.746C313.901 43.746 312.995 44.0931 312.286 44.8024C306.144 50.9899 314.172 81.9877 325.295 124.878C333.64 157.053 344.023 197.105 351.524 239.075C360.307 288.288 363.386 330.121 360.926 366.99C360.005 380.844 359.356 393.838 358.979 406.047H357.621C357.998 393.807 358.647 380.784 359.567 366.899C362.012 330.137 358.949 288.409 350.181 239.301C342.71 197.392 332.327 157.37 323.982 125.225Z" fill="#252525"/>
<path d="M330.23 91.4805C331.543 90.077 333.369 89.594 335.678 90.0166C347.54 92.2049 379.428 128.138 419.797 173.623C437.364 193.423 456.711 215.23 476.888 237.053V239.045C456.349 216.845 436.655 194.661 418.771 174.514C378.583 129.224 346.83 93.4424 335.421 91.3296C334.968 91.239 334.531 91.2088 334.138 91.2088C332.916 91.2088 331.95 91.6012 331.211 92.386C325.295 98.7093 333.112 129.601 343.027 168.703C358.285 228.949 379.186 311.469 374.463 385.96C374.025 392.887 373.648 399.573 373.346 406.032H371.988C372.29 399.588 372.652 392.887 373.104 385.87C377.828 311.604 356.957 229.205 341.714 169.035C330.924 126.462 323.801 98.332 330.23 91.4805Z" fill="#252525"/>
<path d="M349.124 139.124C350.347 137.721 352.037 137.132 354.15 137.358C365.393 138.536 395.545 170.861 433.727 211.805C447.143 226.187 461.691 241.791 476.888 257.607V259.554C461.344 243.391 446.434 227.409 432.731 212.725C394.746 171.993 364.744 139.833 353.999 138.702C352.324 138.52 351.056 138.958 350.135 140.015C344.461 146.519 351.629 175.645 360.714 212.529C373.889 266.028 391.924 339.297 387.97 404.975C387.939 405.337 387.924 405.7 387.909 406.062H386.551C386.581 405.669 386.596 405.292 386.626 404.9C390.55 339.433 372.546 266.285 359.401 212.861C349.879 174.121 342.982 146.157 349.124 139.124Z" fill="#252525"/>
<path d="M368.005 186.783C369.136 185.38 370.706 184.67 372.623 184.686C383.277 184.776 411.755 213.42 447.808 249.669C457.12 259.026 466.869 268.835 476.905 278.751V280.652C466.522 270.405 456.456 260.279 446.857 250.62C412.449 216.015 382.719 186.119 372.623 186.029C372.607 186.029 372.592 186.029 372.562 186.029C371.068 186.029 369.921 186.557 369.076 187.613C363.688 194.374 370.178 221.675 378.388 256.234C388.333 298.143 401.568 353.921 401.945 406.032H400.587C400.225 354.087 387.005 298.385 377.075 256.551C368.427 220.271 362.194 194.057 368.005 186.783Z" fill="#252525"/>
<path d="M63.1564 -23.2146C78.9421 -30.6999 96.9009 -34.3068 116.535 -33.9295C146.748 -33.3409 180.1 -23.0184 210.419 -4.86334C240.783 13.3219 266.665 38.4944 283.311 66.0212C301.088 95.4345 321.235 167.904 333.444 246.349C344.552 317.717 346.242 375.079 338.53 406.047H337.157C344.914 375.441 343.239 318.094 332.101 246.56C319.907 168.266 299.836 96.0079 282.149 66.7305C265.623 39.3848 239.908 14.3783 209.725 -3.68621C179.602 -21.7205 146.491 -31.9827 116.505 -32.5562C115.569 -32.5713 114.648 -32.5864 113.728 -32.5864C95.3918 -32.5864 78.5799 -29.0248 63.745 -21.9771C46.9331 -13.9937 32.9433 -1.64886 22.168 14.7103C7.06149 37.6493 0.481598 61.8711 1.44745 90.9523C2.30768 116.668 8.88754 142.082 15.8447 168.99C26.6804 210.869 37.8782 254.166 25.5183 298.279C22.2284 309.99 22.5 317.415 26.3484 320.976C33.8186 327.873 55.1278 320.026 79.8174 310.94C120.911 295.819 174.743 276.019 209.936 303.621C210.947 305.055 211.943 306.473 212.939 307.847C213.015 307.967 213.075 308.073 213.15 308.179C178.666 275.989 122.647 296.604 80.2852 312.193C54.1469 321.806 33.5017 329.412 25.4278 321.957C21.172 318.018 20.7796 310.156 24.2054 297.901C36.4747 254.136 25.3221 211.02 14.5318 169.307C7.86133 143.516 0.964539 116.834 0.0892334 90.9825C-0.876617 62.022 5.97491 36.8193 21.0362 13.9557C31.9322 -2.61471 46.1182 -15.1104 63.1564 -23.2146Z" fill="#252525"/>
<path d="M240.059 346.918C241.704 349.393 243.333 351.808 244.933 354.132C253.022 365.843 260.538 375.562 267.45 383.183C280.172 397.233 290.902 404.341 299.353 404.341C299.413 404.341 299.459 404.341 299.519 404.341C305.208 404.281 309.962 400.885 313.614 394.275C325.974 371.925 326.05 312.419 313.78 235.09C302.492 163.934 283.869 98.0449 267.419 71.1519C252.434 46.5226 229.178 24.0816 201.968 7.99413C174.833 -8.04808 144.892 -17.1482 117.652 -17.6161C116.882 -17.6312 116.112 -17.6312 115.358 -17.6312C98.1385 -17.6312 82.3528 -14.2507 68.3932 -7.58024C52.6528 -0.0646973 39.5685 11.5406 29.4875 26.8886C15.6033 48.0016 9.47617 70.3219 10.1855 97.1243C10.8193 120.818 16.6597 144.255 22.8472 169.065C32.3699 207.247 42.2095 246.726 31.2531 286.839C28.3254 297.463 28.6423 304.239 32.219 307.56C39.2818 314.124 59.3987 307.001 82.6848 298.746C120.791 285.239 170.879 267.492 202.979 293.404C203.975 294.898 204.956 296.362 205.937 297.81C193.682 285.918 177.263 280.591 156.165 281.587C131.853 282.749 105.971 291.91 83.1376 300.014C58.463 308.767 38.9648 315.679 31.2984 308.54C27.3293 304.843 26.8766 297.629 29.9553 286.462C40.8211 246.696 31.0268 207.382 21.5493 169.367C15.6184 145.583 9.49124 120.984 8.84232 97.1394C8.11792 70.4124 14.5016 47.1867 28.3556 26.119C38.5725 10.5597 51.853 -1.19656 67.8046 -8.81775C82.5792 -15.8805 99.3609 -19.3063 117.682 -18.9894C145.148 -18.5065 175.331 -9.34595 202.662 6.817C230.068 23.0252 253.475 45.6171 268.581 70.4426C285.107 97.4714 303.82 163.557 315.123 234.864C327.423 312.494 327.302 372.317 314.807 394.924C310.898 402.002 305.752 405.624 299.534 405.684C299.474 405.684 299.413 405.684 299.353 405.684C288.2 405.684 273.697 394.245 256.04 371.608C252.102 366.552 247.997 360.938 243.756 354.781C238.836 347.658 233.72 339.795 228.393 331.178C232.407 336.943 236.316 342.179 240.059 346.918Z" fill="#252525"/>
<path d="M223.912 322.289C225.813 325.127 227.684 327.843 229.526 330.469C231.925 333.88 234.264 337.109 236.558 340.158C242.338 347.854 247.801 354.419 252.887 359.761C264.327 371.789 274.03 377.886 281.712 377.886C281.833 377.886 281.938 377.886 282.059 377.886C287.477 377.75 291.974 374.46 295.415 368.107C306.688 347.326 306.673 293.329 295.4 223.682C285.032 159.664 267.873 100.143 252.706 75.5591C239.169 53.6312 218.343 33.7708 194.046 19.6301C169.854 5.54982 143.052 -2.38828 118.588 -2.7203C118.03 -2.7203 117.472 -2.73539 116.928 -2.73539C100.826 -2.73539 86.0361 0.463997 72.9518 6.80241C58.3432 13.8652 46.1796 24.7009 36.8078 39.0076C24.146 58.3096 18.4565 78.7283 18.9244 103.252C19.3318 124.953 24.4478 146.413 29.8506 169.126C38.0603 203.595 46.5417 239.256 36.9889 275.355C34.4384 284.893 34.7855 291.035 38.0754 294.114C44.7458 300.361 63.6705 293.963 85.5683 286.538C106.41 279.475 130.028 271.476 152.182 270.48C170.639 269.65 185.202 273.921 196.294 283.384C196.672 283.897 197.034 284.38 197.411 284.893C198.211 286.145 199.026 287.398 199.826 288.62C188.537 276.411 172.857 270.903 152.242 271.839C130.284 272.82 106.757 280.788 85.9908 287.82C62.75 295.698 44.3987 301.916 37.1397 295.11C33.4423 291.654 32.9745 285.074 35.6608 275.008C45.1231 239.241 36.687 203.761 28.5074 169.443C23.316 147.651 17.9585 125.119 17.5511 103.282C17.0832 78.8037 22.9991 57.5248 35.6457 38.2681C45.1533 23.7501 57.4981 12.7484 72.333 5.58C86.0662 -1.06024 101.626 -4.3049 118.573 -4.07852C143.278 -3.74651 170.307 4.25196 194.695 18.453C219.173 32.6994 240.18 52.7257 253.823 74.8347C269.08 99.5545 286.3 159.271 296.698 223.455C308.016 293.389 307.971 347.703 296.562 368.741C292.864 375.547 287.99 379.078 282.044 379.214C281.923 379.214 281.787 379.214 281.667 379.214C271.404 379.214 258.139 369.194 242.021 349.363C241.357 348.548 240.693 347.718 240.014 346.873C236.272 342.15 232.378 336.898 228.333 331.148C223.474 324.221 218.388 316.555 213.106 308.149C213.031 308.043 212.97 307.922 212.895 307.817C216.728 313.129 220.395 317.943 223.912 322.289Z" fill="#252525"/>
<path d="M199.84 288.65C199.04 287.428 198.24 286.175 197.425 284.922C200.942 289.646 204.337 293.962 207.612 297.886C209.8 301.085 211.928 304.149 214.041 307.062C216.44 310.397 218.78 313.521 221.074 316.494C223.337 319.422 225.541 322.168 227.699 324.734C233.479 331.615 238.851 337.214 243.816 341.44C255.029 351.008 264.084 353.74 270.724 349.529C278.663 344.504 283.447 329.291 284.563 305.522C285.559 284.273 283.688 256.611 279.13 225.522C274.905 196.683 268.551 166.379 261.232 140.21C253.596 112.91 245.567 92.0838 238.006 80.0106C213.286 40.5163 164.647 12.6122 119.704 12.1745C104.296 12.0085 90.125 15.057 77.6142 21.1841C64.0922 27.7942 52.834 37.9055 44.1564 51.201C32.7171 68.6618 27.4955 87.164 27.7218 109.424C27.918 129.103 32.4907 149.477 36.9276 169.186C43.8546 199.988 51.0079 231.831 42.768 263.945C40.5948 272.397 41.0174 277.89 44.0357 280.757C50.3439 286.703 68.0915 281.014 88.646 274.419C107.375 268.412 128.608 261.606 148.378 260.776C165.22 260.082 178.44 263.9 188.446 272.351C189.955 274.54 191.449 276.667 192.928 278.72C182.741 266.737 168.118 261.304 148.438 262.119C128.85 262.934 107.722 269.71 89.0686 275.686C67.2463 282.689 49.9968 288.212 43.1151 281.708C39.7045 278.493 39.1612 272.563 41.4702 263.583C49.6346 231.801 42.5114 200.108 35.6297 169.458C31.1777 149.688 26.5899 129.239 26.3938 109.409C26.1674 87.179 31.6154 67.8922 43.0547 50.4314C51.8832 36.9245 63.3226 26.6623 77.0558 19.9466C89.7628 13.7289 104.13 10.6503 119.765 10.8012C141.693 11.0125 165.552 17.864 186.967 30.1032C208.819 42.5838 226.869 59.5768 239.198 79.2711C254.516 103.765 271.509 163.813 280.519 225.311C285.076 256.475 286.963 284.228 285.967 305.568C284.805 330.136 279.945 345.303 271.494 350.646C269.23 352.079 266.74 352.789 264.024 352.789C255.331 352.789 244.36 345.424 231.2 330.77C229.721 329.125 228.212 327.39 226.673 325.549C226.552 325.413 226.431 325.262 226.325 325.126C225.556 324.19 224.771 323.24 223.986 322.274C220.455 317.912 216.803 313.098 213 307.816C212.004 306.443 211.008 305.024 209.996 303.591C208.683 301.719 207.34 299.772 205.997 297.795C205.016 296.362 204.035 294.883 203.039 293.389C201.923 291.849 200.881 290.265 199.84 288.65Z" fill="#252525"/>
<path d="M188.417 272.352C188.024 271.779 187.617 271.205 187.225 270.632C178.26 257.562 164.301 251.586 144.531 252.341C127.311 253.005 108.568 258.604 92.0427 263.554C71.6089 269.666 55.4762 274.48 48.9717 268.292C45.8478 265.319 45.2592 260.037 47.1909 252.16C53.9971 224.391 48.202 196.548 42.588 169.64C38.8906 151.862 35.0574 133.465 35.0876 115.627C35.1178 95.616 40.113 78.2759 50.3299 62.6109C58.4642 50.1001 69.0131 40.5623 81.6749 34.2692C93.2349 28.5193 106.244 25.6067 120.339 25.6067C120.505 25.6067 120.686 25.6067 120.852 25.6067C140.26 25.6972 160.407 31.266 179.12 41.7093C197.985 52.228 213.65 66.746 224.44 83.6937C238.46 105.712 253.899 158.789 262.003 212.741C266.123 240.192 267.813 264.716 266.877 283.625C265.791 305.417 261.354 319.045 253.657 324.131C251.393 325.625 248.888 326.364 246.157 326.364C237.751 326.364 227.066 319.347 214.223 305.387C212.94 303.999 211.643 302.55 210.33 301.026C209.439 300 208.549 298.943 207.643 297.857C204.368 293.948 200.973 289.617 197.457 284.893C197.079 284.395 196.717 283.897 196.34 283.384C195.223 281.86 194.076 280.29 192.929 278.69C191.42 276.653 189.926 274.54 188.417 272.352ZM228.862 317.34C238.852 325.036 246.926 326.938 252.872 322.999C266.711 313.853 269.609 272.714 260.629 212.952C252.54 159.151 237.177 106.301 223.263 84.4181C212.593 67.6515 197.094 53.2995 178.426 42.8864C159.909 32.5638 139.988 27.0555 120.822 26.9649C106.742 26.9045 93.7631 29.7568 82.2484 35.4765C69.813 41.664 59.4452 51.0358 51.4467 63.3353C41.2298 78.9852 36.4609 95.6009 36.4156 115.612C36.3854 133.299 40.2036 151.62 43.8859 169.338C49.515 196.397 55.3403 224.391 48.4737 252.461C46.6627 259.826 47.1305 264.686 49.8772 267.296C55.8081 272.941 72.4087 267.975 91.6353 262.241C108.251 257.276 127.085 251.646 144.47 250.967C160.03 250.364 172.103 253.88 181.052 261.637C184.553 266.119 187.934 270.224 191.178 273.922C192.099 275.25 193.02 276.532 193.94 277.815C195.495 279.973 197.004 282.056 198.513 284.063C209.967 299.456 220.154 310.624 228.862 317.34Z" fill="#252525"/>
<path d="M95.0906 251.42C76.015 256.626 60.9537 260.746 54.8266 254.861C51.9894 252.144 51.3707 247.511 52.9251 240.735C58.358 217.011 53.8909 193.061 49.5597 169.911C46.6017 154.095 43.5382 137.751 43.8098 121.89C44.0966 104.082 48.6391 88.6887 57.6638 74.7895C72.0308 52.59 94.8944 40.3508 122.059 40.3357C122.089 40.3357 122.119 40.3357 122.15 40.3357C138.66 40.3357 155.668 44.8179 171.333 53.2993C187.194 61.8863 200.474 73.9293 209.71 88.1454C222.417 107.689 236.316 153.733 243.5 200.109C247.182 223.833 248.661 245.097 247.786 261.592C246.775 280.592 242.745 292.695 235.803 297.57C233.509 299.184 230.929 299.984 228.077 299.984C218.705 299.984 206.36 291.276 191.178 273.967C187.933 270.269 184.553 266.164 181.052 261.682C179.829 260.128 178.607 258.528 177.354 256.868C159.908 233.718 123.976 243.542 95.0906 251.42ZM213.906 293.238C222.659 299.049 229.767 300.12 235.019 296.438C247.469 287.715 250.125 251.767 242.142 200.29C234.973 154.08 221.165 108.262 208.548 88.8547C199.433 74.8348 186.334 62.9427 170.669 54.4613C155.2 46.0855 138.418 41.6637 122.134 41.6637C122.104 41.6637 122.074 41.6637 122.044 41.6637C95.3472 41.6939 72.8911 53.7067 58.7806 75.5139C49.771 89.3829 45.4397 104.112 45.1379 121.905C44.8813 137.63 47.9298 153.914 50.8726 169.654C55.234 192.94 59.7313 217.026 54.238 241.037C52.8043 247.315 53.3024 251.526 55.7623 253.88C61.3461 259.237 76.8148 255.012 94.7435 250.107C124.021 242.108 160.452 232.163 178.441 256.023C192.144 274.193 204.081 286.719 213.906 293.238Z" fill="#252525"/>
<path d="M98.2302 239.301C81.1768 243.421 66.4476 246.997 60.6676 241.398C58.1322 238.938 57.4682 234.984 58.6604 229.295C62.7351 209.661 59.5508 189.68 56.4722 170.348C54.2537 156.479 51.9749 142.127 52.4729 128.212C53.0312 112.578 57.121 99.0708 64.9686 86.9372C78.1283 66.4732 98.864 55.0792 123.327 54.8528C123.569 54.8528 123.795 54.8528 124.037 54.8528C151.85 54.8528 179.633 69.582 194.982 92.5361C206.391 109.605 218.705 148.556 224.938 187.265C228.153 207.231 229.42 225.22 228.605 239.301C227.67 255.524 224.063 266.133 217.875 270.842C215.446 272.698 212.684 273.619 209.575 273.619C199.237 273.619 185.142 263.402 167.515 243.089C152.771 226.111 122.527 233.43 98.2302 239.301ZM198.845 269.136C206.345 273.045 212.473 273.271 217.045 269.77C228.077 261.349 230.522 230.578 223.595 187.477C217.392 148.933 205.168 110.208 193.85 93.2907C178.758 70.7139 151.412 56.211 124.037 56.211C123.81 56.211 123.569 56.211 123.342 56.211C99.3469 56.4223 79.0188 67.6051 66.1156 87.6767C48.9113 114.283 53.2426 141.417 57.8153 170.151C60.909 189.604 64.1235 209.706 59.9884 229.582C58.9019 234.773 59.4451 238.335 61.6183 240.432C66.855 245.503 81.2523 242.017 97.9284 237.988C122.588 232.026 153.269 224.601 168.541 242.198C180.222 255.69 190.424 264.745 198.845 269.136Z" fill="#252525"/>
<path d="M101.475 227.183C85.6285 230.427 71.9406 233.219 66.4925 227.937C64.2741 225.779 63.5799 222.489 64.3949 217.886C67.1264 202.463 65.1796 186.587 63.3083 171.223C60.3805 147.213 57.3471 122.387 72.2726 99.1165C78.4752 89.3976 86.4283 81.8367 95.9209 76.6755C104.598 71.9518 114.544 69.3561 124.67 69.1448C146.704 68.7072 167.998 79.3617 180.222 96.9584C190.303 111.476 200.957 143.244 206.134 174.196C208.835 190.344 209.846 205.058 209.062 216.739C208.171 230.171 205.002 239.346 199.644 244.025C196.928 246.394 193.729 247.571 190.046 247.571C181.686 247.571 170.835 241.489 157.66 229.371C145.526 218.173 122.12 222.957 101.475 227.183ZM198.784 242.983C203.855 238.562 206.873 229.688 207.733 216.634C208.503 205.043 207.492 190.45 204.821 174.408C199.69 143.636 189.126 112.095 179.135 97.728C167.409 80.8407 147.141 70.488 126.013 70.488C125.591 70.488 125.153 70.488 124.73 70.5031C114.815 70.6992 105.081 73.2497 96.6 77.8677C87.3036 82.9233 79.5165 90.3181 73.4346 99.8559C58.7657 122.719 61.6331 146.202 64.6665 171.073C66.5529 186.526 68.4997 202.508 65.738 218.143C65.0136 222.263 65.572 225.16 67.4433 226.986C72.3631 231.77 85.7341 229.039 101.203 225.885C122.165 221.599 145.934 216.739 158.596 228.375C176.992 245.262 190.514 250.197 198.784 242.983Z" fill="#252525"/>
<path d="M72.5145 215.125C70.4771 213.087 69.6773 210.175 70.1452 206.477C71.5487 195.566 70.7488 184.157 69.9791 173.14C68.5304 152.48 67.0363 131.096 79.6075 111.281C90.5186 93.9404 107.481 83.6028 126.119 82.9388C141.92 82.3804 156.634 89.2621 165.523 101.365C174.231 113.227 181.475 138.702 183.98 166.274C186.621 195.461 183.135 217.177 174.653 224.391C172.495 226.232 170.066 227.138 167.394 227.138C161.931 227.138 155.412 223.304 147.911 215.668C138.223 212.967 123.825 214.883 109.896 216.74C93.6727 218.898 78.3549 220.935 72.5145 215.125ZM148.44 214.4L148.606 214.446L148.726 214.566C159.366 225.447 167.787 228.39 173.748 223.335C181.777 216.528 185.172 194.691 182.607 166.379C180.132 139.049 172.993 113.831 164.406 102.15C156 90.7109 142.811 84.2517 127.991 84.2517C127.387 84.2517 126.768 84.2668 126.15 84.2819C107.964 84.9308 91.409 95.027 80.7393 111.99C68.3945 131.443 69.8735 152.586 71.3072 173.035C72.0769 184.127 72.8918 195.596 71.4732 206.643C71.0506 209.964 71.6996 212.423 73.4502 214.159C78.8228 219.501 93.8236 217.509 109.685 215.381C123.841 213.495 138.464 211.548 148.44 214.4Z" fill="#252525"/>
<path d="M79.1094 202.449C76.8457 200.562 75.759 198.072 75.8798 195.084C76.076 190.164 76.0458 185.199 76.0156 179.962C75.8949 160.977 75.7741 141.358 86.9267 123.43C96.9022 107.282 112.341 96.6878 127.206 95.7672C136.774 95.1786 145.134 98.7251 150.764 105.743C158.128 114.918 163.531 133.088 164.874 153.145C166.247 173.684 163.123 190.768 156.529 198.827C151.865 204.531 145.557 205.618 138.268 201.951C131.054 203.535 113.714 206.991 99.1508 206.991C90.6845 207.006 83.1539 205.844 79.1094 202.449ZM106.108 205.452C118.574 204.652 131.582 202.071 138.223 200.608L138.464 200.562L138.675 200.668C145.512 204.184 151.171 203.294 155.487 197.997C161.765 190.3 164.859 173.156 163.531 153.251C162.218 133.451 156.921 115.582 149.722 106.603C144.365 99.9324 136.412 96.567 127.296 97.1254C112.854 98.0158 97.8227 108.369 88.0737 124.154C77.1323 141.736 77.2531 161.174 77.3738 179.962C77.404 185.229 77.4342 190.194 77.238 195.16C77.1324 197.74 78.0228 199.793 79.9847 201.438C84.165 204.924 92.9633 206.282 106.108 205.452Z" fill="#252525"/>
<path d="M119.645 108.745C126.315 105.41 131.975 105.893 136.019 110.134C143.897 118.419 147.292 132.801 145.3 149.613C143.459 165.248 137.196 179.932 128.956 187.945C122.392 194.314 114.257 196.638 106.696 196.638C102.501 196.638 98.4716 195.913 95.0005 194.782C87.5906 192.352 82.3388 188.036 81.6295 183.795C79.6072 171.662 83.3197 155.649 91.8162 139.864C99.6638 125.331 110.318 113.409 119.645 108.745ZM82.9727 183.569C83.5914 187.266 88.6017 191.25 95.4231 193.499C104.765 196.562 118.241 196.472 128.006 186.979C136.034 179.177 142.146 164.795 143.957 149.462C145.889 133.058 142.644 119.068 135.038 111.084C132.835 108.775 130.299 107.945 127.764 107.945C125.078 107.945 122.437 108.881 120.249 109.968C111.163 114.51 100.72 126.206 93.0236 140.513C84.6629 156.027 80.9957 171.722 82.9727 183.569Z" fill="#252525"/>
<path d="M369.03 -84.6369C334.531 -43.3919 322.261 -16.8763 326.713 6.89279C331.12 30.4355 351.448 50.9297 382.235 81.9728C398.458 98.3319 416.84 116.864 437.168 140.135C450.403 155.317 463.698 170.016 476.888 184.127V186.104C463.351 171.646 449.724 156.585 436.126 141.011C415.828 117.77 397.462 99.2525 381.254 82.9236C320.39 21.5617 297.617 -1.39242 367.988 -85.4971C372.38 -90.7489 376.802 -95.5782 381.254 -100H383.17C378.432 -95.3518 373.708 -90.2358 369.03 -84.6369Z" fill="#252525"/>
<path d="M384.106 -78.9172C352.007 -41.5357 340.552 -17.2686 344.537 4.87053C348.491 26.8135 367.234 46.3569 395.576 75.9513C409.928 90.9371 426.196 107.915 444.125 128.937C454.976 141.659 465.902 153.989 476.874 165.927V167.919C465.555 155.634 454.282 142.942 443.084 129.813C425.185 108.82 408.932 91.8577 394.58 76.887C338.515 18.3774 317.538 -3.52032 383.05 -79.8076C389.751 -87.5495 396.496 -94.2954 403.303 -100H405.446C398.262 -94.1294 391.139 -87.0968 384.106 -78.9172Z" fill="#252525"/>
<path d="M399.198 -73.1976C369.468 -39.6794 358.798 -17.6157 362.36 2.92374C365.891 23.3123 383.05 41.9503 409.022 70.1713C421.488 83.7234 435.629 99.0714 451.112 117.77C459.564 127.956 468.136 137.872 476.874 147.56V149.583C467.773 139.532 458.854 129.224 450.071 118.645C434.602 99.992 420.477 84.644 408.026 71.1069C356.67 15.2987 337.444 -5.58784 398.172 -74.0729C408.011 -85.1651 418.002 -93.7974 428.128 -100H430.694C420.069 -93.7974 409.505 -84.8331 399.198 -73.1976Z" fill="#252525"/>
<path d="M421.563 65.5986C374.765 12.2804 357.243 -7.67046 413.293 -68.3985C430.769 -87.3383 448.939 -97.9023 467.562 -100H476.888V-98.9587C476.104 -98.9889 475.319 -99.0341 474.534 -99.0341C453.859 -99.0341 433.651 -88.4701 414.274 -67.4779C386.883 -37.793 376.998 -17.9326 380.152 1.08259C383.291 19.962 398.911 37.7548 422.574 64.7082C433.123 76.7361 445.091 90.3486 458.115 106.587C464.453 114.495 470.716 121.965 476.888 129.043V131.095C470.384 123.655 463.774 115.793 457.058 107.432C444.049 91.2238 432.097 77.6114 421.563 65.5986Z" fill="#252525"/>
<path d="M435.237 60.5726C392.785 9.44271 376.909 -9.69326 428.401 -62.7095C443.915 -78.6763 460.153 -87.4293 476.889 -88.863V-87.4746C460.515 -86.0258 444.594 -77.4388 429.366 -61.7437C404.239 -35.8769 395.124 -18.1596 397.901 -0.6082C400.663 16.8375 414.833 33.906 436.278 59.7274C444.865 70.0802 454.614 81.8063 465.118 95.4187C469.072 100.535 472.996 105.439 476.905 110.148V112.261C472.649 107.16 468.363 101.833 464.047 96.2488C453.543 82.6514 443.824 70.9253 435.237 60.5726Z" fill="#252525"/>
<path d="M449.12 56.287C410.727 6.83231 396.36 -11.6698 443.506 -57.0045C454.206 -67.2969 465.374 -73.7561 476.888 -76.4272V-75.0388C465.706 -72.3827 454.855 -66.0443 444.442 -56.0236C421.503 -33.9599 413.142 -18.3402 415.587 -2.10182C418.017 14.0309 430.814 30.5108 450.192 55.4721C456.756 63.9233 464.197 73.5214 472.104 84.2515C473.704 86.4246 475.304 88.5374 476.888 90.6201V92.8536C474.942 90.3333 472.98 87.7376 471.018 85.0664C463.11 74.3062 455.685 64.7382 449.12 56.287Z" fill="#252525"/>
<path d="M431.84 -3.06706C429.562 -18.7169 437.319 -32.6916 458.628 -51.3145C464.513 -56.4757 470.625 -60.309 476.888 -62.8745V-61.4257C470.927 -58.9206 465.132 -55.2081 459.503 -50.3033C438.601 -32.0276 430.965 -18.4 433.168 -3.26326C435.357 11.7678 446.932 27.9308 464.468 52.4091C468.256 57.7062 472.482 63.6221 476.888 69.9001V72.2544C472.12 65.418 467.668 59.2003 463.366 53.1939C445.725 28.5646 434.074 12.281 431.84 -3.06706Z" fill="#252525"/>
<path d="M473.749 -45.6402C474.791 -46.4249 475.832 -47.1493 476.888 -47.8435V-46.1834C476.104 -45.6552 475.334 -45.127 474.564 -44.5536C436.941 -16.1213 447.143 1.91303 476.888 47.7005V50.1755C462.023 27.3119 451.339 10.5604 449.271 -3.61045C447.068 -18.6566 454.161 -30.8354 473.749 -45.6402Z" fill="#252525"/>
<path d="M476.888 -31.3494V-29.4931C463.14 -16.3183 465.298 -1.52865 476.888 21.6066V24.6097C471.063 13.3062 467.305 3.96464 466.279 -4.24511C464.936 -14.9148 468.196 -23.4565 476.888 -31.3494Z" fill="#252525"/>
</svg>
