<svg width="276" height="221" viewBox="0 0 276 221" fill="none" xmlns="http://www.w3.org/2000/svg">
<path d="M140.613 358.979C127.52 345.426 111.72 329.282 94.5912 314.252C73.534 295.786 59.5101 278.486 51.7167 261.379C44.769 246.146 43.3024 232.454 41.8679 219.211C41.172 212.713 40.4441 205.99 39.0845 199.16C38.7526 197.48 38.4101 195.82 38.0782 194.204C37.2753 190.532 36.5474 187.128 35.98 184.077C33.0896 169.935 31.2697 159.241 34.6739 157.367C37.6072 155.751 44.9403 160.718 57.08 172.526C75.2361 190.189 90.2769 208.87 104.408 231.319C117.35 251.862 128.441 273.669 141.277 298.933C144.745 305.763 148.342 312.829 152.11 320.14C161.017 337.418 167.761 349.751 172.836 358.99H173.928C168.821 349.719 162.002 337.258 152.956 319.701C149.188 312.39 145.591 305.324 142.122 298.494C129.265 273.219 118.164 251.391 105.211 230.805C91.037 208.292 75.9533 189.558 57.7437 171.841C44.9189 159.358 37.65 154.637 34.2029 156.532C29.7709 158.962 32.4366 171.787 36.1192 189.547C36.7722 192.705 37.4573 195.97 38.1317 199.364C39.4806 206.14 40.2086 212.842 40.9044 219.329C42.3389 232.646 43.8269 246.413 50.8281 261.786C58.6858 279.021 72.7846 296.428 93.9488 314.991C110.767 329.743 126.311 345.597 139.264 358.99H140.613V358.979Z" fill="#252525"/>
<path d="M38.817 197.544C39.4058 200.242 40.0267 203.025 40.6369 205.915C41.8894 211.739 42.6388 217.509 43.356 223.087C44.8762 234.809 46.4392 246.938 52.7874 260.459C59.9063 275.617 72.3994 290.894 90.9836 307.176C107.191 321.382 122.125 336.776 134.126 349.162C137.519 352.663 140.72 355.96 143.707 358.99H145.056C141.855 355.757 138.419 352.213 134.822 348.498C122.81 336.112 107.866 320.686 91.626 306.459C73.1487 290.273 60.7306 275.093 53.6652 260.062C47.3812 246.681 45.8183 234.627 44.3088 222.969C43.6237 217.648 42.8957 212.157 41.7503 206.6C41.6753 206.269 41.5897 205.926 41.5148 205.605C39.9839 199.139 38.6886 193.658 38.0248 189.397C36.6546 182.899 35.6697 177.418 35.6697 173.735C35.6697 171.23 36.1193 169.55 37.2112 168.939C39.6949 167.537 45.8932 171.626 56.1702 181.422C91.7865 214.437 109.482 248.212 133.976 294.961C136.074 298.965 138.215 303.055 140.42 307.24C147.55 320.536 153.374 330.963 158.052 339.335C162.859 347.931 166.359 354.226 168.714 358.99L169.774 358.99C167.387 354.087 163.79 347.642 158.887 338.864C154.209 330.492 148.396 320.065 141.266 306.78C139.061 302.594 136.92 298.505 134.822 294.501C110.285 247.666 92.5466 213.826 56.8232 180.704C45.9039 170.299 39.7056 166.413 36.7295 168.083C34.0318 169.603 34.3744 175.448 35.9694 184.066C36.5368 187.117 37.2648 190.521 38.0677 194.193C38.3246 195.296 38.5601 196.409 38.817 197.544Z" fill="#252525"/>
<path d="M41.7503 206.59C42.2 208.506 42.6603 210.455 43.1313 212.478C44.2768 217.338 45.0369 222.166 45.7755 226.834C48.9764 247.141 52.295 268.156 88.0077 299.372C101.828 311.458 114.642 324.594 124.93 335.149C136.192 346.7 144.992 355.725 150.655 358.979H152.806C147.572 356.999 137.734 346.903 125.615 334.475C115.306 323.909 102.481 310.752 88.6393 298.644C72.7313 284.738 61.919 271.667 55.5815 258.703C49.9506 247.163 48.302 236.747 46.7176 226.673C46.193 223.376 45.6578 219.993 44.9833 216.578C44.7264 215.604 44.4802 214.64 44.234 213.709C42.3927 206.633 40.9046 200.927 40.4871 196.966C39.3417 191.774 38.5174 187.31 38.5174 184.302C38.5174 182.311 38.8813 180.951 39.7378 180.458C41.7611 179.281 46.8353 182.482 55.2604 190.275C87.344 217.97 104.269 249.186 127.692 292.392L128.73 294.309C132.905 301.706 136.706 308.333 140.057 314.178C154.22 338.885 161.339 351.293 159.326 356.164C158.844 357.341 157.827 358.101 156.125 358.572L155.986 358.604L155.89 358.711C155.804 358.808 155.718 358.893 155.611 358.958H157.806C158.973 358.39 159.765 357.587 160.204 356.527C160.471 355.874 160.611 355.125 160.611 354.258C160.611 348.113 153.834 336.284 140.881 313.696C137.53 307.851 133.73 301.224 129.555 293.838L128.516 291.932C105.04 248.64 88.0826 217.359 55.8813 189.558C46.8782 181.219 41.7396 178.157 39.2346 179.624C37.3398 180.726 37.1899 184.13 37.9928 189.376C38.6458 193.637 39.9412 199.118 41.4827 205.584C41.5898 205.916 41.6647 206.258 41.7503 206.59Z" fill="#252525"/>
<path d="M44.9833 216.588C45.1974 217.391 45.4008 218.215 45.6149 219.039C46.6426 222.925 47.4027 226.79 48.1414 230.537C51.5242 247.687 55.0141 265.415 85.0209 291.567C96.4541 301.545 106.699 311.961 115.745 321.157C131.032 336.701 139.275 344.805 142.979 342.503C145.056 342.749 146.501 342.278 147.261 341.111C147.679 340.469 147.893 339.623 147.893 338.574C147.893 330.952 136.963 312.475 117.886 280.937C97.9528 245.653 81.7772 219.082 54.9713 198.421C47.8737 192.148 43.8057 189.911 41.7717 191.163C40.4978 191.945 40.1767 193.946 40.4978 196.976C40.9046 200.926 42.3926 206.643 44.2446 213.719C44.4802 214.65 44.7371 215.614 44.9833 216.588ZM42.2749 191.987C43.8271 191.035 47.8951 193.443 54.3504 199.16L54.3718 199.181C81.0385 219.725 97.1713 246.22 117.051 281.43C133.558 308.728 146.929 330.834 146.929 338.596C146.929 339.431 146.779 340.094 146.458 340.587C145.88 341.465 144.724 341.775 142.926 341.529L142.733 341.507L142.572 341.625C139.446 343.916 129.287 333.586 116.419 320.493C107.363 311.287 97.1071 300.849 85.6418 290.861C72.2817 279.214 63.0752 268.262 57.4656 257.354C52.477 247.644 50.7427 238.866 49.0727 230.366C48.7837 228.888 48.4839 227.39 48.1628 225.869C48.1414 225.784 48.1199 225.709 48.0878 225.623C47.7238 224.392 47.3706 223.182 47.0173 222.016C44.8334 214.64 43.1634 208.998 43.1527 205.679C42.0715 201.226 41.3114 197.426 41.3114 194.942C41.3328 193.422 41.6219 192.394 42.2749 191.987Z" fill="#252525"/>
<path d="M48.5269 226.341C46.6535 220.967 45.5187 217.091 46.0433 215.132C44.9299 211.139 44.127 207.682 44.127 205.551C44.127 204.491 44.3304 203.763 44.7908 203.453C45.5615 202.939 47.6812 203.324 53.4406 208.035L53.4941 208.067C68.4065 217.338 82.9335 231.158 105.372 268.519C123.421 295.636 134.212 316.083 134.212 322.848C134.212 323.683 134.051 324.315 133.708 324.722C132.927 325.653 131.064 325.107 129.64 324.497L129.469 324.422L129.298 324.476C126.193 325.514 117.843 317.121 107.267 306.502C99.9977 299.201 91.7546 290.925 82.6659 283.025C64.103 266.914 57.6692 254.699 54.0722 243.608C53.4085 242.805 52.8304 242.013 52.338 241.232C55.8279 253.189 61.78 266.175 82.045 283.764C91.1123 291.632 99.334 299.896 106.592 307.187C118.047 318.695 125.68 326.36 129.416 325.45C131.846 326.467 133.537 326.435 134.447 325.343C134.907 324.786 135.143 323.962 135.143 322.87C135.143 319.455 132.863 313.385 128.26 304.51C123.164 294.672 115.52 282.04 106.175 268.006C89.8919 240.889 74.7868 220.185 54.0187 207.264C48.8266 203.025 45.8185 201.601 44.2448 202.65C43.4847 203.153 43.1636 204.181 43.1636 205.658C43.1743 208.977 44.8443 214.618 47.0282 221.994C47.3707 223.161 47.7347 224.371 48.0987 225.602C48.1201 225.688 48.1415 225.763 48.1736 225.848C48.2914 226.234 48.3877 226.608 48.4948 226.983C48.4948 226.769 48.5055 226.544 48.5269 226.341Z" fill="#252525"/>
<path d="M49.1155 225.099C47.8202 221.298 46.846 218.033 46.846 216.203C46.846 215.528 46.9745 215.047 47.2849 214.811C47.6703 214.511 48.88 214.394 52.5626 216.92L52.6161 216.974L52.6804 216.995C65.8371 221.523 79.6361 234.509 93.6814 255.619L93.7028 255.641C100.758 264.815 108.626 277.255 114.246 288.121C121.108 301.395 122.243 307.54 121.012 308.867C120.37 309.563 118.7 309.071 116.302 307.497L116.205 307.433L116.087 307.422C112.951 307.154 106.431 300.742 98.1883 292.627C92.6858 287.211 86.4447 281.066 79.7004 275.242C66.5543 263.905 60.7628 255.009 57.1551 246.938C56.4914 246.285 55.8705 245.642 55.2924 245.011C58.868 253.789 64.4989 263.402 79.0688 275.97C85.7916 281.772 92.0221 287.906 97.5139 293.313C106.121 301.791 112.362 307.936 115.873 308.364C118.774 310.248 120.68 310.634 121.718 309.52C122.168 309.039 122.382 308.257 122.382 307.229C122.382 298.355 106.667 270.928 94.4736 255.074C80.1286 233.535 66.5865 220.785 53.055 216.117C49.7578 213.858 47.7988 213.227 46.6961 214.072C46.375 214.319 46.1716 214.683 46.0538 215.143C45.5293 217.102 46.6533 220.977 48.5374 226.351C48.591 225.891 48.7194 225.516 48.9656 225.227C49.0085 225.174 49.062 225.152 49.1155 225.099Z" fill="#252525"/>
<path d="M18.4556 70.6973C15.9934 74.3371 13.1672 87.3546 14.2485 102.299C15.9078 125.24 25.1036 137.177 32.533 143.14C41.975 150.73 65.6871 173.628 75.9641 186.442C83.4257 195.745 85.5239 196.366 86.5837 195.756C87.012 195.51 87.3438 195.017 87.3438 193.829C87.3438 191.666 86.2519 187.213 82.6228 177.792C80 170.973 76.1782 162.388 72.1424 153.288C63.257 133.28 53.1834 110.596 51.5669 97.5353C50.7747 91.1121 50.6784 85.2778 50.5927 80.1286C50.4215 69.5304 50.3037 62.5399 43.9234 62.3579C34.8453 62.1116 23.7654 62.8396 18.4556 70.6973ZM43.8806 63.3214C49.3402 63.4712 49.4473 69.7445 49.6186 80.1393C49.7042 85.3099 49.8005 91.1764 50.6034 97.6423C52.2413 110.831 62.3471 133.591 71.2538 153.663C75.2897 162.752 79.1008 171.326 81.7236 178.124C87.3759 192.79 86.5088 194.685 86.1127 194.91C85.7809 195.103 84.1001 195.017 76.7135 185.821C76.478 185.532 76.2318 185.233 75.9856 184.933C74.5832 183.809 72.5385 181.711 69.4661 177.964C66.9289 174.934 63.4818 171.177 59.6494 167.184C49.6507 157.056 38.8063 146.94 33.1218 142.369C25.8529 136.524 16.8284 124.802 15.1905 102.203C14.12 87.4724 16.8605 74.7331 19.2371 71.2111C24.3007 63.7603 35.0701 63.0751 43.8806 63.3214Z" fill="#252525"/>
<path d="M78.8868 185.95C79.2936 185.714 79.604 185.254 79.604 184.13C79.604 182.214 78.6834 178.371 75.6966 170.481C73.5341 164.668 70.3547 157.324 66.9825 149.552C59.4889 132.263 50.9889 112.662 49.7899 101.004C49.1155 95.4265 49.062 90.3521 48.9977 85.888C48.8907 77.0562 48.805 70.6652 43.3882 70.3548C41.0116 69.7767 36.3334 68.9845 31.4304 70.0443C26.5489 71.1041 22.7271 73.6841 20.0722 77.7093C17.61 81.4133 15.4689 92.9857 16.3039 105.211C17.6635 125.059 25.5319 135.4 31.9015 140.581C37.7251 145.452 49.9184 157.067 59.6602 167.205C63.4926 171.187 66.9397 174.956 69.4769 177.985C72.5493 181.732 74.5832 183.83 75.9963 184.954C77.5914 186.228 78.3729 186.239 78.8868 185.95ZM70.2155 177.364C69.6053 176.636 68.9416 175.866 68.235 175.063C66.6935 173.81 64.8415 171.733 62.9788 169.517C61.5443 167.89 59.8207 166.027 57.9259 164.036C48.6338 154.519 37.875 144.328 32.501 139.832C26.2812 134.768 18.5842 124.63 17.2567 105.136C17.1283 103.306 17.0747 101.518 17.0747 99.7728C17.0747 89.4101 19.098 80.8994 20.8644 78.2338C27.416 68.3208 39.6092 70.4083 43.1955 71.2861L43.2811 71.2969C47.6596 71.5217 47.9058 76.1891 48.0343 85.888C48.0878 90.3842 48.152 95.48 48.8265 101.1C50.0469 112.908 58.5682 132.574 66.094 149.927C69.4554 157.688 72.6349 165.01 74.7867 170.813C79.5184 183.284 78.7476 184.911 78.3943 185.115C78.2016 185.233 76.8207 185.436 70.2155 177.364Z" fill="#252525"/>
<path d="M71.1897 176.133C71.6501 175.865 71.8749 175.309 71.8749 174.399C71.8749 173.81 71.7785 173.071 71.5965 172.172C71.1683 170.095 70.2156 167.065 68.7704 163.169C67.0682 158.341 64.5097 152.228 61.8013 145.762C55.71 131.214 48.8051 114.728 48.0129 104.461C47.4669 99.7295 47.4455 95.426 47.4134 91.6257C47.3599 84.1855 47.3278 78.79 42.8851 78.3297C37.8965 75.3644 28.2189 74.6364 21.678 84.7101C19.5798 87.943 17.7064 97.8025 18.3487 108.112C19.3978 124.855 25.9494 133.622 31.2485 138.011C36.3977 142.572 49.0513 154.722 57.9152 164.036C59.8101 166.027 61.5336 167.879 62.9681 169.517C64.8308 171.733 66.6721 173.81 68.2244 175.062C69.4662 176.058 70.5046 176.54 71.1897 176.133ZM63.7175 168.896C62.3579 167.354 60.7521 165.61 58.9858 163.747C58.6218 163.383 58.2257 162.965 57.7975 162.494C48.9657 153.277 36.9116 141.715 31.9015 137.283C22.1169 129.18 19.2051 115.338 19.2051 103.84C19.2051 95.1048 20.8858 87.7182 22.5023 85.2346C28.7114 75.6641 37.8643 76.3921 42.4997 79.2075L42.5961 79.2611L42.7031 79.2718C46.2251 79.5715 46.4178 83.7145 46.4713 91.6257C46.4928 95.4474 46.5249 99.7831 47.0708 104.547C47.8737 114.952 54.8107 131.513 60.9341 146.126C63.6318 152.581 66.1904 158.673 67.8818 163.479C71.7892 174.024 70.9328 175.169 70.7187 175.287C70.5367 175.416 69.3484 175.598 63.7175 168.896Z" fill="#252525"/>
<path d="M63.5033 166.327C63.878 166.113 64.167 165.696 64.167 164.7C64.167 163.298 63.589 160.718 61.8547 155.868C60.6129 152.004 58.6645 147.101 56.6091 141.919C51.9309 130.144 46.6319 116.794 46.2572 107.93C45.8397 104.044 45.8504 100.511 45.8504 97.3855C45.8611 91.3585 45.8611 86.9693 42.4247 86.3377C40.7868 84.2609 38.1533 83.0833 35.3485 83.1904C32.8221 83.2867 27.9084 84.5178 23.3051 91.7224C21.5281 94.5379 19.9651 102.524 20.4254 111.024C20.8322 118.56 22.9412 128.912 30.6382 135.453C36.0872 140.656 49.7043 153.941 56.5128 161.071C56.9731 161.596 57.4013 162.067 57.7974 162.505C58.2256 162.966 58.6217 163.383 58.9857 163.758C61.8012 166.595 62.8503 166.713 63.5033 166.327ZM57.2086 160.418C50.3787 153.267 36.7402 139.96 31.2698 134.736C23.5728 128.195 21.2711 117.297 21.2711 108.059C21.2711 100.704 22.7378 94.4095 24.108 92.2363C27.341 87.1727 31.3448 84.293 35.3806 84.1431C37.9392 84.0468 40.3265 85.1387 41.7717 87.0657L41.8894 87.2262L42.0928 87.2583C44.7798 87.6223 44.8976 90.9838 44.8869 97.3855C44.8869 100.533 44.8762 104.108 45.2937 108.005C45.6791 116.997 51.0103 130.422 55.7099 142.273C57.7653 147.443 59.7029 152.325 60.9448 156.179C63.9101 164.465 63.1929 165.407 63.0216 165.503C62.9252 165.556 61.9832 165.878 57.2086 160.418Z" fill="#252525"/>
<path d="M56.4591 154.969C56.4591 153.845 56.063 151.929 54.9389 148.568C54.136 145.645 52.7979 141.92 51.3634 137.969C48.1411 129.041 44.4906 118.935 44.4906 111.57C44.4906 111.527 44.4906 111.485 44.4906 111.452V111.431V111.41C44.2016 108.38 44.2444 105.597 44.2765 103.145C44.3407 98.5312 44.3943 95.1591 41.9642 94.3776C41.1827 91.9261 39.3949 90.2882 37.1468 89.967C35.2948 89.6994 30.4132 90.0205 24.9214 98.7453C23.5083 101.068 22.213 107.384 22.4806 113.947C22.9196 124.481 26.8056 130.069 30.0064 132.916C33.6783 136.867 44.1373 147.176 50.0359 152.657C53.1619 156.008 54.8426 157.132 55.8275 156.543C56.17 156.307 56.4591 155.922 56.4591 154.969ZM50.7104 151.961L50.6889 151.94C44.8011 146.469 34.3313 136.149 30.6809 132.231L30.6487 132.199C25.082 127.264 23.3799 119.214 23.3799 112.212C23.3799 106.26 24.611 101.068 25.7136 99.2485C29.3106 93.5319 33.5285 90.4166 36.9862 90.909C38.9667 91.1981 40.4654 92.6433 41.0971 94.8914L41.172 95.1698L41.4503 95.234C43.313 95.6515 43.3666 98.2315 43.2916 103.134C43.2595 105.607 43.2167 108.401 43.5057 111.474C43.5057 111.506 43.5057 111.538 43.5057 111.581C43.5057 119.117 47.1883 129.309 50.4427 138.312C51.8665 142.241 53.2047 145.955 53.9969 148.867C56.0737 155.033 55.3993 155.654 55.3136 155.708C55.2494 155.74 54.4893 156.008 50.7104 151.961Z" fill="#252525"/>
<path d="M48.7726 145.152C48.7726 144.264 48.5264 143.001 48.0125 141.277C47.6593 139.265 46.9313 136.77 46.0856 133.89C44.3835 128.067 42.2638 120.819 42.7134 114.953V114.921V114.889C42.5636 112.705 42.6385 110.692 42.7027 108.915C42.8205 105.714 42.9168 103.348 41.4716 102.46C41.3967 99.4303 40.1977 97.3 38.228 96.7326C34.995 95.8012 30.6165 99.1734 26.5164 105.757C24.5145 109.268 22.3414 123.56 29.3533 130.326C31.8262 133.612 38.988 140.774 43.5699 144.21C45.9893 146.501 47.3167 147.229 48.1624 146.705C48.5692 146.448 48.7726 145.955 48.7726 145.152ZM44.2015 143.482L44.1587 143.45C40.658 140.838 35.6373 136.01 32.4043 132.456C31.1518 131.278 30.0599 129.994 29.3212 128.859C26.4308 125.53 25.4566 120.712 25.4566 116.302C25.4566 111.87 26.4201 107.855 27.3407 106.25C30.3168 101.475 34.6631 96.7112 37.9603 97.6533C39.5661 98.1136 40.5189 100.008 40.5189 102.738V102.749V103.07L40.8079 103.199C41.9427 103.68 41.857 105.864 41.7393 108.883C41.675 110.682 41.5894 112.705 41.75 114.931C41.3004 120.969 43.4414 128.292 45.1649 134.18C46 137.049 46.7279 139.521 47.0705 141.491L47.0812 141.545C48.2374 145.495 47.6807 145.891 47.6486 145.902C47.595 145.912 47.0062 146.148 44.2015 143.482Z" fill="#252525"/>
<path d="M40.5622 136.856C41.1831 136.47 41.3437 135.603 41.1081 134.051C41.2366 132.852 41.076 131.289 40.8833 129.49C40.5622 126.418 40.1554 122.607 40.9476 118.464L40.9583 118.421V118.378C40.9476 117.629 40.9904 116.912 41.0332 116.216C40.8512 117.04 40.6157 117.918 40.2945 118.871C40.0804 119.513 39.877 120.102 39.6736 120.648C39.3525 123.999 39.6629 127.06 39.9306 129.608C40.1126 131.385 40.2838 132.927 40.1447 134.019L40.134 134.083L40.1447 134.147C40.4016 135.732 40.1126 136.01 40.0483 136.053C39.9413 136.117 39.4595 136.235 37.6504 134.982L37.5647 134.939C34.4816 133.59 30.799 129.844 29.6321 127.478C29.054 127.435 28.6044 127.253 28.3154 126.9C27.8551 126.343 27.8336 125.508 28.0585 124.48C27.566 122.875 27.4911 121.151 27.5446 119.77C27.6517 116.997 28.3582 114.45 28.9684 113.24C33.6466 105.65 37.19 103.68 38.7958 104.312C40.0697 104.815 40.5301 106.977 40.0483 110.028C40.0697 110.039 40.0911 110.039 40.1126 110.05C40.6692 110.307 41.0439 110.842 41.258 111.602C41.2045 111.227 41.1081 110.906 40.9369 110.628C41.6327 106.817 40.969 104.13 39.1491 103.423C36.4942 102.385 32.3834 105.885 28.1441 112.758L28.1227 112.79C27.4483 114.118 26.7096 116.783 26.5811 119.738C26.4848 122.125 26.7738 125.433 28.6687 127.724C28.8292 128.077 29.054 128.463 29.3217 128.869C30.0603 130.004 31.1523 131.289 32.4048 132.466C33.8821 133.858 35.5628 135.111 37.1365 135.806C38.8493 136.973 39.877 137.295 40.5622 136.856Z" fill="#252525"/>
<path d="M40.198 114.589C40.1552 115.049 40.1124 115.552 40.0696 116.055C40.5085 114.118 40.5406 112.715 40.3158 111.859C40.3907 112.555 40.3051 113.518 40.198 114.589Z" fill="#252525"/>
<path d="M40.1122 110.028C40.0908 110.018 40.0694 110.018 40.048 110.007C37.8534 109.086 34.1066 112.619 29.7602 119.749L29.4605 120.477C28.8503 121.997 28.3043 123.356 28.0581 124.47C27.8333 125.508 27.844 126.333 28.315 126.889C28.6041 127.242 29.0537 127.424 29.6318 127.467C30.0172 127.499 30.4561 127.478 30.9806 127.371C31.8585 127.189 32.6292 127.21 33.3037 127.221C35.905 127.264 37.3717 126.975 39.6733 120.627C39.8767 120.07 40.0801 119.492 40.2942 118.85C40.6154 117.897 40.8402 117.03 41.0329 116.195C41.2898 115.039 41.429 114 41.429 113.133C41.429 112.533 41.3647 112.02 41.247 111.57C41.0436 110.821 40.6689 110.285 40.1122 110.028ZM33.3144 126.268C32.5864 126.258 31.7621 126.236 30.7879 126.44C30.1563 126.568 29.3534 126.643 29.0537 126.279C28.9252 126.129 28.8717 125.894 28.8717 125.605C28.8717 124.513 29.6425 122.586 30.349 120.83L30.5953 120.209C35.6909 111.88 38.7205 110.435 39.7054 110.896C39.9837 111.024 40.1871 111.356 40.3156 111.859C40.5404 112.715 40.5083 114.118 40.0694 116.056C39.8981 116.816 39.684 117.629 39.3735 118.55C36.7936 126.333 35.5625 126.311 33.3144 126.268Z" fill="#252525"/>
<path d="M18.9054 52.6805C23.6372 56.3202 30.7669 56.3095 38.3033 56.2988C42.3071 56.2988 46.45 56.2881 50.4966 56.802C62.5935 58.3542 82.3554 69.3164 98.5631 83.458C104.408 88.5644 108.658 90.213 111.174 88.361C112.608 87.3012 113.336 85.1388 113.336 82.0021C113.336 80.6104 113.197 79.0154 112.908 77.249C112.009 71.7251 109.782 64.8844 106.474 57.455C102.139 47.7025 89.8383 27.8015 75.6004 4.74238C74.6369 3.17941 73.6627 1.60577 72.6778 0.0214005H71.5538C72.635 1.77706 73.7163 3.52202 74.7868 5.24556C88.4145 27.3091 101.293 48.1522 105.596 57.8404C112.191 72.6671 114.246 84.9032 110.606 87.5902C108.562 89.0997 104.515 87.3762 99.1947 82.7408C82.6016 68.2459 63.0753 57.4443 50.6144 55.8492C46.5035 55.3246 42.3285 55.3246 38.2926 55.3353C30.9167 55.346 23.9583 55.3568 19.4728 51.9204C13.8205 47.574 8.9924 37.3934 5.12781 21.6353C3.57555 15.2871 2.18387 8.00749 0.984882 0.0106812H0C3.66119 24.6327 9.68824 45.6043 18.9054 52.6805Z" fill="#252525"/>
<path d="M18.4877 44.5124C22.727 47.8524 29.0324 47.9595 35.7124 48.0772C39.1274 48.1414 42.6709 48.2056 46.1072 48.6874C56.8446 50.4002 73.7482 59.414 88.1788 71.1256C93.146 75.3113 96.7858 76.5959 98.9911 74.958C100.319 73.9625 100.972 71.9285 100.972 69.0702C100.972 64.0173 98.9376 56.4166 95.0516 47.542C91.2405 38.2926 80.2034 20.0402 67.9031 0.0213928H66.7791C79.1757 20.2115 90.3627 38.6459 94.1738 47.9166C99.8904 60.9877 101.635 71.7893 98.4237 74.198C96.6574 75.5254 93.328 74.2087 88.7997 70.3976L88.789 70.3869C74.2406 58.579 57.155 49.4796 46.2571 47.7454C42.7458 47.2529 39.1809 47.1887 35.7339 47.1244C29.2144 47.0067 23.0696 46.8996 19.0872 43.763C14.0879 39.8234 9.79507 30.8096 6.32657 16.9892C5.06336 11.9363 3.90719 6.24113 2.89019 0.0106812H1.91602C2.94372 6.32677 4.11059 12.1076 5.39522 17.2247C8.91724 31.2593 13.3278 40.4337 18.4877 44.5124Z" fill="#252525"/>
<path d="M18.0703 36.3549C21.8064 39.3952 27.2982 39.6307 33.1219 39.8877C35.9588 40.0161 38.8813 40.1339 41.7182 40.5835C50.7855 42.3927 65.2911 49.715 77.7948 58.8038C81.8842 62.0689 84.9138 63.0003 86.7979 61.5658C87.9969 60.6558 88.5857 58.7931 88.5857 56.1917C88.5857 51.7704 86.8836 45.2296 83.6292 37.6182C80.6531 29.6749 72.4636 15.5118 63.0751 -6.48499e-05H61.9511C71.4359 15.6617 79.7432 29.996 82.7299 37.9714C87.5794 49.2762 89.0032 58.6647 86.2091 60.795C84.7425 61.9084 82.0341 60.9556 78.3729 58.033L78.3515 58.0223C65.7407 48.8694 51.096 41.472 41.8788 39.6307C38.9669 39.1704 36.0123 39.042 33.154 38.9135C27.5016 38.6673 22.1597 38.4317 18.6698 35.5948C14.3342 32.0514 10.5659 24.2152 7.49354 12.3324C6.53007 8.60696 5.63083 4.46402 4.81723 -6.48499e-05H3.85376C6.61571 15.3191 11.0477 30.6062 18.0703 36.3549Z" fill="#252525"/>
<path d="M17.6525 28.1979C20.8855 30.9491 25.5636 31.3238 30.5202 31.7199C32.7576 31.9019 35.0806 32.0839 37.3287 32.4907C45.9571 34.6853 58.5144 41.1512 67.4104 46.4931C70.6327 48.8482 73.0521 49.4264 74.6043 48.206C75.6749 47.3709 76.1887 45.6795 76.1887 43.335C76.1887 39.5454 74.8184 34.0536 72.1849 27.7161C70.0225 21.2287 64.6378 11.1765 58.1183 0.0216751H57.0049C63.6315 11.3264 69.1125 21.5285 71.275 28.0373L71.2857 28.0694C75.2574 37.6185 76.3707 45.5832 74.0048 47.4566C72.8487 48.3665 70.7505 47.767 67.9564 45.7116L67.9243 45.6902C58.9747 40.3162 46.289 33.786 37.5535 31.57L37.5214 31.5593C35.2091 31.1418 32.8646 30.9491 30.5951 30.7671C25.7992 30.3817 21.2601 30.0284 18.2734 27.4806C15.3294 24.9648 10.6084 18.1778 6.81877 0.0323906H5.87671C8.34962 11.9152 12.0857 23.4233 17.6525 28.1979Z" fill="#252525"/>
<path d="M17.2357 20.0298C19.9655 22.5027 23.8408 23.0165 27.9302 23.5625C29.5788 23.7873 31.281 24.0121 32.9403 24.3761C37.4793 25.8641 43.0996 28.2728 48.5271 30.5958C51.5888 31.9126 54.4899 33.1543 57.0592 34.1713C59.4036 35.638 61.2128 35.8628 62.4225 34.8565C63.4288 34.0215 63.8463 32.4692 63.8463 30.5102C63.8463 26.9667 62.476 22.1173 60.7632 17.7923C59.4143 13.082 56.5346 6.86231 52.8734 0.0109596H51.7922C55.539 7.00148 58.5044 13.3283 59.8532 18.0814L59.864 18.1242C62.9578 25.9176 63.7607 32.5013 61.8123 34.1178C60.7418 35.0171 58.8898 34.1821 57.5409 33.3364L57.466 33.2936C54.8967 32.2766 51.9956 31.0347 48.9232 29.7073C43.4635 27.3628 37.8112 24.9435 33.2293 23.4447L33.1865 23.434C31.4844 23.0593 29.7501 22.8238 28.0801 22.599C24.1406 22.0744 20.4152 21.5713 17.8994 19.3018C15.662 17.2571 12.1507 12.247 9.03549 0.000244141H8.07202C10.1702 8.45738 13.1356 16.2936 17.2357 20.0298Z" fill="#252525"/>
<path d="M25.3607 15.4903C26.4098 15.7259 27.4911 15.9721 28.5402 16.2718C34.8777 19.0231 41.986 21.8278 46.7926 21.8921C48.6339 22.6307 49.7044 22.1382 50.2825 21.5923C51.1282 20.7894 51.4708 19.387 51.4708 17.6635C51.4708 14.8373 50.5394 11.1547 49.3619 7.9003C48.8052 5.51304 47.906 2.84745 46.7605 0.0212669H45.7221C46.9211 2.9438 47.8738 5.69501 48.4305 8.1465L48.4519 8.20008C50.6893 14.3342 51.1603 19.4406 49.6295 20.8965C49.0835 21.421 48.2271 21.4425 47.0924 20.9714L47.0067 20.9393H46.9104C42.275 20.9072 35.2095 18.1131 28.9149 15.3833L28.8613 15.3619C27.7801 15.0514 26.6668 14.8052 25.5962 14.559C22.4917 13.8632 19.5692 13.1994 17.5138 11.1868C15.2336 8.91731 13.2745 4.94567 11.6152 0.0212669H10.5447C12.1719 4.93497 14.238 9.3027 16.8072 11.8613C19.066 14.0772 22.117 14.7624 25.3607 15.4903Z" fill="#252525"/>
<path d="M22.877 7.63259C23.2838 7.80388 23.7013 7.96449 24.1081 8.13577C29.6213 11.4758 34.2032 11.9682 36.7189 9.50601C37.3826 9.35614 37.9179 8.96006 38.314 8.31774C38.8171 7.50415 39.0741 6.28375 39.0741 4.77431C39.0741 3.40404 38.8599 1.77682 38.4531 -0.000245094H37.4683C38.314 3.54319 38.3461 6.45505 37.5111 7.80391C37.2328 8.25353 36.8688 8.51044 36.4084 8.58538L36.2479 8.60681L36.1408 8.72455C32.9935 11.9896 26.4954 8.44618 24.5792 7.29002L24.5149 7.25794C24.0974 7.07595 23.6692 6.90467 23.241 6.73339C20.9394 5.80204 18.7662 4.91349 17.1069 3.04007C16.379 2.20506 15.6831 1.17734 15.0194 0.0104704H13.9167C14.6875 1.43427 15.5118 2.67606 16.379 3.67164C18.1881 5.72705 20.5647 6.69053 22.877 7.63259Z" fill="#252525"/>
<path d="M25.8528 0.0108619L24.7715 0.0108619C24.4183 0.610355 23.9365 0.995749 23.2514 0.952928C22.6412 0.910107 21.9347 0.578239 21.1746 0.0108619L19.6973 0.0108619C20.9712 1.17773 22.1702 1.85219 23.1979 1.91643C24.0971 1.98066 25.1569 1.61665 25.8528 0.0108619Z" fill="#252525"/>
<path d="M308.386 201.248C281.665 186.132 251.284 173.853 221.909 161.981C184.034 146.673 148.267 132.221 125.123 113.561C108.99 100.555 95.4264 91.1125 84.8068 85.503C73.2558 79.401 65.2162 77.8808 60.9127 81.0068C55.3567 85.032 56.1596 96.69 63.3321 115.638C74.7653 145.891 102.535 208.635 133.505 270.018C150.173 303.066 165.706 331.702 179.677 355.147C180.447 356.453 181.218 357.716 181.978 358.979H183.134C164.753 328.565 146.501 293.645 134.361 269.58C103.412 208.228 75.6538 145.517 64.2313 115.296C57.2408 96.797 56.3201 85.5244 61.4801 81.7776C66.9397 77.8274 82.3017 80.2682 124.534 114.311C147.786 133.056 183.616 147.54 221.555 162.87C250.899 174.731 281.248 186.999 307.915 202.083C328.586 213.773 344.858 226.041 357.137 239.187V237.806C344.88 224.864 328.758 212.778 308.386 201.248Z" fill="#252525"/>
<path d="M229.574 183.295C194.375 168.843 161.114 155.183 139.575 137.948C108.283 112.866 88.5215 102.974 80.8244 108.541C75.5681 112.341 76.3068 123.367 83.0083 141.299C93.3602 169.25 118.057 226.159 147.796 285.059C162.088 313.353 175.576 338.189 187.93 358.979H189.086C173.564 332.912 158.759 304.65 148.653 284.631C118.924 225.774 94.2488 168.908 83.9075 140.978C80.1607 130.947 78.2873 123.164 78.2873 117.694C78.2873 113.626 79.3257 110.832 81.3918 109.333C86.4125 105.704 100.479 107.845 138.986 138.708C160.632 156.029 193.947 169.71 229.22 184.195C258.745 196.324 289.277 208.859 315.408 224.5C332.943 235.002 346.721 246.039 357.148 257.954V256.508C346.742 244.829 333.125 233.995 315.901 223.675C289.694 207.982 259.131 195.435 229.574 183.295Z" fill="#252525"/>
<path d="M237.324 204.663C204.748 191.035 173.992 178.167 154.027 162.334C125.733 139.81 107.802 130.968 100.736 136.074C95.7155 139.703 96.3578 149.809 102.685 166.97C112.33 193.594 135.036 246.606 162.099 300.1C174.067 323.759 184.612 343.114 193.872 358.968H194.985C185.672 343.049 175.041 323.555 162.955 299.661C135.914 246.199 113.229 193.23 103.595 166.627C100.126 157.206 98.3811 149.895 98.3811 144.746C98.3811 140.892 99.3553 138.247 101.304 136.834C107.887 132.081 125.915 141.149 153.438 163.062C173.51 178.981 204.331 191.87 236.96 205.519C263.723 216.717 291.407 228.289 315.258 242.399C333.318 253.093 347.117 264.441 357.148 276.87V275.36C347.107 263.188 333.468 252.066 315.74 241.564C291.835 227.465 264.13 215.871 237.324 204.663Z" fill="#252525"/>
<path d="M245.214 226.106C215.218 213.291 186.892 201.184 168.479 186.732C143.161 166.756 127.071 158.973 120.648 163.608C115.948 167.002 116.505 176.508 122.361 192.652C131.61 218.815 151.907 266.85 176.39 315.162C184.944 332.045 192.759 346.529 199.878 358.979H200.98C193.797 346.443 185.896 331.809 177.247 314.724C152.785 266.443 132.509 218.462 123.271 192.32C120.07 183.509 118.475 176.669 118.475 171.841C118.475 168.201 119.385 165.707 121.215 164.39C127.168 160.097 143.311 168.083 167.89 187.481C186.4 202.008 214.79 214.137 244.85 226.983C268.819 237.228 293.591 247.816 315.109 260.362C333.832 271.303 347.621 283.057 357.148 296.214V294.608C347.567 281.762 333.929 270.254 315.59 259.538C294.009 246.959 269.205 236.351 245.214 226.106Z" fill="#252525"/>
<path d="M253.329 247.666C225.816 235.601 199.834 224.211 182.92 211.118C172.343 202.864 163.501 196.934 156.607 193.519C148.888 189.676 143.632 188.894 140.538 191.131C136.149 194.3 136.641 203.196 142.026 218.323C149.948 241.35 167.44 284.47 190.671 330.214C196.056 340.812 201.14 350.35 205.936 358.99H207.039C202.168 350.243 196.998 340.566 191.527 329.786C168.318 284.085 150.847 241.018 142.936 218.023C140.014 209.812 138.547 203.432 138.547 198.925C138.547 195.488 139.403 193.144 141.106 191.913C147.828 187.063 167.237 200.092 182.331 211.889C199.331 225.056 225.377 236.468 252.943 248.554C274.032 257.804 295.839 267.353 314.948 278.304C333.072 288.72 346.207 300.046 355.092 312.936C355.788 313.91 356.463 314.927 357.137 315.954V314.21C356.72 313.589 356.302 312.978 355.874 312.379C346.903 299.372 333.671 287.95 315.419 277.458C296.267 266.486 274.439 256.915 253.329 247.666Z" fill="#252525"/>
<path d="M315.269 295.39C298.665 286.087 279.963 277.63 261.871 269.462C236.671 258.071 212.863 247.312 197.362 235.505C177.728 220.378 165.653 214.854 160.439 218.612C156.371 221.545 156.778 229.852 161.703 243.983C169.335 266.86 184.708 305.474 204.962 345.244C207.2 349.633 209.598 354.236 212.135 358.968H213.227C210.604 354.086 208.12 349.333 205.819 344.816C185.586 305.089 170.235 266.518 162.612 243.683V243.673C159.958 236.05 158.63 230.13 158.63 225.945C158.63 222.722 159.422 220.528 161.007 219.382C165.76 215.957 177.803 221.631 196.784 236.254C212.37 248.126 236.222 258.906 261.475 270.318C279.546 278.486 298.226 286.932 314.798 296.214C330.931 305.292 342.76 315.248 350.982 326.66C353.112 329.518 355.168 332.665 357.148 336.048V334.175C355.403 331.284 353.605 328.587 351.753 326.092C343.456 314.595 331.52 304.543 315.269 295.39Z" fill="#252525"/>
<path d="M346.989 192.823C341.155 191.003 334.753 189.065 327.977 186.999C272.213 170.042 187.952 144.403 152.164 111.11C130.005 90.502 110.136 54.0078 90.9198 18.7233C87.4513 12.3537 84.0363 6.08047 80.6642 0.0213165H79.5615C83.0193 6.23035 86.5092 12.6535 90.0741 19.1836C109.333 54.543 129.234 91.1015 151.511 111.816C187.47 145.27 271.86 170.941 327.698 187.92C334.475 189.975 340.866 191.923 346.7 193.743C350.308 194.867 353.787 195.842 357.148 196.677V195.681C353.873 194.867 350.5 193.915 346.989 192.823Z" fill="#252525"/>
<path d="M159.197 98.6914C174.923 113.358 201.087 127.756 239.166 142.69C271.206 155.258 305.891 165.845 331.231 173.564C333.853 174.367 336.38 175.137 338.821 175.887C345.372 177.921 351.463 179.43 357.148 180.458V179.484C351.56 178.467 345.565 176.968 339.099 174.977C336.658 174.228 334.121 173.457 331.498 172.654C280.584 157.121 195.381 131.128 159.84 97.9956C137.605 77.2382 118.475 39.5878 101.593 6.35875C100.511 4.22841 99.4301 2.10878 98.3703 0.0212708H97.2891C98.4345 2.25865 99.58 4.51749 100.736 6.7977C117.661 40.091 136.834 77.8269 159.197 98.6914Z" fill="#252525"/>
<path d="M166.884 85.5777C182.011 99.7193 207.96 114.193 244.037 128.602C273.583 140.399 304.543 150.109 330.931 158.041C340.716 161.05 349.43 162.837 357.138 163.405V162.441C349.515 161.863 340.908 160.097 331.21 157.121C293.088 145.656 203.817 118.807 167.537 84.8712C146.469 65.1307 130.069 31.2594 115.627 0.0107727H114.568C129.095 31.4628 145.591 65.6339 166.884 85.5777Z" fill="#252525"/>
<path d="M323.33 139.286C281.88 127.071 207.51 102.064 175.223 71.768C156.928 54.554 143.118 25.9389 132.359 0.0214996H131.321C142.144 26.1209 156.061 55.0571 174.57 72.4745C188.68 85.7169 212.06 99.2269 244.047 112.641C272.577 124.598 302.765 134.233 323.063 140.217C336.551 144.339 347.845 145.891 357.148 144.906V143.943C347.952 144.917 336.755 143.375 323.33 139.286Z" fill="#252525"/>
<path d="M315.441 121.429C301.46 117.404 273.637 108.733 244.433 95.7689C216.674 83.4472 195.97 70.9542 182.91 58.6538C167.366 43.9556 156.414 21.4638 148.45 0.0212402H147.422C155.44 21.6672 166.488 44.448 182.246 59.3496C195.381 71.7249 216.171 84.2822 244.037 96.6467C273.283 109.632 301.16 118.325 315.162 122.35C333.168 127.799 346.957 128.195 357.137 123.538V122.468C347.149 127.221 333.457 126.878 315.441 121.429Z" fill="#252525"/>
<path d="M347.556 103.037C338.135 108.626 325.043 108.808 307.551 103.583C269.558 92.9745 216.749 70.2901 190.596 45.5289C177.782 33.3464 169.346 16.4107 163.79 0.010231H162.784C162.784 0.0209351 162.794 0.0316696 162.794 0.0423737C169.496 19.9434 178.627 35.4767 189.921 46.2247C216.192 71.093 269.172 93.863 307.272 104.504C325.032 109.814 338.36 109.6 348.027 103.862C351.506 101.796 354.525 98.9908 357.116 95.4153V93.7453C354.461 97.749 351.271 100.843 347.556 103.037Z" fill="#252525"/>
<path d="M352.62 60.5379L352.513 60.6235L352.47 60.7627C348.359 73.2985 342.482 81.4131 334.485 85.5454C325.846 90.0094 314.466 90.0737 299.682 85.738C282.233 81.0384 262.642 73.2557 244.507 63.8351C225.474 53.9435 209.501 43.0777 198.304 32.426C188.808 23.3372 182.481 11.8077 178.499 0.0212021H177.503C181.529 12.0539 187.952 23.8403 197.64 33.1218C208.891 43.8377 224.949 54.7571 244.058 64.6915C262.246 74.1442 281.912 81.9484 299.415 86.6694C314.445 91.0799 326.06 90.9943 334.924 86.4125C343.124 82.1732 349.151 73.9301 353.337 61.2123C354.547 60.2381 355.821 59.189 357.148 58.065V56.8018C355.564 58.1399 354.043 59.4031 352.62 60.5379Z" fill="#252525"/>
<path d="M339.806 48.7302L339.677 48.8051L339.613 48.9336C334.678 58.6432 328.737 64.8951 321.436 68.0317C313.589 71.4038 303.89 71.361 291.782 67.8925C262.578 60.3667 228.9 41.2901 205.98 19.3122C199.589 13.146 195.446 6.40168 192.769 0.0213547H191.731C194.45 6.61578 198.689 13.6063 205.316 20.008C228.343 42.0929 262.182 61.266 291.525 68.8239C303.847 72.346 313.749 72.378 321.81 68.9202C329.293 65.7087 335.374 59.3498 340.405 49.5009C346.026 46.2572 351.71 42.4997 357.138 38.3461V37.2541C352.063 41.1294 346.315 44.9834 339.806 48.7302Z" fill="#252525"/>
<path d="M213.002 6.88343C230.259 23.5943 253.885 43.7201 283.646 50.9676C293.27 53.6118 301.459 53.751 308.696 51.4173C315.472 49.2227 321.607 44.7693 327.452 37.7788C338.542 33.2077 348.584 27.8229 357.137 21.9029V20.736C348.509 26.7952 338.285 32.287 326.981 36.933L326.874 36.9759L326.799 37.0722C321.05 43.9664 315.034 48.3555 308.407 50.4966C301.352 52.7768 293.334 52.6269 283.892 50.0362C254.335 42.8316 230.837 22.8236 213.676 6.18763C211.653 4.21787 209.865 2.15174 208.313 0.0106926H207.135C208.806 2.39796 210.765 4.69957 213.002 6.88343Z" fill="#252525"/>
<path d="M275.778 33.1219C289.266 36.5369 301.213 34.3637 314.488 26.0565C331.102 21.3462 345.715 15.1264 357.137 7.94317V6.80842C345.704 14.0773 330.963 20.3934 314.156 25.1572L314.092 25.1786L314.038 25.2107C300.978 33.3895 289.255 35.552 276.002 32.1906C254.485 27.3304 241.435 13.7668 228.803 0.663624C228.589 0.438816 228.386 0.235439 228.171 0.0213356H226.833C227.261 0.460247 227.668 0.888439 228.107 1.33806C240.836 14.5376 253.992 28.1975 275.778 33.1219Z" fill="#252525"/>
<path d="M301.513 14.3233C320.172 10.919 336.669 6.00535 349.622 0.0211182H347.245C334.945 5.44867 319.23 10.1268 301.341 13.3812C282.447 16.8176 268.284 16.0254 258.039 10.9618C252.419 8.17848 248.254 4.2818 244.689 0.0211182H243.448C252.9 11.5935 266.367 20.725 301.513 14.3233Z" fill="#252525"/>
</svg>
