<svg width="336" height="221" viewBox="0 0 336 221" fill="none" xmlns="http://www.w3.org/2000/svg">
<path d="M67.3537 131.21C102.629 93.208 117.525 56.3688 109.285 27.4716C105.901 15.6205 98.6582 5.1891 87.7536 -3.53461C76.2729 -12.711 60.6463 -20.0459 41.3163 -25.3336C23.7557 -30.1275 10.1764 -36.66 0.0124512 -45.1882V-44.0052C9.12708 -36.516 22.048 -29.6337 41.0694 -24.4386C60.276 -19.192 75.7894 -11.9188 87.1775 -2.81448C97.9278 5.78578 105.067 16.0526 108.39 27.7185C116.538 56.2866 101.724 92.8171 66.6747 130.572C48.7335 149.902 25.8132 165.713 0.0124512 177.019V178.028C26.0704 166.66 49.2376 150.715 67.3537 131.21Z" fill="#252525"/>
<path d="M39.8555 123.669C70.4399 90.2655 83.3506 57.7882 76.2008 32.2241C73.2998 21.8338 67.1068 12.6369 57.7967 4.91104C48.0134 -3.216 34.7015 -9.77933 18.2417 -14.5835C11.2463 -16.8879 5.22816 -19.4392 0.0124512 -22.1448V-21.1057C5.17672 -18.4619 11.1023 -15.9621 17.9639 -13.7091H17.9742C34.3209 -8.93579 47.5196 -2.43415 57.2103 5.62087C66.3661 13.2233 72.4562 22.2556 75.3161 32.471C82.3733 57.7162 69.5346 89.8849 39.1765 123.051C28.097 135.252 14.816 145.91 0.0124512 154.706V155.776C15.0835 146.877 28.6011 136.065 39.8555 123.669Z" fill="#252525"/>
<path d="M12.3574 116.128C38.2404 87.3233 49.1656 59.2079 43.1372 36.9666C40.7094 28.0268 35.576 20.085 27.8707 13.357C20.7519 7.14347 11.4006 1.91745 0.0124847 -2.19751V-1.2202C11.1434 2.84332 20.2992 7.96644 27.2535 14.0463C34.8147 20.6611 39.8555 28.4486 42.2319 37.2032C48.1883 59.1359 37.3248 86.9427 11.6578 115.511C8.03665 119.615 4.14802 123.525 0.00219727 127.228V128.463C4.4052 124.584 8.54073 120.459 12.3574 116.128Z" fill="#252525"/>
<path d="M10.0735 41.7195C8.36581 35.115 4.98126 29.1277 0.0124512 23.8606V25.2391C4.49775 30.2079 7.59426 35.8042 9.17851 41.9458C12.5219 54.8462 9.28139 70.0612 0.0124512 86.161V87.9819C10.0118 71.162 13.5712 55.2166 10.0735 41.7195Z" fill="#252525"/>
<path d="M295.837 -96.6354C290.261 -98.662 273.863 -93.1172 246.704 -83.9408C211.398 -72.0074 158.037 -53.9633 95.0577 -42.39C78.6699 -39.3758 60.1629 -32.3598 59.8029 -27.0927C59.7 -25.6113 60.9242 -24.4386 63.4549 -23.6053C86.2209 -16.0852 100.448 -2.20753 111.888 8.95429C121.157 17.9969 128.492 25.1467 136.825 25.1467C136.886 25.1467 136.938 25.1467 136.999 25.1467C148.161 25.0129 180.865 -2.53671 209.721 -26.8458C222.241 -37.3904 234.061 -47.3486 241.581 -52.8009C247.969 -57.4302 255.757 -62.6253 263.298 -67.6456C284.798 -81.9759 297.812 -90.9774 297.328 -95.0306C297.267 -95.5347 296.958 -96.2239 295.837 -96.6354ZM262.783 -68.4068C255.243 -63.3763 247.435 -58.1812 241.036 -53.5416C233.485 -48.0687 222.189 -38.5631 209.124 -27.5453C181.811 -4.53246 147.811 24.1076 136.979 24.2311C128.944 24.3134 121.702 17.2562 112.526 8.30621C101.024 -2.91733 86.7044 -16.8773 63.7429 -24.4694C61.6752 -25.1587 60.6567 -26.0125 60.7287 -27.0207C61.0168 -31.2385 77.7852 -38.2648 95.2326 -41.4745C158.284 -53.0684 211.676 -71.1227 247.013 -83.0664C269.696 -90.7305 285.673 -96.1416 292.905 -96.1416C293.975 -96.1416 294.859 -96.0182 295.538 -95.7713C296.269 -95.5038 296.392 -95.154 296.423 -94.9174C296.865 -91.1317 278.76 -79.0543 262.783 -68.4068Z" fill="#252525"/>
<path d="M270.345 -85.3914C265.355 -86.6258 251.622 -81.9554 230.862 -74.8776C203.456 -65.547 162.039 -51.443 113.863 -42.2666C107.372 -41.0218 100.634 -39.0261 95.3666 -36.804C91.3648 -35.1066 86.5503 -32.5656 86.3445 -30.0966C86.252 -28.9342 87.1264 -28.0083 88.937 -27.3396C104.718 -21.4552 114.83 -11.0032 122.957 -2.59844C130.241 4.93192 135.991 10.8883 143.038 10.9089C143.1 10.9089 143.151 10.9089 143.213 10.9089C154.56 10.9089 187.932 -15.7046 212.334 -35.158C219.7 -41.0321 226.058 -46.1038 230.584 -49.4472C234.329 -52.2248 238.485 -55.1876 242.888 -58.3252C261.364 -71.4931 273.4 -80.3917 272.505 -83.9614C272.32 -84.7535 271.59 -85.2268 270.345 -85.3914ZM262.928 -74.2604C257.311 -69.7339 249.708 -64.3228 242.363 -59.0762C237.96 -55.9385 233.794 -52.9655 230.049 -50.1879C225.512 -46.8342 219.144 -41.7523 211.779 -35.8782C188.848 -17.5975 154.252 9.98302 143.234 9.98302C143.182 9.98302 143.121 9.98302 143.069 9.98302H143.059C136.403 9.96244 130.765 4.1295 123.626 -3.24655C115.437 -11.7131 105.242 -22.2576 89.2559 -28.214C87.8774 -28.7181 87.2087 -29.3354 87.2704 -30.0246C87.5379 -33.2652 100.541 -38.7792 114.038 -41.3613C162.276 -50.548 203.734 -64.6623 231.16 -74.0032C249.05 -80.0933 262.475 -84.661 268.421 -84.661C269.09 -84.661 269.676 -84.5992 270.149 -84.4861L270.201 -84.4758C271.044 -84.3626 271.518 -84.1157 271.62 -83.7351C271.857 -82.7989 270.54 -80.3917 262.928 -74.2604Z" fill="#252525"/>
<path d="M344.969 168.975C337.655 178.871 330.31 187.996 322.985 196.247C314.529 205.763 306.206 214.013 298.069 220.967H299.468C307.389 214.137 315.475 206.092 323.674 196.854C330.772 188.86 337.891 180.054 344.969 170.518V168.975Z" fill="#252525"/>
<path d="M181.461 191.967C162.224 140.736 142.472 124.44 129.407 113.659C118.667 104.802 113.276 100.347 117.258 83.2394C120.899 67.6025 128.265 54.6816 141.135 41.38C153.5 28.5825 170.937 15.3426 193.004 -1.41556C212.92 -16.538 237.702 -35.3537 267.155 -60.1874C288.522 -78.1903 310.918 -96.471 329.98 -108.219C335.391 -111.552 340.36 -114.258 344.969 -116.367V-117.375C340.216 -115.225 335.083 -112.447 329.497 -109.001C310.383 -97.222 287.956 -78.9207 266.559 -60.8869C237.116 -36.0738 212.344 -17.2581 192.438 -2.14595C170.341 14.6328 152.883 27.8932 140.456 40.7422C127.463 54.1775 120.025 67.2219 116.342 83.0336C112.227 100.697 118.112 105.553 128.8 114.369C141.793 125.088 161.432 141.281 180.577 192.286C184.784 203.499 189.527 213.056 194.773 220.957H195.884C190.555 213.025 185.731 203.355 181.461 191.967Z" fill="#252525"/>
<path d="M331.904 175.085C336.297 170.229 340.659 165.045 344.969 159.562V158.07C340.433 163.882 335.844 169.365 331.225 174.468C304.529 203.962 278.544 219.537 256.055 219.537C255.942 219.537 255.829 219.537 255.716 219.537C244.904 219.465 234.976 215.72 226.222 208.416C216.881 200.629 208.754 188.716 202.077 172.987C183.941 131.796 164.816 115.603 152.153 104.884C140.446 94.9773 134.006 89.5147 137.442 73.2915C140.518 59.4344 147.03 48.0668 158.572 36.442C169.672 25.2699 185.371 13.8098 205.256 -0.705719C222.128 -13.0197 243.124 -28.3479 267.711 -48.1717C284.963 -62.3169 304.848 -78.0977 321.565 -87.9634C330.618 -93.3025 338.313 -96.7076 344.969 -98.2816V-99.228C326.298 -94.9176 301.135 -76.7707 267.125 -48.8815C242.558 -29.068 221.572 -13.7501 204.701 -1.43611C184.784 13.1 169.055 24.5807 157.903 35.8042C146.227 47.5524 139.633 59.064 136.526 73.1063C132.967 89.8747 139.962 95.8003 151.535 105.604C164.127 116.272 183.169 132.382 201.213 173.377C207.952 189.23 216.161 201.267 225.615 209.147C234.544 216.585 244.667 220.401 255.695 220.483C255.808 220.483 255.922 220.483 256.035 220.483C278.801 220.463 305.023 204.775 331.904 175.085Z" fill="#252525"/>
<path d="M267.68 -36.9173C248.02 -22.0418 231.602 -10.7154 217.107 -0.716011C199.33 11.5466 185.288 21.227 175.381 30.8251C164.991 40.8862 159.23 50.8444 156.699 63.1378C155.29 70.6888 156.267 76.5629 159.868 82.1592C163.201 87.3338 168.447 91.8499 175.103 97.5594C187.808 108.474 205.215 123.432 221.849 154.418C228.402 167.565 236.344 177.41 245.459 183.675C253.411 189.148 262.268 191.915 271.815 191.915C272.566 191.915 273.317 191.895 274.078 191.864C284.582 191.391 295.764 187.656 307.317 180.774C318.386 174.17 329.538 164.849 340.442 153.05C341.975 151.393 343.487 149.696 344.989 147.957V146.538C343.261 148.544 341.523 150.529 339.763 152.432C328.92 164.17 317.841 173.439 306.844 179.992C295.425 186.803 284.386 190.485 274.037 190.948C263.832 191.411 254.399 188.706 245.994 182.924C237.013 176.741 229.164 167.02 222.683 153.996C205.966 122.846 188.487 107.826 175.721 96.8599C162.625 85.6158 154.724 78.8261 157.625 63.3127C160.125 51.225 165.804 41.4006 176.05 31.4835C185.905 21.9471 199.917 12.277 217.662 0.0349808C231.447 -9.47057 248.597 -21.3011 268.276 -36.1972C299.745 -60.9898 323.18 -76.6472 339.835 -76.6472C341.636 -76.6472 343.354 -76.462 345 -76.0917V-77.0279C327.768 -80.7519 302.616 -64.4361 267.68 -36.9173Z" fill="#252525"/>
<path d="M331.215 -54.4058C324.148 -55.8769 315.3 -53.8811 304.19 -48.2951C294.849 -43.604 283.77 -36.3926 268.256 -24.9324C253.586 -14.8713 240.964 -6.90892 229.823 0.127655C214.093 10.0653 201.666 17.9043 192.942 25.8564C183.776 34.2098 178.818 42.6352 176.863 53.2106C174.435 68.8886 184.805 77.7563 200.514 91.1711C212.725 101.602 227.909 114.585 242.476 135.51C253.854 153.862 269.244 163.399 287.308 163.399C289.531 163.399 291.794 163.255 294.098 162.967C310.753 160.868 328.633 151.023 344.969 135.098V133.812C328.602 149.963 310.651 159.942 293.975 162.051C291.722 162.339 289.5 162.473 287.329 162.473C269.594 162.473 254.451 153.081 243.248 134.995C228.609 113.947 213.363 100.924 201.121 90.4612C185.659 77.2419 175.433 68.5182 177.779 53.3546C179.692 43.0158 184.558 34.7447 193.57 26.5354C202.232 18.645 214.628 10.8163 230.316 0.909508C241.458 -6.12706 254.09 -14.0998 268.791 -24.1814C292.905 -41.9992 312.183 -53.9634 326.452 -53.9634C328.036 -53.9634 329.569 -53.8194 331.03 -53.5108C336.688 -52.3277 341.256 -48.8609 344.969 -42.9148V-44.6019C341.256 -50.0337 336.739 -53.2536 331.215 -54.4058Z" fill="#252525"/>
<path d="M330.618 -23.2043C324.518 -31.1565 316.247 -33.8106 305.352 -31.3005C296.227 -29.2019 284.952 -23.5438 268.832 -12.9581C259.347 -7.51606 250.798 -2.90731 243.247 1.15621C215.286 16.2272 199.886 24.5292 197.036 43.2625C195.164 59.7635 211.367 72.849 231.89 89.422C241.612 97.2816 252.64 106.18 263.143 116.612C270.344 124.996 279.078 130.572 289.098 133.205C293.419 134.337 297.873 134.903 302.462 134.903C307.77 134.903 313.243 134.141 318.839 132.629C327.84 130.191 336.739 125.829 344.969 119.934V118.803C336.677 124.831 327.686 129.275 318.592 131.734C308.325 134.512 298.48 134.707 289.325 132.31C279.479 129.728 270.9 124.245 263.822 115.994L263.802 115.963C253.267 105.491 242.219 96.5717 232.466 88.6916C212.169 72.2935 196.131 59.3417 197.952 43.3654C199.269 34.724 203.384 27.9857 211.284 21.5252C218.876 15.3219 229.822 9.41697 243.69 1.94833C251.241 -2.12548 259.8 -6.73423 269.316 -12.1968C285.364 -22.7311 296.546 -28.348 305.558 -30.4261C308.192 -31.033 310.64 -31.3313 312.934 -31.3313C319.94 -31.3313 325.444 -28.4715 329.929 -22.6077L329.97 -22.5562L330.021 -22.5151C334.044 -19.5215 338.087 -16.6718 341.996 -13.9148C342.994 -13.2153 343.981 -12.5157 344.969 -11.8162V-12.9478C344.156 -13.5239 343.344 -14.1 342.531 -14.6761C338.642 -17.4022 334.62 -20.2313 330.618 -23.2043Z" fill="#252525"/>
<path d="M269.429 -0.993725C265.849 0.353923 262.464 1.58839 259.203 2.78173C246.375 7.48306 236.252 11.1968 229.184 15.6513C221.623 20.4246 217.93 25.8666 217.21 33.325C216.006 54.1467 252.352 81.0379 283.862 97.7446C292.74 103.485 303.788 106.489 315.989 106.489C317.152 106.489 318.335 106.458 319.518 106.407C328.242 106.005 336.976 104.092 344.969 100.903V99.905C336.976 103.135 328.221 105.08 319.477 105.481C306.062 106.098 293.913 103.156 284.345 96.9627L284.314 96.9422C266.661 87.5807 250.51 76.7378 238.834 66.3887C224.761 53.9203 217.611 42.5116 218.136 33.4073C219.586 18.2848 233.772 13.0897 259.532 3.65616C262.803 2.45254 266.198 1.21806 269.789 -0.129588L269.83 -0.150152C281.619 -5.86994 290.97 -8.6887 298.665 -8.6887C304.766 -8.6887 309.837 -6.90898 314.261 -3.38041L314.312 -3.33925L314.364 -3.31868C325.145 1.39294 335.69 6.46463 344.989 12.3182V11.238C335.782 5.4976 325.402 0.508246 314.786 -4.13137C301.803 -14.4393 284.582 -8.33892 269.429 -0.993725Z" fill="#252525"/>
<path d="M240.871 15.0854C238.485 17.1428 237.301 19.941 237.373 23.4079C237.548 31.8847 246.416 45.4126 259.44 57.0682C274.182 70.2669 290.672 78.2088 304.684 78.8466C307.492 78.97 310.414 79.042 313.408 79.042C323.942 79.042 335.258 78.2602 344.969 76.8405V75.8941C334.805 77.3961 323.499 78.1264 313.346 78.1264C310.352 78.1264 307.451 78.0647 304.725 77.9413C290.93 77.3138 274.645 69.4542 260.057 56.3995C247.208 44.8982 238.464 31.6378 238.299 23.4079C238.238 20.1879 239.266 17.6983 241.478 15.8055C245.161 12.6472 251.838 11.4333 260.253 11.4333C271.075 11.4333 284.767 13.4291 298.686 15.8363C316.895 18.9946 332.326 25.6917 344.969 33.4586V32.3785C332.326 24.6835 316.957 18.0584 298.841 14.9208C273.873 10.5898 249.564 7.61673 240.871 15.0854Z" fill="#252525"/>
</svg>
