<svg width="336" height="140" viewBox="0 0 336 140" fill="none" xmlns="http://www.w3.org/2000/svg">
<path d="M316.311 -61.4602C316.311 -60.3033 316.291 -59.1554 316.261 -58.0077C315.938 -47.5857 314.144 -38.4584 310.768 -30.0841C306.988 -20.7089 301.324 -12.4999 293.463 -4.99788C287.043 1.12676 282.609 3.63354 278.648 3.37643C273.458 3.03669 269.426 -2.12379 263.319 -9.9288C260.749 -13.2161 257.796 -16.9993 254.228 -21.0946C255.054 -20.3875 255.881 -19.7815 256.717 -19.2856C259.459 -16.0351 261.827 -13.0141 263.923 -10.3236C269.91 -2.67473 273.861 2.38475 278.698 2.69695C282.327 2.93569 286.66 0.474831 292.717 -5.26415L292.99 -5.02545L293.403 -5.42029L293.131 -5.65904C300.81 -13.0417 306.354 -21.1037 310.062 -30.3045C313.408 -38.6053 315.192 -47.6683 315.515 -58.0077C316.109 -77.2814 311.554 -97.5286 306.737 -118.96C304.146 -130.484 301.506 -142.256 299.702 -153.954H300.458C302.252 -142.311 304.882 -130.585 307.462 -119.116C312.008 -98.9243 316.311 -79.7791 316.311 -61.4602Z" fill="#252525"/>
<path d="M315.514 -58.0256C315.192 -47.6863 313.418 -38.6141 310.062 -30.3224C306.353 -21.1217 300.81 -13.0504 293.13 -5.67694L293.402 -5.43819L292.989 -5.04336L292.717 -5.28211C286.66 0.466054 282.326 2.91773 278.698 2.67899C273.86 2.36679 269.91 -2.69269 263.923 -10.3416C261.817 -13.032 259.448 -16.053 256.717 -19.3036C257.16 -19.0465 257.594 -18.8169 258.047 -18.6241C260.436 -15.75 262.532 -13.0688 264.417 -10.6538C270.303 -3.13347 274.183 1.84342 278.738 2.13726C282.215 2.36682 286.448 -0.103258 292.485 -5.8606C300.215 -13.234 305.779 -21.3053 309.498 -30.5152C312.823 -38.761 314.597 -47.7689 314.91 -58.0532C315.504 -77.2627 310.959 -97.4822 306.142 -118.905C303.551 -130.447 300.901 -142.246 299.097 -153.981H299.701C301.495 -142.283 304.146 -130.511 306.736 -118.987C311.554 -97.5465 316.109 -77.3086 315.514 -58.0256Z" fill="#252525"/>
<path d="M0.0299377 -86.4725C12.4869 -85.0584 28.6425 -85.4074 46.814 -85.8022C87.299 -86.6746 137.681 -87.7673 180.676 -70.6605C214.338 -57.2726 234.394 -41.7085 247.546 -28.339C250.005 -25.3639 252.132 -22.903 254.228 -21.1125C257.796 -17.0079 260.749 -13.234 263.319 -9.94672C269.426 -2.14171 273.458 3.01877 278.648 3.35852C282.609 3.61562 287.043 1.11802 293.463 -5.0158C301.324 -12.5178 306.978 -20.7176 310.768 -30.102C314.144 -38.4763 315.938 -47.6036 316.261 -58.0256C316.291 -59.1734 316.311 -60.3212 316.311 -61.4782C316.311 -79.797 312.008 -98.9422 307.462 -119.162C304.882 -130.621 302.252 -142.347 300.458 -154H301.062C302.856 -142.393 305.477 -130.695 308.057 -119.254C312.894 -97.7485 317.46 -77.4463 316.865 -58.0164C316.543 -47.5393 314.739 -38.3478 311.332 -29.9184C307.523 -20.4697 301.818 -12.2056 293.897 -4.64848C287.336 1.61389 282.76 4.16658 278.598 3.89111C273.125 3.533 269.023 -1.71012 262.825 -9.64369C251.043 -24.712 231.33 -49.9267 180.434 -70.1738C137.56 -87.2255 87.2486 -86.142 46.824 -85.2696C28.6829 -84.8748 12.5373 -84.5351 0.0299377 -85.9492V-86.4725Z" fill="#252525"/>
<path d="M71.4557 -80.0911C92.3382 -77.9424 116.002 -73.4155 139.878 -66.997C163.633 -60.6153 186.461 -52.6633 205.892 -44.0135C226.512 -34.8403 242.718 -25.0887 252.756 -15.8145C263.137 -6.22813 267.078 2.79815 264.458 10.998C260.335 23.9084 240.148 34.2661 204.451 41.7865L204.37 41.4559L203.785 41.5753L203.866 41.9059C201.407 42.4201 199.099 42.8884 197.053 43.3016C166.314 49.5547 158.05 51.2352 116.244 99.8007C100.29 118.331 87.5308 126.485 76.0918 125.447C59.281 123.923 47.4792 102.592 32.5429 75.5868C31.1219 73.0249 29.6807 70.4079 28.1991 67.7542C24.2383 60.6562 19.4914 52.9522 14.4622 44.7983C9.75562 37.1586 4.75671 29.0322 0.0299377 20.7772V19.308C4.93811 27.9486 10.189 36.4607 15.1073 44.4585C20.1364 52.6217 24.8934 60.3349 28.8542 67.442C30.3358 70.0957 31.777 72.7127 33.1981 75.2746C48.0335 102.096 59.7547 123.28 76.1523 124.768C81.5845 125.263 87.2889 123.583 93.588 119.653C100.29 115.466 107.496 108.836 115.64 99.3783C157.606 50.6199 165.921 48.9304 196.872 42.6313C199.119 42.1721 201.447 41.7038 203.977 41.1712C222.34 37.3238 236.752 32.6684 246.81 27.3426C256.113 22.4117 261.807 16.8472 263.732 10.8052C264.236 9.23502 264.488 7.61893 264.488 5.98447C264.488 -0.645203 260.356 -7.82584 252.222 -15.337C242.245 -24.5561 226.109 -34.2619 205.559 -43.3983C186.168 -52.0298 163.381 -59.9633 139.656 -66.3359C115.811 -72.7451 92.1971 -77.2629 71.3549 -79.4024C49.1018 -81.6888 30.4869 -81.1746 17.5261 -77.9057C10.8239 -76.2161 4.96835 -74.0491 0.0198364 -71.4504V-72.231C4.94818 -74.7745 10.7332 -76.8956 17.3346 -78.5576C30.4063 -81.854 49.1118 -82.3867 71.4557 -80.0911Z" fill="#252525"/>
<path d="M17.1833 -79.0995C30.3155 -82.4052 49.1016 -82.9377 71.5261 -80.633C92.4389 -78.4843 116.133 -73.9482 140.049 -67.5206C163.834 -61.1297 186.702 -53.1685 206.164 -44.5096C226.845 -35.3089 243.101 -25.5204 253.19 -16.2003C263.742 -6.45784 267.723 2.74287 265.042 11.1539C260.849 24.2755 240.521 34.7618 204.592 42.3189L204.299 42.3831C204.259 42.3923 204.219 42.4015 204.168 42.4107L203.997 42.4474C201.538 42.9616 199.23 43.43 197.174 43.8432C166.596 50.0596 158.382 51.7308 116.708 100.149C100.612 118.845 87.692 127.063 76.0211 126.007C58.8777 124.455 47.0154 103.005 31.9986 75.8529C30.5775 73.291 29.1363 70.6741 27.6548 68.0204C23.694 60.9316 18.9571 53.2367 13.928 45.0828C9.3927 37.7277 4.59531 29.9227 0.0197144 21.9892V20.8046C4.74649 29.0595 9.74539 37.1768 14.452 44.8257C19.4711 52.9796 24.218 60.6745 28.1889 67.7816C29.6704 70.4353 31.1117 73.0431 32.5327 75.6141C47.4689 102.619 59.2708 123.95 76.0816 125.474C87.5206 126.512 100.28 118.358 116.234 99.828C158.039 51.2625 166.304 49.5822 197.043 43.329C199.089 42.9158 201.397 42.4474 203.856 41.9332L203.775 41.6027L204.36 41.4833L204.44 41.8139C240.138 34.3027 260.325 23.945 264.447 11.0254C267.068 2.81637 263.127 -6.20071 252.746 -15.7871C242.708 -25.0613 226.502 -34.8038 205.882 -43.9862C186.45 -52.636 163.623 -60.5787 139.868 -66.9696C115.982 -73.3881 92.328 -77.915 71.4455 -80.0637C49.1016 -82.3593 30.386 -81.8359 17.3344 -78.5486C10.7331 -76.8866 4.95813 -74.7563 0.0197144 -72.222V-72.8555C4.94806 -75.3623 10.6726 -77.4559 17.1833 -79.0995Z" fill="#252525"/>
<path d="M71.3753 -79.4113C92.2174 -77.2718 115.831 -72.7541 139.677 -66.3448C163.391 -59.9723 186.179 -52.0387 205.58 -43.4073C226.119 -34.2617 242.255 -24.5559 252.243 -15.346C260.386 -7.82564 264.508 -0.654175 264.508 5.97549C264.508 7.60995 264.256 9.23523 263.752 10.7962C261.817 16.8382 256.133 22.4119 246.83 27.3337C236.772 32.6686 222.36 37.3149 203.997 41.1623C201.478 41.6949 199.149 42.1632 196.892 42.6223C165.941 48.9214 157.626 50.6109 115.66 99.3693C107.516 108.827 100.31 115.457 93.6083 119.644C87.3092 123.583 81.6048 125.254 76.1725 124.759C59.7649 123.271 48.0537 102.087 33.2183 75.2656C31.7972 72.6945 30.356 70.0868 28.8745 67.4331C24.9036 60.3259 20.1567 52.6219 15.1276 44.4496C10.1992 36.4609 4.95844 27.9397 0.0502319 19.2991V18.1054C5.10962 27.0582 10.552 35.91 15.6617 44.1925C20.6908 52.3648 25.4479 60.078 29.4188 67.1943C30.9003 69.848 32.3516 72.465 33.7626 75.0268C48.5174 101.692 60.168 122.757 76.2431 124.217C81.5343 124.694 87.1077 123.051 93.2858 119.194C99.9375 115.044 107.103 108.451 115.206 99.0387C157.304 50.1243 165.669 48.4255 196.781 42.0989C199.029 41.6398 201.357 41.1715 203.886 40.6389C222.189 36.8007 236.551 32.1728 246.548 26.8654C255.71 22.0079 261.313 16.5535 263.198 10.6493C263.682 9.13419 263.924 7.56404 263.924 5.97549C263.924 -0.507256 259.852 -7.55017 251.829 -14.9603C241.892 -24.1335 225.817 -33.8025 205.328 -42.9206C185.967 -51.5428 163.21 -59.4581 139.526 -65.8306C115.72 -72.2307 92.1368 -76.7393 71.3349 -78.8788C49.1624 -81.156 30.6282 -80.6418 17.7278 -77.4004C10.9349 -75.6925 5.02899 -73.4887 0.0603333 -70.8442V-71.4778C5.01892 -74.0764 10.8644 -76.2434 17.5665 -77.933C30.5072 -81.1835 49.1221 -81.6977 71.3753 -79.4113Z" fill="#252525"/>
<path d="M72.4739 -70.3671C94.3944 -67.7318 119.379 -62.4244 142.821 -55.4182C167.161 -48.1458 188.688 -39.496 205.096 -30.3871C223.116 -20.3875 234.212 -10.1308 237.175 -0.728073C237.73 1.04413 238.012 2.78879 238.012 4.50589C238.012 9.85921 235.301 14.9187 229.899 19.6109C222.179 26.3232 208.865 32.3101 190.341 37.4063C187.499 38.1868 184.737 38.9214 182.298 39.5642C157.203 46.203 142.055 50.2066 106.579 87.689C92.8222 102.225 81.8367 108.524 72.0002 107.523C57.326 106.026 46.9251 88.2032 33.7425 65.6329C32.2811 63.1353 30.6384 60.3072 28.9855 57.5157C25.3674 51.3911 21.1243 44.8165 16.6293 37.8471C11.1769 29.3993 5.31126 20.2904 0.0402374 11.1448V9.96022C5.43221 19.4089 11.5095 28.83 17.1333 37.5532C21.6383 44.541 25.8914 51.1248 29.5196 57.2586C31.1624 60.0317 32.7448 62.7497 34.2767 65.3758C47.3685 87.7992 57.709 105.512 72.0607 106.981C76.7572 107.459 81.6856 106.21 87.1178 103.152C92.8827 99.9199 99.091 94.741 106.106 87.3309C141.703 49.7199 156.911 45.698 182.117 39.0316L182.147 39.0224C184.627 38.3705 187.176 37.691 189.867 36.9564L189.958 37.2227L190.533 37.0666L190.442 36.8003C208.724 31.75 221.856 25.8274 229.476 19.2161C236.43 13.1741 238.828 6.51685 236.591 -0.57193C233.668 -9.83694 222.673 -19.9835 204.773 -29.9096C188.406 -38.991 166.919 -47.6224 142.63 -54.8857C119.218 -61.8826 94.2735 -67.1808 72.3932 -69.807C48.9004 -72.6352 29.5096 -72.3964 16.3169 -69.1183C9.9776 -67.539 4.52513 -65.4637 0.0301514 -62.9477V-63.563C4.53522 -66.0514 9.90701 -68.0807 16.1657 -69.6417C29.4289 -72.9566 48.9004 -73.2045 72.4739 -70.3671Z" fill="#252525"/>
<path d="M72.3927 -69.8252C94.273 -67.1991 119.217 -61.8917 142.629 -54.9039C166.918 -47.6498 188.416 -39.0092 204.773 -29.9278C222.662 -20.0017 233.668 -9.85517 236.59 -0.590164C238.828 6.49862 236.429 13.1558 229.475 19.1978C221.856 25.8183 208.724 31.7318 190.441 36.7821L190.532 37.0483L189.958 37.2045L189.867 36.9382C187.176 37.6728 184.626 38.3522 182.147 39.0042L182.117 39.0134C156.91 45.6798 141.702 49.7016 106.105 87.3126C99.0905 94.7228 92.8822 99.8925 87.1173 103.134C81.675 106.182 76.7466 107.44 72.0602 106.963C57.7085 105.503 47.368 87.7901 34.2762 65.3576C32.7442 62.7314 31.1518 60.0134 29.5191 57.2404C25.8909 51.1157 21.6479 44.532 17.1328 37.535C11.509 28.8118 5.43169 19.3907 0.0397339 9.94204V8.75748C5.5627 18.5091 11.8516 28.27 17.6669 37.2871C22.1618 44.2657 26.415 50.8495 30.0432 56.9833C31.686 59.7564 33.2683 62.4743 34.8002 65.1005C47.8114 87.3861 58.0814 104.989 72.1206 106.421C76.6761 106.889 81.4734 105.659 86.7948 102.675C92.5093 99.4701 98.6672 94.3371 105.641 86.9637C141.359 49.2333 156.628 45.1931 181.945 38.4992L181.975 38.49C184.535 37.8105 187.186 37.1127 189.978 36.3413L190.048 36.323C208.351 31.2818 221.473 25.3867 229.052 18.803C235.835 12.9171 238.173 6.44351 235.996 -0.434082C233.113 -9.56136 222.208 -19.5977 204.45 -29.4595C188.123 -38.5225 166.676 -47.1356 142.428 -54.3805C119.056 -61.3591 94.1521 -66.6573 72.302 -69.2834C48.8899 -72.1024 29.5796 -71.8637 16.4675 -68.604C10.0274 -66.997 4.5246 -64.8851 0.0195465 -62.314V-62.966C4.51453 -65.4819 9.967 -67.5572 16.3063 -69.1366C29.509 -72.4055 48.8999 -72.6442 72.3927 -69.8252Z" fill="#252525"/>
<path d="M72.5544 -70.9177C94.5052 -68.2823 119.53 -62.9658 143.013 -55.9504C167.392 -48.6688 188.97 -39.9915 205.408 -30.8734C223.559 -20.8004 234.746 -10.4335 237.75 -0.893021C240.118 6.62733 237.619 13.6518 230.312 19.9969C222.521 26.7643 209.127 32.7971 190.512 37.9209C187.66 38.7014 184.899 39.4359 182.46 40.0787C157.475 46.6808 142.388 50.6752 107.023 88.0382C93.1245 102.721 81.9778 109.075 71.9195 108.056C56.9329 106.532 46.4614 88.5892 33.1982 65.872C31.7469 63.3744 30.094 60.5462 28.4412 57.7639C24.823 51.6485 20.58 45.0739 16.0749 38.0953C10.814 29.9322 5.14993 21.1539 0.0200043 12.3204V11.1359C5.29103 20.2815 11.1567 29.3904 16.6091 37.8382C21.1041 44.8076 25.3471 51.3822 28.9653 57.5069C30.6181 60.2983 32.271 63.1264 33.7223 65.624C46.8947 88.1943 57.3058 106.017 71.98 107.514C81.8165 108.515 92.802 102.216 106.559 87.6801C142.035 50.1977 157.183 46.185 182.278 39.5553C184.717 38.9126 187.479 38.178 190.321 37.3975C208.845 32.3012 222.159 26.3143 229.879 19.602C235.281 14.9098 237.992 9.85034 237.992 4.49702C237.992 2.77992 237.71 1.03532 237.155 -0.736877C234.192 -10.1396 223.096 -20.3964 205.076 -30.396C188.668 -39.4957 167.14 -48.1546 142.801 -55.427C119.359 -62.4332 94.3742 -67.7406 72.4536 -70.376C48.8802 -73.2133 29.4087 -72.9654 16.1355 -69.6689C9.87675 -68.1079 4.50494 -66.0694 -0.000106812 -63.5902V-64.2421C4.48479 -66.6755 9.80617 -68.668 15.9742 -70.2015C29.3482 -73.5071 48.9004 -73.755 72.5544 -70.9177Z" fill="#252525"/>
<path d="M63.9973 -61.7538C83.5091 -59.6786 104.764 -55.5098 125.466 -49.6973C146.862 -43.6921 165.85 -36.4013 180.383 -28.633C196.66 -19.9281 206.536 -11.1406 209.751 -2.50915C212.11 3.8175 210.749 9.93295 205.7 15.6719C200.288 21.8333 190.552 27.609 176.775 32.843L176.684 32.6501L176.13 32.8613L176.22 33.0541C171.846 34.6978 167.432 36.167 163.169 37.5902C143.959 43.9995 124.095 50.62 96.8832 75.5501C85.3535 86.1098 76.1519 90.5541 67.8976 89.5532C55.2593 88.0198 46.1887 73.5024 34.7094 55.1285C33.117 52.585 31.4742 49.9497 29.7508 47.2409C26.4652 42.0804 22.7261 36.6077 18.7653 30.8228C12.3756 21.4752 5.61295 11.5857 0.0194092 1.86161V0.943375C5.68349 10.8879 12.6175 21.0253 19.1584 30.6025C23.1192 36.3965 26.8583 41.8692 30.1539 47.0297C31.8975 49.766 33.6007 52.5024 35.1125 54.9174C46.5313 73.1903 55.5516 87.625 67.9581 89.14C76.0511 90.1226 85.1317 85.715 96.5506 75.2563C123.833 50.2619 143.748 43.6231 162.998 37.1954C167.351 35.7446 171.856 34.2386 176.321 32.5583C190.179 27.3243 199.935 21.5486 205.337 15.4056C208.693 11.5857 210.396 7.5547 210.396 3.43182C210.396 1.52189 210.034 -0.424782 209.308 -2.37144C206.174 -10.7825 196.085 -19.7353 180.141 -28.2657C165.638 -36.0248 146.681 -43.2972 125.314 -49.2933C104.936 -55.0139 83.1362 -59.293 63.9267 -61.3314C43.5179 -63.4985 26.6264 -63.1587 15.0766 -60.3489C8.9993 -58.8522 4.00044 -56.8872 0.00938416 -54.4355V-54.8946C4.03069 -57.3371 9.01945 -59.3021 14.9556 -60.7621C26.5862 -63.5902 43.528 -63.93 63.9973 -61.7538Z" fill="#252525"/>
<path d="M97.3171 75.9359C85.6462 86.6241 76.2733 91.1235 67.8276 90.0951C54.8869 88.5249 45.7558 73.9066 34.1959 55.3949C32.6035 52.8514 30.9607 50.216 29.2373 47.5072C25.9618 42.3559 22.2227 36.8924 18.2619 31.0892C12.0637 22.0262 5.52275 12.4581 0.0299988 3.01867V1.85255C5.62354 11.5767 12.3862 21.4661 18.7759 30.8137C22.7367 36.6078 26.4758 42.0713 29.7614 47.2318C31.4848 49.9406 33.1275 52.5759 34.7199 55.1194C46.1992 73.4933 55.2699 88.0107 67.9082 89.5441C76.1524 90.545 85.364 86.0916 96.8937 75.541C124.105 50.6109 143.97 43.9904 163.18 37.5811C167.453 36.1578 171.857 34.6887 176.231 33.045L176.14 32.8522L176.695 32.641L176.785 32.8338C190.563 27.5999 200.298 21.8242 205.71 15.6628C210.75 9.92382 212.12 3.80838 209.762 -2.51827C206.547 -11.1497 196.66 -19.9372 180.393 -28.6421C165.86 -36.4196 146.873 -43.7012 125.476 -49.7065C104.775 -55.5189 83.5197 -59.6877 64.0079 -61.7629C43.5386 -63.9391 26.5867 -63.5902 14.9864 -60.762C9.05022 -59.302 4.06139 -57.337 0.0401001 -54.8945V-55.5556C4.06139 -57.9339 8.98973 -59.853 14.8352 -61.2946C26.506 -64.1411 43.5385 -64.4901 64.0784 -62.3047C83.6305 -60.2295 104.916 -56.0515 125.658 -50.2299C147.094 -44.2062 166.133 -36.9062 180.706 -29.1104C197.104 -20.3413 207.081 -11.4527 210.336 -2.69274C212.765 3.81756 211.364 10.1166 206.184 16.0025C200.702 22.2374 190.895 28.0682 177.017 33.3389L176.735 33.4399C176.715 33.449 176.695 33.4582 176.675 33.4582L176.453 33.5408C172.069 35.1937 167.654 36.6629 163.371 38.0953C144.232 44.4954 124.438 51.0976 97.3171 75.9359Z" fill="#252525"/>
<path d="M63.9475 -61.3406C83.157 -59.3021 104.957 -55.0231 125.335 -49.3025C146.701 -43.3064 165.659 -36.034 180.162 -28.2749C196.106 -19.7445 206.194 -10.7917 209.329 -2.38067C210.054 -0.434006 210.417 1.51266 210.417 3.4226C210.417 7.54548 208.714 11.5766 205.358 15.3964C199.956 21.5394 190.19 27.3151 176.342 32.5491C171.887 34.2295 167.382 35.7354 163.018 37.1862C143.769 43.6046 123.854 50.2527 96.5714 75.2471C85.1526 85.7058 76.0718 90.1133 67.9789 89.1308C55.5623 87.6249 46.5522 73.1902 35.1333 54.9081C33.6216 52.4932 31.9082 49.7476 30.1748 47.0205C26.8892 41.8508 23.14 36.3781 19.1792 30.5932C12.6383 21.0252 5.70432 10.8787 0.0402374 0.934212V-0.259544C5.78494 9.96043 12.9507 20.4375 19.6932 30.2994C23.654 36.0935 27.4032 41.5661 30.6988 46.745C32.4424 49.4813 34.1557 52.2269 35.6674 54.6419C47.0057 72.7862 55.9553 87.1107 68.0696 88.589C75.961 89.544 84.8804 85.1824 96.1481 74.8614C123.531 49.7844 143.497 43.118 162.817 36.672C167.171 35.2212 171.666 33.7244 176.11 32.044C189.867 26.8468 199.553 21.1262 204.894 15.0566C208.17 11.3378 209.823 7.41692 209.823 3.4226C209.823 1.57694 209.47 -0.314629 208.764 -2.2062C205.68 -10.4887 195.683 -19.3405 179.87 -27.8066C165.407 -35.5474 146.49 -42.8014 125.174 -48.7791C104.826 -54.4906 83.0663 -58.7604 63.8971 -60.7989C43.5589 -62.9567 26.7481 -62.6262 15.2788 -59.8255C9.09067 -58.3013 4.04138 -56.2903 0.0503387 -53.7651V-54.4355C4.04138 -56.8872 9.0403 -58.8614 15.1176 -60.3489C26.6473 -63.1679 43.5387 -63.5076 63.9475 -61.3406Z" fill="#252525"/>
<path d="M107.728 -43.8942C126.111 -39.1285 142.549 -33.1876 155.257 -26.714C169.559 -19.4232 178.66 -11.7926 182.288 -4.04273C184.817 1.34731 184.606 6.74657 181.663 11.9897C178.529 17.5909 172.219 23.0912 162.927 28.3435L162.846 28.2149L162.333 28.4996L162.413 28.6281C156.064 32.1542 148.192 34.9915 139.102 38.2604C123.158 44.0086 105.087 50.5189 87.2079 63.4018C77.9862 70.0498 70.5886 72.6484 63.9066 71.5924C53.1126 69.8845 45.2313 58.379 35.2637 43.8158L35.2234 43.7607C33.7217 41.5661 32.1596 39.2889 30.537 36.9566C27.6243 32.7878 24.4093 28.4353 21.0028 23.8349C13.6153 13.8445 5.7037 3.13792 0.0194702 -7.04533V-7.66978C5.69362 2.59611 13.706 13.4497 21.2547 23.6605L21.2749 23.6972C24.6713 28.2976 27.8864 32.6408 30.799 36.8096C32.4519 39.1787 34.0141 41.4651 35.5359 43.6689C45.4631 58.177 53.3142 69.6274 63.9671 71.3169C70.5382 72.3546 77.8652 69.7743 87.0063 63.1814C104.926 50.271 123.803 43.4669 138.981 37.9942C148.182 34.6793 156.124 31.8144 162.504 28.2333C176.583 20.3273 183.729 11.9897 183.729 3.43172C183.729 0.998398 183.144 -1.48087 181.996 -3.94174C178.387 -11.6366 169.337 -19.2212 155.096 -26.4752C142.407 -32.9396 126 -38.8714 107.637 -43.6279C71.2336 -53.0582 33.5504 -56.2536 13.8773 -51.589C8.0419 -50.1841 3.45622 -48.2466 0.0295563 -45.7582V-46.0888C3.49654 -48.568 8.09233 -50.5055 13.7967 -51.8828C33.5202 -56.5383 71.2739 -53.3336 107.728 -43.8942Z" fill="#252525"/>
<path d="M87.5911 63.8517C78.2283 70.6008 70.6695 73.2361 63.8162 72.1526C52.7601 70.408 44.8183 58.8106 34.7601 44.128L34.7197 44.0729C33.218 41.8783 31.6559 39.6011 30.0333 37.278C27.1206 33.1092 23.9157 28.7659 20.4991 24.1472C13.3434 14.469 5.68379 4.10207 0.0298004 -5.81488V-7.01777C5.71404 3.16547 13.6256 13.8721 21.0131 23.8625C24.4196 28.4629 27.6346 32.8153 30.5473 36.9841C32.18 39.3164 33.732 41.5937 35.2337 43.7883L35.2741 43.8434C45.2517 58.4066 53.1229 69.9121 63.9169 71.62C70.5889 72.676 77.9965 70.0682 87.2182 63.4294C105.097 50.5465 123.168 44.027 139.112 38.2881C148.203 35.0099 156.074 32.1726 162.423 28.6557L162.343 28.5272L162.857 28.2425L162.937 28.3711C172.23 23.1187 178.539 17.6185 181.673 12.0173C184.616 6.77412 184.828 1.37493 182.298 -4.01511C178.66 -11.7742 169.569 -19.4048 155.268 -26.6864C142.559 -33.16 126.121 -39.101 107.738 -43.8666C71.2842 -53.3061 33.5305 -56.5107 13.807 -51.8277C8.1026 -50.4503 3.50687 -48.5129 0.0398865 -46.0336V-46.7315C3.52702 -49.1281 8.0724 -51.0105 13.6559 -52.3511C33.4801 -57.0525 71.3548 -53.857 107.899 -44.39C126.333 -39.6152 142.811 -33.6558 155.56 -27.1639C169.982 -19.8088 179.164 -12.0956 182.852 -4.22635C185.453 1.3198 185.241 6.87516 182.207 12.2744C179.013 17.9675 172.643 23.5411 163.25 28.8486L163.028 28.9771C163.018 28.9863 163.008 28.9863 162.998 28.9955L162.746 29.1424C156.346 32.6868 148.455 35.5333 139.334 38.8206C123.42 44.5137 105.4 51.0148 87.5911 63.8517Z" fill="#252525"/>
<path d="M107.637 -43.6095C126 -38.8531 142.408 -32.9213 155.096 -26.4569C169.337 -19.2028 178.388 -11.6182 181.996 -3.92337C183.145 -1.46249 183.729 1.01677 183.729 3.4501C183.729 11.9989 176.584 20.3457 162.504 28.2517C156.124 31.8328 148.183 34.6885 138.981 38.0125C123.813 43.4852 104.926 50.2894 87.0066 63.1998C77.8655 69.7927 70.5385 72.3729 63.9673 71.3353C53.3145 69.655 45.4735 58.1954 35.5361 43.6872C34.0244 41.4743 32.4622 39.197 30.7993 36.828C27.8866 32.6592 24.6716 28.316 21.2752 23.7156L21.255 23.6788C13.7063 13.468 5.69389 2.61448 0.0197449 -7.65141V-8.87267C5.69389 1.64114 13.9784 12.8528 21.7589 23.3758L21.7791 23.4034C25.1856 28.0037 28.3905 32.3562 31.3133 36.5341C32.9662 38.9032 34.5383 41.1896 36.0501 43.4026C45.9068 57.7914 53.6874 69.1499 64.0682 70.7935C70.468 71.8036 77.6337 69.2509 86.6337 62.7682C104.624 49.8027 123.551 42.9801 138.759 37.4983C147.931 34.1926 155.852 31.3369 162.182 27.7834C176.07 19.9875 183.114 11.8061 183.114 3.4501C183.114 1.09023 182.55 -1.31558 181.431 -3.703C177.884 -11.2876 168.914 -18.7804 154.794 -25.9702C142.146 -32.4163 125.778 -38.3297 107.466 -43.077C71.1533 -52.4797 33.6011 -55.6844 14.0288 -51.0381C8.06235 -49.6056 3.42625 -47.613 0.0298309 -45.042V-45.7398C3.4565 -48.2283 8.04218 -50.1658 13.8776 -51.5707C33.5607 -56.2445 71.2339 -53.0398 107.637 -43.6095Z" fill="#252525"/>
<path d="M12.6178 -42.9484C29.0961 -46.7499 59.926 -44.6379 89.3248 -37.7144C122.594 -29.8727 146.479 -17.9632 154.855 -5.02524C160.972 4.41423 158.947 14.1935 148.838 24.0462C138.034 34.5692 105.279 45.3033 77.6137 51.2718L77.5531 51.2902L77.5027 51.3269C72.3627 54.9907 67.6057 56.4691 62.9495 55.863C53.1331 54.5775 44.7882 43.8984 35.1129 31.5389C33.9539 30.0606 32.6437 28.3802 31.3234 26.7182C28.834 23.5778 26.1935 20.3732 23.4018 16.9849C14.6335 6.34256 5.06912 -5.27314 0.0299072 -15.5023V-15.8879C4.99857 -5.64042 14.6336 6.0671 23.553 16.8839C26.3447 20.2722 28.9852 23.4768 31.4746 26.6172C32.7546 28.2333 34.0143 29.8402 35.2237 31.3921L35.254 31.438C44.8991 43.7699 53.2339 54.4214 62.9697 55.6978C67.5856 56.3038 72.3224 54.8162 77.4423 51.1525L77.4725 51.1341C104.966 45.2115 137.479 34.5875 148.475 24.138L148.546 24.1931L148.959 23.789L148.888 23.7339C158.765 14.0098 160.71 4.35916 154.683 -4.94257C146.328 -17.8346 122.483 -29.7166 89.2643 -37.5492C59.8958 -44.4727 29.1062 -46.5754 12.6481 -42.7831C6.82278 -41.4425 2.65028 -39.4224 0.0198212 -36.6768V-36.8972C2.72084 -39.6152 6.93362 -41.6445 12.6178 -42.9484Z" fill="#252525"/>
<path d="M12.6579 -42.7921C29.116 -46.5844 59.8954 -44.4817 89.274 -37.5582C122.493 -29.7256 146.338 -17.8436 154.693 -4.95158C160.72 4.35015 158.775 14.0008 148.898 23.7249L148.969 23.78L148.555 24.184L148.485 24.129C137.489 34.5785 104.976 45.2025 77.4823 51.1251L77.452 51.1435C72.3221 54.8073 67.5954 56.2948 62.9794 55.6887C53.2437 54.4124 44.9189 43.7609 35.2638 31.4289L35.2335 31.383C34.014 29.8312 32.7643 28.2243 31.4844 26.6082C28.995 23.4678 26.3545 20.2632 23.5627 16.8749C14.6534 6.05809 5.00833 -5.64943 0.0396729 -15.8969V-17.2743C4.77654 -6.84314 14.8046 5.3327 24.0364 16.5444C26.8281 19.9327 29.4687 23.1373 31.958 26.2868C33.238 27.9029 34.4978 29.5098 35.7173 31.0708L35.7475 31.1168C45.312 43.3477 53.5763 53.9074 63.05 55.1562C67.4946 55.7439 72.0802 54.2839 77.0691 50.7211L77.19 50.6384L77.3412 50.6109C104.926 44.6699 137.55 34.0092 148.253 23.578C158.1 13.9825 160.085 4.48791 154.169 -4.63936C145.895 -17.412 122.18 -29.2022 89.1128 -36.9981C59.835 -43.9032 29.1663 -46.0059 12.7989 -42.232C6.75188 -40.8363 2.53911 -38.7151 0.0195007 -35.7951V-36.6583C2.66005 -39.4313 6.84264 -41.4515 12.6579 -42.7921Z" fill="#252525"/>
<path d="M89.4656 -38.2471C122.886 -30.3686 146.903 -18.3673 155.368 -5.30993C161.637 4.3591 159.581 14.3679 149.271 24.4226C138.386 35.0282 105.551 45.8083 77.8149 51.7952C72.554 55.5233 67.666 57.0292 62.8586 56.4048C52.7902 55.0825 44.3647 44.3208 34.6188 31.8511C33.4598 30.3728 32.1496 28.6924 30.8394 27.0396C28.35 23.8992 25.7196 20.7037 22.9178 17.3062C14.4519 7.02199 5.23013 -4.17131 0.0397491 -14.1985V-15.5023C5.07896 -5.27318 14.6434 6.34252 23.4116 16.9849C26.2033 20.3732 28.8439 23.5778 31.3332 26.7182C32.6535 28.3802 33.9637 30.0606 35.1227 31.5389C44.798 43.8984 53.143 54.5775 62.9593 55.863C67.6055 56.469 72.3625 54.9907 77.5126 51.3269L77.563 51.2902L77.6234 51.2718C105.289 45.3033 138.044 34.5783 148.848 24.0461C158.956 14.1934 160.982 4.40501 154.864 -5.02528C146.489 -17.9541 122.603 -29.8727 89.3346 -37.7145C59.9358 -44.6472 29.116 -46.7499 12.6277 -42.9484C6.94347 -41.6354 2.7307 -39.6152 0.0397491 -36.9064V-37.6961C2.8214 -40.2763 6.97374 -42.2139 12.4765 -43.481C29.0354 -47.3009 59.9862 -45.1981 89.4656 -38.2471Z" fill="#252525"/>
<path d="M107.728 36.5071C92.9934 40.8687 77.7649 41.8879 67.9788 39.1516L67.8881 39.124L67.7974 39.1516C56.7111 42.4481 46.8847 32.0536 35.5061 20.0247C34.3774 18.831 33.2486 17.6373 32.0996 16.4344C30.215 14.4602 28.2396 12.4309 26.3247 10.4658C13.7368 -2.47212 0.72551 -15.8416 0.72551 -24.7852C0.72551 -25.6943 0.866638 -26.5575 1.13876 -27.3471C1.48143 -28.3205 2.06596 -29.2019 2.83192 -30.0008C2.07605 -29.2111 1.52171 -28.3205 1.17905 -27.338C0.906937 -26.5483 0.765854 -25.6759 0.765854 -24.7577C0.765854 -15.86 13.7771 -2.49046 26.365 10.4383C28.1791 12.3023 30.2351 14.4143 32.1399 16.4068C33.299 17.6189 34.4277 18.8218 35.5464 19.9971C41.2609 26.0391 46.6529 31.7506 51.9138 35.4052C57.7291 39.4638 62.8086 40.6299 67.8982 39.0873H67.9083H67.9183C77.6944 41.8512 92.9531 40.8503 107.738 36.4703C122.191 32.1913 132.531 25.8463 134.839 19.8594L134.859 19.8686L135.041 19.3452L135.02 19.336C138.044 10.374 135.575 1.90787 127.683 -5.83287C122.05 -11.3698 113.765 -16.4293 103.042 -20.8827C93.578 -24.8128 82.2096 -28.2286 70.1659 -30.7538C47.4491 -35.5194 24.3997 -36.7958 11.449 -34.0044C8.96967 -33.4718 6.93382 -32.7647 5.33136 -31.874C6.95398 -32.7739 8.96967 -33.5085 11.4389 -34.0411C24.3896 -36.8325 47.4491 -35.5562 70.1759 -30.7905C82.2197 -28.2654 93.5982 -24.8495 103.062 -20.9195C113.785 -16.466 122.08 -11.3974 127.714 -5.86039C133.438 -0.24078 136.311 5.75531 136.311 12.0452C136.311 14.5245 135.867 17.0496 134.97 19.6115C132.833 25.681 122.402 32.1546 107.728 36.5071Z" fill="#252525"/>
<path d="M70.1556 -30.7634C82.1993 -28.2382 93.5678 -24.8224 103.031 -20.8923C113.745 -16.4389 122.039 -11.3702 127.673 -5.84243C135.554 1.90749 138.024 10.3736 135.01 19.3264L135.03 19.3356L134.849 19.859L134.829 19.8498C132.511 25.8367 122.18 32.1725 107.728 36.4607C92.9429 40.8407 77.6842 41.8416 67.9081 39.0777H67.898H67.8879C62.7983 40.6203 57.7188 39.4542 51.9036 35.3956C46.6527 31.7318 41.2507 26.0296 35.5362 19.9876C34.4175 18.803 33.2787 17.6001 32.1297 16.3972C30.2249 14.4047 28.1689 12.2927 26.3548 10.4287C13.7668 -2.50008 0.7556 -15.8696 0.7556 -24.7673C0.7556 -25.6856 0.896667 -26.5579 1.16879 -27.3476C1.51146 -28.3301 2.06578 -29.2207 2.82167 -30.0104C2.87206 -30.0563 2.91238 -30.1023 2.96278 -30.1574C3.21474 -30.4145 3.49689 -30.6532 3.79924 -30.8919C3.90002 -30.9654 4.00085 -31.048 4.10164 -31.1215C4.41408 -31.3511 4.75674 -31.5623 5.10948 -31.7735C5.18004 -31.8102 5.24046 -31.8469 5.311 -31.8837C6.91348 -32.7743 8.94932 -33.4814 11.4286 -34.014C24.3895 -36.7962 47.4388 -35.5198 70.1556 -30.7634ZM1.36029 -24.7673C1.36029 -16.0808 14.2909 -2.78474 26.8083 10.0706C28.6224 11.9346 30.6784 14.0465 32.5832 16.0391C33.7422 17.2512 34.8811 18.4541 35.9998 19.6386C41.6941 25.6623 47.0659 31.3461 52.2765 34.9731C57.9204 38.9124 62.8185 40.051 67.7065 38.5635L67.898 38.5084L68.0895 38.5635C77.7547 41.2906 92.8723 40.2897 107.536 35.9465C122.019 31.6583 132.289 25.3317 134.345 19.4366L134.355 19.4182C137.429 10.5756 135.04 2.20131 127.24 -5.45679C121.666 -10.9387 113.432 -15.9614 102.79 -20.3781C93.3662 -24.299 82.038 -27.6965 70.0246 -30.2125C47.3884 -34.9597 24.45 -36.2361 11.5798 -33.463C6.01653 -32.2601 2.8015 -30.2033 1.74327 -27.1731C1.4913 -26.4385 1.36029 -25.6305 1.36029 -24.7673Z" fill="#252525"/>
<path d="M35.032 20.3644C33.9234 19.1891 32.7845 17.9954 31.6355 16.7925C29.7509 14.8183 27.7755 12.789 25.8606 10.8239C13.2021 -2.18747 0.110245 -15.6396 0.110245 -24.7944C0.110245 -25.7678 0.261429 -26.686 0.553711 -27.5216C1.73288 -30.9283 5.351 -33.2973 11.2872 -34.5829C24.3287 -37.3927 47.4889 -36.1163 70.2964 -31.3323C82.3804 -28.7979 93.7892 -25.3729 103.293 -21.4245C114.087 -16.9343 122.442 -11.829 128.136 -6.2369C136.27 1.75175 138.749 10.5026 135.524 19.7768C133.347 26.0116 122.765 32.6229 107.909 37.0305C93.1139 41.4104 77.7947 42.4388 67.8876 39.7025C56.4688 43.0265 46.5416 32.5311 35.032 20.3644ZM136.3 12.0452C136.3 5.75529 133.428 -0.240788 127.703 -5.8604C122.069 -11.3974 113.775 -16.4661 103.051 -20.9195C93.5876 -24.8496 82.2192 -28.2654 70.1654 -30.7905C47.4385 -35.5562 24.3891 -36.8325 11.4283 -34.0411C8.95908 -33.5085 6.94341 -32.7739 5.32077 -31.8741C5.25023 -31.8373 5.18974 -31.8006 5.1192 -31.7639C4.75638 -31.5527 4.42378 -31.3415 4.11136 -31.1119C4.01057 -31.0384 3.89972 -30.9558 3.80902 -30.8823C3.50667 -30.6436 3.22444 -30.4049 2.97249 -30.1478C2.92209 -30.1019 2.88184 -30.0559 2.83144 -30.0008C2.0554 -29.202 1.47086 -28.3297 1.13828 -27.3472C0.86615 -26.5575 0.725021 -25.6943 0.725021 -24.7852C0.725021 -15.8416 13.7363 -2.46295 26.3242 10.4658C28.2391 12.4308 30.2145 14.4601 32.0992 16.4344C33.2481 17.6372 34.387 18.8402 35.5057 20.0247C46.8842 32.0536 56.7106 42.448 67.7969 39.1516L67.8876 39.124L67.9783 39.1516C77.7645 41.8787 92.993 40.8687 107.728 36.5071C122.402 32.1638 132.843 25.6902 134.96 19.6115C135.846 17.0496 136.3 14.5245 136.3 12.0452Z" fill="#252525"/>
<path d="M69.9236 -21.572C82.8845 -18.3581 93.7591 -13.9414 102.265 -8.432C112.293 -1.94007 118.814 5.97512 121.636 15.084C123.138 19.9139 119.076 25.0836 110.489 29.28C102.628 33.1182 92.2675 35.4689 82.7736 35.5607C71.7881 35.6617 62.9392 32.7509 57.8496 27.3425C52.3972 21.5484 42.6917 14.2576 33.2986 7.19635C18.2818 -4.0796 4.10147 -14.7403 4.10147 -20.9568C4.10147 -21.3057 4.14172 -21.6363 4.23243 -21.9577C4.73635 -23.8033 6.72183 -25.0521 10.1183 -25.6765C16.2459 -26.7968 25.5181 -27.1365 35.5764 -26.5947C43.7701 -26.154 56.3682 -24.9235 69.9236 -21.572ZM120.84 17.0766C120.84 16.4981 120.749 15.9196 120.578 15.3595C117 3.83562 105.259 -11.7652 69.6313 -20.5894C47.096 -26.1815 22.2627 -26.8702 10.35 -24.6848C7.40714 -24.143 5.71397 -23.1422 5.32092 -21.7097C5.25037 -21.4618 5.22016 -21.2047 5.22016 -20.9292C5.22016 -15.2178 19.854 -4.22649 34.0243 6.42506C43.4476 13.5047 53.1935 20.8322 58.7063 26.6905C63.5742 31.8694 72.1207 34.6608 82.7736 34.5598C92.0962 34.468 102.265 32.1632 109.975 28.3985C116.98 24.9642 120.84 20.9424 120.84 17.0766Z" fill="#252525"/>
<path d="M180.373 132.003C164.59 123.427 155.046 113.391 152.788 102.996C152.426 101.343 152.244 99.6539 152.244 97.9827C152.244 91.353 155.066 84.5489 160.64 77.7632C168.813 67.8095 187.851 60.2616 209.913 51.52C236.097 41.1347 268.68 28.2151 295.096 6.54474C301.465 1.31998 312.713 -2.25197 328.526 -4.07925C331.549 -4.42819 334.714 -4.70369 337.979 -4.91489V-4.20782C319.969 -3.06921 303.844 0.282349 295.6 7.04057C269.093 28.7936 236.449 41.7315 210.215 52.1351C188.254 60.84 169.297 68.3604 161.244 78.1672C155.762 84.8428 153 91.4908 153 97.9827C153 99.6172 153.171 101.242 153.524 102.859C155.741 113.06 165.155 122.94 180.756 131.416C187.68 135.18 201.739 137.853 218.369 138.569C232.952 139.193 256.495 138.615 285.824 132.242C301.062 128.937 318.79 123.84 337.979 116.008V116.751C318.861 124.529 301.193 129.607 285.995 132.903C234.766 144.032 193.394 139.074 180.373 132.003Z" fill="#252525"/>
<path d="M152.203 103.106C151.84 101.417 151.649 99.6996 151.649 97.9825C151.649 91.2334 154.511 84.3191 160.165 77.4415C168.429 67.3685 187.548 59.7931 209.68 51.0239C235.824 40.657 268.357 27.7558 294.702 6.14049C301.162 0.842255 312.521 -2.77562 328.465 -4.62128C331.508 -4.97021 334.693 -5.24565 337.989 -5.45685V-4.90593C334.723 -4.69473 331.559 -4.41924 328.535 -4.07031C312.722 -2.24301 301.465 1.32893 295.105 6.5537C268.69 28.2333 236.106 41.1528 209.922 51.5289C187.871 60.2705 168.822 67.8276 160.649 77.7721C155.075 84.5579 152.254 91.362 152.254 97.9917C152.254 99.6629 152.435 101.352 152.798 103.005C155.055 113.4 164.6 123.436 180.382 132.012C193.394 139.083 234.766 144.041 286.004 132.921C301.203 129.625 318.87 124.547 337.989 116.77V117.367C318.93 125.107 301.313 130.158 286.145 133.454C234.745 144.611 193.172 139.606 180.07 132.49C164.126 123.812 154.491 113.657 152.203 103.106Z" fill="#252525"/>
<path d="M218.369 138.578C201.739 137.862 187.68 135.19 180.756 131.425C165.155 122.95 155.741 113.069 153.524 102.868C153.171 101.252 153 99.6263 153 97.9918C153 91.4999 155.762 84.8519 161.244 78.1763C169.297 68.3696 188.254 60.8492 210.215 52.1443C236.449 41.7407 269.093 28.8027 295.6 7.0497C303.844 0.282288 319.969 -3.06009 337.979 -4.1987V-3.65692C320.11 -2.52748 304.146 0.778152 296.003 7.46292C269.426 29.271 236.732 42.2365 210.457 52.6493C188.577 61.3266 169.69 68.8103 161.728 78.5069C154.975 86.7435 152.406 94.8974 154.119 102.767C156.306 112.812 165.618 122.564 181.069 130.957C187.912 134.675 201.86 137.32 218.399 138.036C232.942 138.661 256.425 138.082 285.683 131.728C300.951 128.413 318.73 123.298 337.979 115.42V116.017C318.79 123.849 301.062 128.946 285.824 132.251C256.495 138.615 232.952 139.202 218.369 138.578Z" fill="#252525"/>
<path d="M199.089 122.784C185.866 114.051 178.72 105.53 177.249 96.7426C177.068 95.6408 176.967 94.5205 176.967 93.4002C176.967 87.7072 179.386 81.858 184.153 76.018C191.308 67.203 206.809 60.7661 226.422 52.603C248.544 43.4023 276.058 31.9611 299.087 13.027C304.983 8.16956 315.071 4.79046 329.08 2.98153C331.922 2.61423 334.896 2.32038 337.969 2.1V2.65098C334.926 2.87135 331.973 3.16515 329.161 3.53245C315.464 5.30464 305.205 8.7297 299.49 13.4402C276.39 32.4294 248.826 43.8981 226.673 53.108C207.907 60.913 191.701 67.6529 184.636 76.3486C179.94 82.1059 177.571 87.8266 177.571 93.4002C177.571 94.493 177.662 95.5765 177.844 96.6508C179.295 105.282 186.36 113.684 199.442 122.325C204.521 125.685 216.726 128.119 231.279 128.67C243.988 129.156 264.619 128.514 290.732 122.674C304.539 119.588 320.614 114.869 337.969 107.651V108.257C320.675 115.429 304.64 120.13 290.873 123.206C244.432 133.601 208.643 129.101 199.089 122.784Z" fill="#252525"/>
<path d="M231.289 128.689C216.736 128.128 204.531 125.704 199.452 122.344C186.37 113.703 179.305 105.301 177.854 96.6696C177.672 95.5953 177.581 94.5118 177.581 93.4191C177.581 87.8362 179.95 82.1156 184.646 76.3674C191.711 67.6717 207.918 60.9319 226.684 53.1268C248.836 43.9169 276.4 32.4481 299.5 13.459C305.225 8.74845 315.485 5.32345 329.171 3.55125C331.983 3.18396 334.926 2.89928 337.98 2.66972V3.2207C334.966 3.44108 332.043 3.73487 329.262 4.09298C315.686 5.84682 305.537 9.22594 299.913 13.863C276.743 32.9073 249.128 44.3944 226.946 53.6227C208.26 61.4001 192.115 68.1125 185.14 76.6888C179.617 83.447 177.37 90.141 178.458 96.587C179.879 105.072 186.864 113.354 199.814 121.903C204.803 125.199 216.877 127.596 231.33 128.147C243.998 128.633 264.568 127.991 290.621 122.169C304.459 119.075 320.594 114.337 338 107.082V107.688C320.645 114.897 304.57 119.626 290.762 122.711C264.619 128.523 243.988 129.175 231.289 128.689Z" fill="#252525"/>
<path d="M198.736 123.234C185.382 114.41 178.156 105.769 176.654 96.8349C176.462 95.7055 176.372 94.5577 176.372 93.4099C176.372 87.5975 178.831 81.6382 183.679 75.7064C190.925 66.7811 206.486 60.3075 226.189 52.1169C248.261 42.9345 275.735 31.5116 298.693 12.6327C304.68 7.70176 314.879 4.27671 329.009 2.44942C331.872 2.08213 334.875 1.78831 337.979 1.55876V2.10968C334.905 2.33006 331.932 2.62391 329.09 2.9912C315.081 4.80013 304.993 8.17924 299.097 13.0367C276.067 31.9708 248.553 43.412 226.431 52.6127C206.809 60.7758 191.318 67.2127 184.162 76.0277C179.395 81.8677 176.976 87.7169 176.976 93.4099C176.976 94.521 177.067 95.6505 177.259 96.7523C178.73 105.54 185.876 114.061 199.099 122.794C208.653 129.111 244.431 133.61 290.893 123.234C304.66 120.158 320.685 115.457 337.989 108.285V108.891C320.745 116.017 304.771 120.7 291.044 123.767C244.381 134.18 208.381 129.607 198.736 123.234Z" fill="#252525"/>
<path d="M256.203 119.231C237.971 120.011 222.541 117.734 217.804 113.565C211.939 108.405 205.599 102.197 202.999 95.2922C202.173 93.0976 201.76 90.8939 201.76 88.7176C201.76 83.9428 203.695 79.223 207.686 74.2829C213.854 66.6248 226.694 60.9226 242.95 53.7053C261 45.6891 283.455 35.7079 303.098 19.5285C309.73 14.0375 322.066 10.4471 337.979 9.08813V9.53812C335.117 9.78605 332.356 10.0982 329.725 10.4839C317.782 12.2377 308.682 15.4791 303.411 19.8407C283.717 36.0659 261.232 46.0564 243.152 54.0909C226.956 61.2899 214.156 66.9738 208.048 74.5401C204.158 79.37 202.223 84.0622 202.223 88.736C202.223 90.8755 202.626 93.015 203.433 95.1637C206.003 101.977 212.302 108.138 218.127 113.262C221.997 116.669 235.27 119.708 256.183 118.808C281.581 117.716 309.992 111.086 336.186 100.141C336.79 99.8926 337.375 99.6171 337.969 99.3692V99.8375C337.435 100.067 336.911 100.306 336.377 100.526C310.133 111.49 281.661 118.138 256.203 119.231Z" fill="#252525"/>
<path d="M256.183 118.808C235.27 119.708 222.007 116.669 218.127 113.262C212.302 108.138 206.003 101.977 203.433 95.1635C202.626 93.0148 202.223 90.8845 202.223 88.7358C202.223 84.062 204.158 79.3698 208.048 74.5398C214.146 66.9736 226.946 61.2897 243.152 54.0907C261.222 46.0653 283.717 36.0749 303.411 19.8405C308.682 15.4789 317.782 12.2375 329.725 10.4837C332.356 10.098 335.117 9.78582 337.979 9.5379V10.0888C335.147 10.3276 332.426 10.6398 329.826 11.0254C318.004 12.7701 309.004 15.9564 303.814 20.2537C284.06 36.534 261.525 46.5428 243.414 54.5866C227.288 61.7488 214.549 67.4051 208.542 74.8704C202.989 81.7572 201.508 88.341 204.017 94.989C206.547 101.692 212.785 107.798 218.56 112.876C222.34 116.2 235.432 119.157 256.163 118.266C281.48 117.183 309.82 110.571 335.944 99.6445C336.629 99.3598 337.304 99.0476 337.979 98.7629V99.3689C337.385 99.6261 336.79 99.8924 336.196 100.14C309.992 111.086 281.581 117.715 256.183 118.808Z" fill="#252525"/>
<path d="M217.391 113.96C211.475 108.753 205.075 102.491 202.435 95.4757C201.588 93.2261 201.155 90.958 201.155 88.7267C201.155 83.8325 203.13 79.0026 207.192 73.9615C213.451 66.2024 226.351 60.4726 242.678 53.2093C260.688 45.2115 283.113 35.2486 302.685 19.1152C309.417 13.5507 321.884 9.90527 337.969 8.5371V9.08802C322.046 10.447 309.72 14.0374 303.088 19.5284C283.445 35.7169 260.991 45.689 242.94 53.7052C226.684 60.9225 213.844 66.6339 207.676 74.2828C203.695 79.2229 201.75 83.9519 201.75 88.7175C201.75 90.8846 202.163 93.0975 202.989 95.2921C205.589 102.197 211.929 108.405 217.794 113.565C222.531 117.734 237.961 120.011 256.193 119.231C281.641 118.138 310.123 111.499 336.367 100.526C336.901 100.306 337.425 100.058 337.959 99.8374V100.443C337.506 100.636 337.062 100.838 336.619 101.022C310.304 112.022 281.742 118.689 256.213 119.781C237.85 120.562 222.239 118.23 217.391 113.96Z" fill="#252525"/>
<path d="M247.102 109.378C241.156 108.377 237.507 106.66 236.56 104.401L236.54 104.346L236.489 104.3C231.007 99.571 227.62 94.6952 226.431 89.8194C226.109 88.4971 225.947 87.1473 225.947 85.8067C225.947 81.3992 227.711 76.9365 231.208 72.5382C236.399 66.0003 246.638 61.0051 259.599 54.6785C273.558 47.8652 290.933 39.3899 307.109 26.0112C313.216 20.9241 324.142 17.4991 337.989 16.0942V16.3788C324.232 17.7837 313.388 21.1904 307.331 26.2315C291.125 39.6378 273.729 48.1222 259.75 54.9447C246.83 61.253 236.62 66.2299 231.47 72.7127C228.003 77.0835 226.27 81.4543 226.27 85.7975C226.27 91.9864 229.777 98.1202 236.792 104.144L236.822 104.171L236.832 104.208C237.669 106.375 241.337 108.101 247.163 109.084C267.874 112.573 298.462 105.824 318.367 98.9834C324.323 96.9357 330.934 94.383 337.989 91.2151V91.5457C330.985 94.6861 324.404 97.2295 318.488 99.2589C286.569 110.223 260.083 111.563 247.102 109.378Z" fill="#252525"/>
<path d="M246.991 109.911C240.874 108.882 237.084 107.064 236.026 104.649C230.483 99.8561 227.056 94.8976 225.847 89.93C225.514 88.5618 225.343 87.1753 225.343 85.7979C225.343 81.271 227.147 76.6982 230.715 72.208C235.986 65.56 246.276 60.5464 259.307 54.183C273.236 47.3881 290.581 38.9219 306.696 25.5891C312.904 20.4286 323.97 16.9485 337.979 15.5252V16.0762C324.132 17.4903 313.207 20.9153 307.099 25.9932C290.923 39.3719 273.548 47.8472 259.59 54.6605C246.629 60.9871 236.399 65.9732 231.199 72.5202C227.711 76.9185 225.938 81.3812 225.938 85.7887C225.938 87.1202 226.099 88.47 226.421 89.8014C227.611 94.6772 230.997 99.5531 236.48 104.282L236.53 104.328L236.55 104.383C237.498 106.642 241.146 108.359 247.092 109.36C260.073 111.545 286.559 110.205 318.468 99.2409C324.394 97.2024 330.965 94.6681 337.969 91.5277V92.1429C331.046 95.2374 324.535 97.7441 318.679 99.7643C286.66 110.774 260.053 112.115 246.991 109.911Z" fill="#252525"/>
<path d="M247.163 109.084C241.337 108.101 237.669 106.375 236.832 104.208L236.822 104.171L236.792 104.144C229.777 98.1109 226.26 91.9771 226.27 85.7974C226.27 81.4541 228.003 77.0833 231.47 72.7125C236.62 66.2297 246.82 61.2437 259.75 54.9446C273.729 48.1221 291.125 39.6376 307.331 26.2314C313.398 21.1811 324.242 17.7836 337.989 16.3787V16.9296C324.404 18.3253 313.7 21.6769 307.734 26.6446C291.477 40.0968 274.042 48.5996 260.033 55.4313C247.183 61.7028 237.034 66.6521 231.964 73.043C228.588 77.3037 226.895 81.5551 226.895 85.7974C226.895 91.8485 230.332 97.8538 237.205 103.758L237.336 103.877L237.397 104.034C238.162 106.008 241.66 107.605 247.273 108.551C267.864 112.013 298.321 105.292 318.155 98.4782C324.172 96.4122 330.854 93.8227 337.989 90.6089V91.2241C330.934 94.392 324.323 96.9448 318.367 98.9924C298.452 105.824 267.864 112.573 247.163 109.084Z" fill="#252525"/>
<path d="M258.642 98.9652C256.304 98.047 255.135 96.7615 255.266 95.2188L255.276 95.127L255.216 95.0444C251.95 90.5542 250.368 86.367 250.368 82.2258C250.368 78.3049 251.789 74.5677 254.712 70.7937C258.985 65.2843 266.705 60.9135 276.491 55.3857C286.318 49.8304 298.553 42.9161 311.09 32.4941C316.805 27.7101 326.208 24.4503 337.969 23.0087V23.174C326.258 24.6156 316.896 27.857 311.211 32.6135C298.664 43.0446 286.418 49.9589 276.582 55.5234C266.816 61.042 259.106 65.3945 254.853 70.8856C251.94 74.6412 250.489 78.3784 250.489 82.2258C250.489 86.3211 252.132 90.545 255.437 95.0536L255.457 95.0811V95.1087C255.266 96.6329 256.354 97.8725 258.703 98.7999C266.947 102.041 289.099 100.71 315.505 91.8856C323.164 89.3238 330.673 86.3027 337.969 82.8593V83.0522C330.693 86.4772 323.215 89.4982 315.575 92.0509C289.129 100.884 266.917 102.216 258.642 98.9652Z" fill="#252525"/>
<path d="M258.712 98.8091C256.364 97.8817 255.266 96.6421 255.467 95.1178V95.0903L255.447 95.0627C252.151 90.5542 250.498 86.3303 250.498 82.235C250.498 78.3876 251.95 74.6503 254.862 70.8947C259.116 65.4129 266.826 61.0512 276.591 55.5326C286.428 49.9773 298.673 43.0538 311.221 32.6226C316.905 27.8662 326.268 24.6248 337.979 23.1832V23.7341C326.429 25.1574 317.218 28.3528 311.624 33.0267C299.036 43.4946 286.771 50.4272 276.914 55.9918C267.208 61.4736 259.539 65.8077 255.366 71.2069C249.531 78.7457 249.712 86.2293 255.961 94.7506L256.102 94.9433L256.072 95.1729C255.911 96.4217 256.878 97.4777 258.964 98.2949C267.098 101.49 289.059 100.141 315.323 91.3714C323.063 88.7912 330.632 85.7243 337.989 82.235V82.8594C330.692 86.3028 323.194 89.333 315.524 91.8857C289.109 100.71 266.957 102.051 258.712 98.8091Z" fill="#252525"/>
<path d="M258.4 99.461C255.205 98.2031 254.591 96.5043 254.661 95.2647C251.366 90.7102 249.773 86.4496 249.773 82.2165C249.773 78.2314 251.275 74.283 254.228 70.4723C258.572 64.8711 266.342 60.4727 276.179 54.9174C285.985 49.3712 298.19 42.4753 310.687 32.09C316.502 27.2234 326.047 23.9177 337.979 22.4577V23.0087C326.218 24.4503 316.815 27.71 311.1 32.494C298.563 42.916 286.328 49.8303 276.501 55.3857C266.725 60.9135 258.995 65.2751 254.722 70.7937C251.799 74.5676 250.378 78.3048 250.378 82.2257C250.378 86.367 251.96 90.5541 255.226 95.0443L255.286 95.1269L255.276 95.2188C255.145 96.7522 256.314 98.0469 258.652 98.9652C266.927 102.216 289.139 100.893 315.585 92.0601C323.225 89.5074 330.703 86.4955 337.979 83.0613V83.6857C330.763 87.074 323.356 90.0491 315.787 92.5743C289.19 101.454 266.786 102.758 258.4 99.461Z" fill="#252525"/>
<path d="M290.006 90.2696C282.488 91.2704 276.864 90.995 274.566 89.5258C273.8 89.0299 273.417 88.4239 273.417 87.7168C273.417 87.2026 273.619 86.6333 274.012 86.0181L274.052 85.9446V85.862C273.8 80.3159 273.931 74.8616 278.235 69.0491C281.923 64.0815 287.456 60.032 295.116 54.4308C300.518 50.4823 307.25 45.5606 315.091 38.986C320.786 34.1836 329.1 31.3187 337.969 29.923V29.9598C328.355 31.4749 320.352 34.5969 315.122 39.0136C307.271 45.5882 300.548 50.5099 295.146 54.4583C287.487 60.0596 281.954 64.0998 278.265 69.0674C273.951 74.8891 273.82 80.1506 274.092 85.9446V85.9538V85.963C273.669 86.6058 273.457 87.1843 273.457 87.7077C273.457 88.4056 273.83 89.0024 274.586 89.489C276.894 90.9766 282.508 91.2521 289.976 90.2604C295.741 89.489 305.265 87.625 317.853 83.0981C323.164 81.1882 330.179 78.3508 337.979 74.4024V74.4484C330.189 78.3876 323.174 81.2249 317.863 83.1348C308.097 86.6425 298.21 89.1769 290.006 90.2696Z" fill="#252525"/>
<path d="M337.98 29.923C329.1 31.3188 320.786 34.1837 315.102 38.986C307.25 45.5606 300.528 50.4824 295.126 54.4308C287.467 60.032 281.933 64.0723 278.245 69.0491C273.941 74.8616 273.81 80.3159 274.062 85.8621V85.9447L274.022 86.0181C273.629 86.6334 273.427 87.2026 273.427 87.7169C273.427 88.4239 273.81 89.0391 274.576 89.5258C276.874 91.0042 282.498 91.2796 290.016 90.2696C298.21 89.1769 308.107 86.6425 317.873 83.1349C323.174 81.2249 330.189 78.3968 337.99 74.4484V75.0728C330.29 78.9569 323.356 81.7483 318.095 83.6399C308.289 87.1659 298.341 89.7094 290.107 90.8113C282.437 91.8306 276.652 91.5275 274.234 89.9665C273.316 89.3789 272.833 88.5892 272.833 87.7077C272.833 87.12 273.044 86.4773 273.468 85.807C273.216 80.1965 273.377 74.6595 277.761 68.7369C281.5 63.6958 287.063 59.628 294.763 53.9992C300.155 50.0508 306.878 45.1474 314.709 38.5821C320.494 33.697 328.959 30.8046 338 29.3997V29.923H337.98Z" fill="#252525"/>
<path d="M289.976 90.2605C282.508 91.2613 276.894 90.9767 274.586 89.4891C273.83 89.0024 273.458 88.4056 273.458 87.7078C273.458 87.1844 273.669 86.5967 274.092 85.9631V85.9539V85.9447C273.82 80.1507 273.951 74.88 278.265 69.0675C281.944 64.0999 287.477 60.0597 295.146 54.4584C300.548 50.51 307.271 45.5974 315.122 39.0137C320.352 34.5969 328.355 31.4841 337.969 29.9599V30.5108C328.516 32.0167 320.655 35.0836 315.525 39.4085C307.664 46.0014 300.931 50.9232 295.519 54.8808C287.9 60.4453 282.397 64.4672 278.769 69.3706C274.556 75.0545 274.435 80.2241 274.697 85.9172L274.707 86.0917L274.606 86.2386C273.79 87.4782 273.891 88.3689 274.929 89.0392C279.283 91.8398 296.446 90.1962 317.621 82.584C322.983 80.6557 330.078 77.7816 337.969 73.7781V74.4025C330.169 78.3509 323.154 81.1883 317.843 83.0982C305.265 87.6251 295.751 89.4891 289.976 90.2605Z" fill="#252525"/>
<path d="M292.072 81.6012C290.903 81.39 290.208 80.9309 289.996 80.2422C289.956 80.1136 289.936 79.9759 289.936 79.829C289.936 78.9107 290.742 77.7997 292.405 76.4315C299.379 70.6833 301.455 66.9094 303.652 62.9151C306.081 58.4892 308.833 53.4756 318.689 45.0829C324.686 39.9775 331.943 37.4248 337.979 36.1485V37.1861C332.134 38.444 325.19 40.9324 319.445 45.8266C309.73 54.1 307.15 58.8106 304.64 63.3742C302.403 67.4603 300.286 71.3169 293.151 77.1936C291.034 78.9383 290.984 79.728 291.064 79.9851C291.175 80.3524 291.79 80.536 292.284 80.6278C296.507 81.3992 309.165 78.6352 324.323 71.9872C327.972 70.3895 332.759 68.1031 337.969 65.1647V66.3493C332.94 69.1499 328.334 71.3445 324.797 72.8963C311.312 78.7914 297.243 82.5469 292.072 81.6012Z" fill="#252525"/>
</svg>
