<svg width="228" height="221" viewBox="0 0 228 221" fill="none" xmlns="http://www.w3.org/2000/svg">
<path d="M145.181 173.725C140.498 173.516 135.792 175.152 130.791 178.734C125.557 182.487 120.137 188.255 114.221 196.389C106.22 207.391 98.6677 217.921 91.5654 227.992H92.4183C99.4353 218.052 106.894 207.655 114.787 196.8C125.743 181.742 135.435 174.408 144.414 174.408C144.662 174.408 144.91 174.415 145.15 174.423C151.958 174.733 158.618 179.153 166.108 188.333C172.939 196.707 179.94 208.422 187.353 220.836C188.748 223.17 190.183 225.573 191.648 228H192.462C190.927 225.449 189.415 222.929 187.95 220.479C172.575 194.737 160.433 174.415 145.181 173.725Z" fill="#252525"/>
<path d="M146.531 183.828C137.886 183.479 128.698 190.194 118.44 204.39C112.485 212.625 106.879 220.479 101.568 227.992H102.421C107.647 220.603 113.167 212.88 119.006 204.793C129.116 190.798 138.11 184.177 146.507 184.518C152.85 184.782 159.092 188.906 166.147 197.497C172.583 205.336 179.204 216.315 186.213 227.938C186.221 227.953 186.237 227.977 186.244 227.992H187.059C186.973 227.86 186.888 227.713 186.81 227.581C172.257 203.468 160.766 184.417 146.531 183.828Z" fill="#252525"/>
<path d="M147.872 193.923C140.025 193.629 131.768 199.669 122.65 212.385C119.013 217.455 115.291 222.681 111.531 227.992H112.384C116.044 222.821 119.672 217.735 123.216 212.796C132.194 200.281 140.258 194.334 147.849 194.621C159.308 195.048 169.101 209.12 180.739 227.992H181.553C169.706 208.756 159.75 194.365 147.872 193.923Z" fill="#252525"/>
<path d="M149.221 204.018C142.157 203.786 134.854 209.144 126.867 220.386C125.069 222.922 123.27 225.457 121.479 227.992H122.332C124.03 225.589 125.728 223.193 127.433 220.789C135.28 209.748 142.398 204.507 149.198 204.709C158.145 204.995 166.108 214.439 174.994 227.992H175.823C166.721 214.067 158.556 204.321 149.221 204.018Z" fill="#252525"/>
<path d="M150.562 214.106C144.405 213.951 138.11 218.494 131.356 227.992H132.217C138.714 218.975 144.708 214.641 150.546 214.803C156.765 214.966 162.549 220.06 168.62 227.992H169.488C163.177 219.649 157.152 214.276 150.562 214.106Z" fill="#252525"/>
<path d="M60.5671 83.714C66.5528 60.6239 70.5149 45.3726 67.0723 41.9068C66.3512 41.1857 65.3433 40.9841 64.0562 41.3098C57.6207 42.938 41.191 62.2056 18.4498 88.8701C7.30791 101.935 -5.09002 116.465 -17.9919 130.856V131.895C-4.89619 117.318 7.68784 102.563 18.9848 89.3198C40.7878 63.7486 58.0084 43.5583 64.2268 41.9843C64.5679 41.899 64.8781 41.8525 65.165 41.8525C65.7465 41.8525 66.2117 42.0308 66.5761 42.3953C69.7318 45.5742 65.6069 61.5 59.8925 83.5356C55.6048 100.066 50.2704 120.644 46.4169 142.207C41.9043 167.491 40.3226 188.984 41.5864 207.926C42.0594 215.044 42.3928 221.72 42.5866 227.992H43.2844C43.0906 221.704 42.7572 215.013 42.2842 207.879C41.0281 188.992 42.6021 167.553 47.1069 142.323C50.9449 120.791 56.2794 100.229 60.5671 83.714Z" fill="#252525"/>
<path d="M57.3571 66.377C56.6826 65.656 55.7444 65.4079 54.5581 65.625C48.4638 66.7492 32.0805 85.2104 11.3398 108.58C2.31462 118.752 -7.62544 129.956 -17.9919 141.168V142.191C-7.43935 130.786 2.67904 119.388 11.867 109.037C32.5147 85.7687 48.8282 67.385 54.6899 66.2995C54.9225 66.253 55.1473 66.2375 55.3489 66.2375C55.977 66.2375 56.4732 66.4391 56.8531 66.8423C59.8925 70.091 55.8762 85.9625 50.7821 106.052C42.9432 137.004 32.2046 179.401 34.6314 217.672C34.8563 221.231 35.0501 224.666 35.2052 227.984H35.903C35.748 224.674 35.5619 221.231 35.3293 217.626C32.9024 179.47 43.6256 137.136 51.4567 106.223C57.0005 84.3498 60.6601 69.8972 57.3571 66.377Z" fill="#252525"/>
<path d="M47.6497 90.8552C47.0216 90.1341 46.1532 89.8318 45.0677 89.9481C39.2913 90.5528 23.7997 107.161 4.18323 128.196C-2.70968 135.585 -10.1841 143.603 -17.9919 151.728V152.729C-10.0058 144.425 -2.34526 136.214 4.69497 128.669C24.2107 107.742 39.6247 91.2196 45.1453 90.6381C46.0059 90.5451 46.6572 90.7699 47.1302 91.3127C50.0455 94.6545 46.3626 109.619 41.6949 128.569C34.9261 156.055 25.6606 193.698 27.692 227.442C27.7075 227.628 27.7153 227.814 27.723 228H28.4209C28.4053 227.799 28.3976 227.605 28.3821 227.403C26.3662 193.768 35.6162 156.187 42.3695 128.739C47.262 108.836 50.8054 94.4684 47.6497 90.8552Z" fill="#252525"/>
<path d="M37.9497 115.341C37.3681 114.62 36.5618 114.255 35.5771 114.263C30.1031 114.31 15.4721 129.026 -3.05114 147.65C-7.83509 152.457 -12.8439 157.497 -18 162.591V163.568C-12.6656 158.303 -7.49393 153.101 -2.56267 148.138C15.1154 130.359 30.3899 115 35.5771 114.953C35.5848 114.953 35.5926 114.953 35.6081 114.953C36.3757 114.953 36.965 115.225 37.3992 115.767C40.1672 119.241 36.8331 133.267 32.6152 151.023C27.5056 172.554 20.7058 201.211 20.5119 227.984H21.2097C21.3958 201.297 28.1879 172.678 33.2898 151.185C37.7326 132.546 40.9348 119.078 37.9497 115.341Z" fill="#252525"/>
<path d="M28.2658 139.85C27.7385 139.106 27.0097 138.679 26.1025 138.586C20.9154 138.028 7.09857 150.759 -10.378 166.894C-12.8591 169.182 -15.4023 171.531 -17.9919 173.911V174.857C-15.2394 172.33 -12.5334 169.841 -9.90498 167.414C6.43176 152.333 20.5898 139.268 25.7304 139.268C25.8312 139.268 25.932 139.276 26.025 139.284C26.7306 139.361 27.2811 139.679 27.6998 140.261C30.2972 143.905 27.3431 156.954 23.5981 173.469C20.1013 188.907 15.6275 208.632 14.1388 228H14.8366C16.3253 208.701 20.7836 189.031 24.2727 173.624C28.2037 156.28 31.0415 143.75 28.2658 139.85Z" fill="#252525"/>
<path d="M16.6277 162.917C11.6809 161.653 -1.36057 172.314 -17.8679 185.805C-17.9067 185.836 -17.9532 185.875 -17.9919 185.906V186.806C-17.8059 186.65 -17.612 186.495 -17.4259 186.34C-2.48483 174.128 10.5179 163.498 15.7128 163.498C15.9841 163.498 16.2245 163.529 16.4571 163.584C21.2023 164.793 18.2869 178.432 14.604 195.691C12.5105 205.499 10.138 216.61 8.55623 227.985H9.26181C10.8513 216.664 13.2006 205.608 15.2941 195.838C19.2019 177.524 22.0242 164.297 16.6277 162.917Z" fill="#252525"/>
<path d="M7.16835 187.255C3.22179 185.503 -5.98944 191.008 -17.9919 199.025V199.862C-7.64095 192.946 1.01978 187.619 5.40054 187.619C5.96655 187.619 6.46277 187.705 6.88147 187.891C11.208 189.814 8.76558 202.274 5.67966 218.052C5.05938 221.208 4.40808 224.55 3.77229 227.992H4.47786C5.1059 224.596 5.74945 221.309 6.35422 218.192C9.63398 201.475 11.9988 189.403 7.16835 187.255Z" fill="#252525"/>
<path d="M-2.29875 211.609C-5.07452 209.678 -10.7501 211.128 -17.9919 214.136V214.881C-12.9599 212.772 -8.71869 211.399 -5.74132 211.399C-4.48525 211.399 -3.45403 211.64 -2.68642 212.175C-0.0269527 214.028 -0.096735 220.045 -1.14347 227.984H-0.437893C0.655359 219.704 0.655359 213.664 -2.29875 211.609Z" fill="#252525"/>
<path d="M115.113 179.145C113.283 181.161 111.585 183.503 110.042 186.208C111.151 184.89 112.283 183.479 113.446 181.975C113.966 181.099 114.485 180.215 115.012 179.308C115.043 179.254 115.074 179.199 115.113 179.145Z" fill="#252525"/>
<path d="M103.684 197.614C103.335 198.048 102.994 198.475 102.653 198.893C102.157 199.715 101.661 200.522 101.172 201.32C102.002 200.126 102.839 198.886 103.684 197.614Z" fill="#252525"/>
<path d="M110.539 186.743C110.554 186.712 110.577 186.681 110.593 186.65C109.802 187.588 109.027 188.488 108.267 189.333C107.329 190.977 106.398 192.574 105.483 194.148C106.662 192.582 107.864 190.922 109.097 189.17C109.368 188.736 109.632 188.309 109.903 187.867C110.112 187.488 110.322 187.123 110.539 186.743Z" fill="#252525"/>
<path d="M82.3933 227.992H83.3082C88.8288 221.533 95.0006 212.741 101.8 201.653C99.614 204.817 97.5127 207.701 95.4891 210.298C90.7672 217.439 86.3941 223.355 82.3933 227.992Z" fill="#252525"/>
<path d="M194.572 7.44995C186.461 3.60419 177.235 1.75109 167.147 1.94493C151.625 2.24731 134.489 7.55075 118.913 16.8783C103.312 26.2213 90.015 39.1542 81.4628 53.2967C72.3291 68.4084 61.9781 105.641 55.7055 145.944C49.9989 182.611 49.1305 212.082 53.0926 227.992H53.7981C49.8128 212.268 50.6735 182.804 56.3956 146.053C62.6605 105.827 72.9727 68.703 82.0598 53.6611C90.55 39.6117 103.762 26.7641 119.269 17.4831C134.745 8.21755 151.757 2.94513 167.163 2.6505C167.644 2.64275 168.117 2.63499 168.59 2.63499C178.01 2.63499 186.648 4.46483 194.269 8.08574C202.907 12.1874 210.094 18.5298 215.63 26.9346C223.392 38.72 226.772 51.1645 226.276 66.1056C225.834 79.3177 222.453 92.3747 218.879 106.199C213.312 127.715 207.559 149.96 213.909 172.624C215.599 178.641 215.46 182.455 213.483 184.285C209.645 187.829 198.697 183.797 186.012 179.129C164.899 171.36 137.242 161.187 119.161 175.369C118.641 176.105 118.129 176.834 117.618 177.54C117.579 177.602 117.548 177.656 117.509 177.71C135.226 161.172 164.007 171.763 185.771 179.773C199.201 184.712 209.807 188.62 213.956 184.789C216.142 182.766 216.344 178.726 214.584 172.43C208.28 149.945 214.01 127.793 219.554 106.362C222.981 93.1112 226.524 79.403 226.974 66.1211C227.47 51.242 223.95 38.2936 216.212 26.547C210.614 18.0336 203.325 11.6136 194.572 7.44995Z" fill="#252525"/>
<path d="M109.903 187.86C109.631 188.302 109.368 188.728 109.096 189.163C110.042 187.814 111.004 186.418 111.981 184.96C111.577 185.464 111.174 185.953 110.779 186.426C110.484 186.906 110.189 187.387 109.903 187.86Z" fill="#252525"/>
<path d="M116.974 176.284C116.33 177.184 115.71 178.137 115.113 179.145C115.082 179.2 115.043 179.254 115.012 179.308C114.485 180.207 113.965 181.099 113.446 181.975C114.624 180.456 115.826 178.843 117.059 177.129C117.695 176.121 118.331 175.09 118.974 174.036C118.292 174.827 117.625 175.571 116.974 176.284Z" fill="#252525"/>
<path d="M103.685 197.614C102.84 198.886 102.002 200.126 101.18 201.32C97.0244 207.337 93.1631 212.33 89.612 216.246C83.0757 223.464 77.5629 227.116 73.2209 227.116C73.1899 227.116 73.1667 227.116 73.1357 227.116C70.2126 227.085 67.7702 225.341 65.8938 221.945C59.5437 210.462 59.5049 179.889 65.8085 140.16C71.6082 103.602 81.1761 69.75 89.6275 55.9332C97.3268 43.2794 109.275 31.7498 123.255 23.4845C137.196 15.2425 152.579 10.5671 166.574 10.3268C166.969 10.319 167.365 10.319 167.752 10.319C176.599 10.319 184.709 12.0558 191.881 15.4829C199.968 19.3441 206.691 25.3066 211.87 33.192C219.003 44.0392 222.151 55.5067 221.787 69.277C221.461 81.4501 218.461 93.4914 215.282 106.238C210.389 125.855 205.334 146.138 210.963 166.747C212.467 172.206 212.304 175.687 210.467 177.393C206.838 180.765 196.502 177.106 184.539 172.865C164.961 165.925 139.227 156.807 122.735 170.12C122.223 170.887 121.719 171.64 121.215 172.384C127.511 166.274 135.947 163.537 146.787 164.049C159.278 164.646 172.575 169.352 184.306 173.516C196.983 178.013 207.001 181.564 210.94 177.897C212.979 175.997 213.211 172.291 211.63 166.553C206.047 146.123 211.079 125.925 215.948 106.393C218.996 94.1737 222.144 81.5354 222.477 69.2848C222.849 55.5533 219.569 43.6205 212.452 32.7966C207.202 24.8026 200.379 18.7626 192.184 14.8471C184.593 11.2184 175.971 9.45836 166.558 9.62118C152.447 9.8693 136.94 14.5757 122.898 22.8798C108.818 31.2071 96.7918 42.8142 89.0304 55.5688C80.5403 69.4554 70.9259 103.408 65.1185 140.044C58.7993 179.928 58.8614 210.663 65.2813 222.278C67.2895 225.914 69.9334 227.775 73.1279 227.806C73.1589 227.806 73.1899 227.806 73.2209 227.806C78.9508 227.806 86.402 221.929 95.4737 210.299C97.4973 207.701 99.6063 204.817 101.785 201.654C104.313 197.994 106.941 193.954 109.678 189.527C107.616 192.489 105.608 195.179 103.685 197.614Z" fill="#252525"/>
<path d="M111.981 184.96C111.004 186.418 110.042 187.813 109.096 189.162C107.863 190.915 106.662 192.574 105.483 194.14C102.514 198.095 99.7067 201.467 97.0938 204.212C91.2166 210.392 86.2311 213.524 82.2845 213.524C82.2225 213.524 82.1682 213.524 82.1062 213.524C79.3226 213.454 77.0121 211.764 75.2443 208.5C69.4524 197.823 69.4601 170.081 75.252 134.298C80.5787 101.408 89.3945 70.8276 97.1868 58.1971C104.142 46.9312 114.842 36.7275 127.325 29.4624C139.754 22.2283 153.524 18.15 166.093 17.9794C166.38 17.9794 166.666 17.9716 166.946 17.9716C175.219 17.9716 182.817 19.6154 189.539 22.8719C197.045 26.5005 203.294 32.0676 208.109 39.418C214.614 49.3348 217.538 59.8253 217.297 72.4249C217.088 83.5745 214.459 94.6 211.684 106.269C207.466 123.978 203.108 142.3 208.016 160.846C209.327 165.747 209.148 168.902 207.458 170.484C204.031 173.694 194.308 170.407 183.057 166.592C172.35 162.963 160.215 158.854 148.833 158.342C139.351 157.916 131.868 160.11 126.17 164.971C125.976 165.235 125.79 165.483 125.596 165.747C125.185 166.39 124.766 167.034 124.355 167.662C130.155 161.389 138.211 158.559 148.802 159.04C160.084 159.544 172.171 163.638 182.84 167.251C194.781 171.298 204.209 174.493 207.939 170.996C209.838 169.22 210.079 165.84 208.698 160.668C203.837 142.292 208.171 124.064 212.374 106.432C215.041 95.2358 217.793 83.6598 218.003 72.4404C218.243 59.8641 215.204 48.9316 208.706 39.038C203.821 31.5791 197.479 25.9268 189.857 22.2438C182.802 18.8323 174.808 17.1653 166.1 17.2816C153.408 17.4521 139.521 21.5615 126.992 28.8576C114.415 36.177 103.622 46.466 96.6131 57.8249C88.7742 70.5252 79.9274 101.206 74.5852 134.182C68.77 170.112 68.7933 198.017 74.655 208.825C76.5546 212.322 79.059 214.137 82.1139 214.206C82.1759 214.206 82.2457 214.206 82.3078 214.206C87.5802 214.206 94.3956 209.058 102.676 198.87C103.018 198.451 103.359 198.025 103.708 197.591C105.63 195.164 107.631 192.465 109.709 189.511C112.205 185.952 114.818 182.014 117.532 177.695C117.571 177.641 117.602 177.579 117.641 177.524C115.671 180.254 113.787 182.727 111.981 184.96Z" fill="#252525"/>
<path d="M117.06 177.129C118.137 175.632 119.238 174.058 120.363 172.415C119.897 172.973 119.44 173.516 118.982 174.043C118.331 175.09 117.688 176.121 117.06 177.129Z" fill="#252525"/>
<path d="M124.348 167.677C124.759 167.049 125.17 166.406 125.588 165.762C123.782 168.189 122.037 170.407 120.355 172.422C119.23 174.066 118.137 175.64 117.052 177.137C115.819 178.85 114.617 180.455 113.439 181.983C112.276 183.487 111.144 184.898 110.035 186.216C107.065 189.752 104.305 192.628 101.754 194.799C95.9931 199.715 91.3409 201.118 87.9294 198.955C83.851 196.373 81.3931 188.558 80.8194 176.346C80.3076 165.429 81.2691 151.216 83.6106 135.244C85.7816 120.427 89.0459 104.858 92.8063 91.4133C96.7296 77.3871 100.855 66.6872 104.739 60.4844C117.439 40.1933 142.429 25.857 165.519 25.6321C173.436 25.5468 180.716 27.1131 187.144 30.261C194.091 33.6571 199.875 38.8519 204.334 45.6828C210.211 54.6537 212.893 64.1595 212.777 75.596C212.676 85.7067 210.327 96.174 208.047 106.3C204.489 122.125 200.813 138.485 205.047 154.985C206.163 159.327 205.946 162.149 204.396 163.622C201.155 166.677 192.036 163.754 181.476 160.366C171.854 157.28 160.945 153.783 150.787 153.356C142.134 153 135.342 154.961 130.202 159.303C129.426 160.428 128.659 161.521 127.899 162.575C133.133 156.419 140.646 153.628 150.756 154.047C160.821 154.465 171.676 157.947 181.259 161.017C192.471 164.615 201.333 167.452 204.869 164.111C206.621 162.459 206.9 159.412 205.714 154.799C201.519 138.47 205.179 122.187 208.714 106.44C211.002 96.2825 213.359 85.7765 213.459 75.5883C213.576 64.1673 210.777 54.2583 204.9 45.2874C200.364 38.348 194.487 33.0755 187.431 29.6252C180.902 26.4307 173.521 24.849 165.488 24.9265C154.222 25.0351 141.964 28.5552 130.962 34.8433C119.734 41.2555 110.461 49.986 104.127 60.1044C96.2567 72.6885 87.5262 103.54 82.8973 135.136C80.5557 151.147 79.5865 165.405 80.0983 176.369C80.6953 188.992 83.1919 196.784 87.5339 199.529C88.697 200.265 89.9763 200.63 91.3719 200.63C95.838 200.63 101.475 196.846 108.236 189.317C108.996 188.472 109.771 187.581 110.562 186.635C110.624 186.565 110.686 186.487 110.74 186.418C111.136 185.937 111.539 185.448 111.942 184.952C113.756 182.711 115.633 180.238 117.587 177.524C118.098 176.819 118.61 176.09 119.13 175.353C119.804 174.392 120.494 173.392 121.184 172.376C121.688 171.639 122.192 170.88 122.704 170.112C123.278 169.321 123.813 168.507 124.348 167.677Z" fill="#252525"/>
<path d="M125.037 165.328C125.813 164.289 126.588 163.227 127.387 162.118C126.604 163.041 125.859 164.041 125.177 165.119C125.123 165.189 125.084 165.258 125.037 165.328Z" fill="#252525"/>
<path d="M130.217 159.304C130.418 159.009 130.628 158.714 130.829 158.42C135.435 151.705 142.607 148.635 152.764 149.022C161.611 149.364 171.241 152.24 179.731 154.783C190.229 157.923 198.518 160.397 201.86 157.218C203.465 155.69 203.767 152.977 202.775 148.929C199.278 134.663 202.255 120.357 205.14 106.533C207.039 97.3992 209.009 87.9476 208.993 78.7829C208.978 68.5017 206.411 59.5929 201.162 51.5447C196.983 45.117 191.563 40.2167 185.058 36.9835C179.119 34.0294 172.435 32.533 165.193 32.533C165.108 32.533 165.015 32.533 164.93 32.533C154.958 32.5795 144.607 35.4405 134.993 40.806C125.301 46.2102 117.253 53.6692 111.709 62.3764C104.506 73.6888 96.5742 100.958 92.4105 128.677C90.2938 142.781 89.4254 155.38 89.9061 165.096C90.4644 176.292 92.7439 183.293 96.6983 185.906C97.8613 186.674 99.1484 187.054 100.552 187.054C104.871 187.054 110.36 183.448 116.958 176.276C117.617 175.563 118.284 174.818 118.959 174.035C119.416 173.508 119.874 172.965 120.339 172.407C122.021 170.399 123.766 168.174 125.573 165.747C125.766 165.491 125.952 165.235 126.146 164.971C126.72 164.188 127.309 163.382 127.899 162.56C128.674 161.513 129.442 160.428 130.217 159.304ZM109.437 182.417C104.305 186.371 100.156 187.348 97.1014 185.325C89.9914 180.626 88.5027 159.49 93.1161 128.786C97.272 101.144 105.165 73.9912 112.314 62.7486C117.796 54.1344 125.759 46.7607 135.35 41.4108C144.863 36.1073 155.098 33.2773 164.945 33.2308C172.179 33.1998 178.847 34.6652 184.763 37.6038C191.152 40.7827 196.479 45.5977 200.588 51.9169C205.837 59.9573 208.287 68.4939 208.311 78.7752C208.326 87.8623 206.365 97.2752 204.473 106.378C201.581 120.28 198.588 134.663 202.116 149.084C203.046 152.868 202.806 155.365 201.395 156.706C198.347 159.606 189.818 157.055 179.94 154.109C171.404 151.558 161.727 148.666 152.795 148.317C144.801 148.007 138.598 149.813 134.001 153.799C132.202 156.101 130.465 158.21 128.798 160.11C128.325 160.792 127.852 161.451 127.379 162.11C126.58 163.219 125.805 164.289 125.03 165.32C119.145 173.229 113.911 178.967 109.437 182.417Z" fill="#252525"/>
<path d="M178.165 148.549C187.966 151.224 195.704 153.341 198.852 150.317C200.309 148.922 200.627 146.541 199.828 143.06C197.037 130.871 199.332 118.566 201.557 106.672C203.077 98.5467 204.651 90.1495 204.512 82.0006C204.364 72.8514 202.03 64.9427 197.394 57.8017C190.012 46.3962 178.266 40.1081 164.309 40.1003C164.294 40.1003 164.278 40.1003 164.263 40.1003C155.78 40.1003 147.042 42.4032 138.994 46.7606C130.845 51.1724 124.022 57.3598 119.277 64.6636C112.748 74.7045 105.607 98.3606 101.917 122.187C100.025 134.376 99.2648 145.301 99.7145 153.775C100.234 163.537 102.304 169.755 105.871 172.26C107.049 173.089 108.375 173.5 109.841 173.5C114.656 173.5 120.998 169.026 128.798 160.133C130.465 158.234 132.202 156.125 134.001 153.822C134.629 153.023 135.257 152.201 135.9 151.348C144.863 139.454 163.325 144.502 178.165 148.549ZM117.121 170.034C112.624 173.02 108.972 173.57 106.274 171.678C99.8774 167.197 98.5127 148.728 102.614 122.28C106.297 98.5389 113.392 74.9991 119.874 65.028C124.557 57.825 131.287 51.7152 139.335 47.3577C147.283 43.0544 155.905 40.7827 164.271 40.7827C164.286 40.7827 164.302 40.7827 164.317 40.7827C178.033 40.7982 189.57 46.97 196.82 58.1739C201.449 65.2994 203.674 72.8669 203.829 82.0083C203.961 90.0875 202.395 98.4536 200.883 106.541C198.642 118.504 196.332 130.879 199.154 143.215C199.89 146.44 199.635 148.604 198.371 149.813C195.502 152.566 187.555 150.395 178.343 147.875C163.301 143.765 144.584 138.656 135.342 150.914C128.302 160.249 122.169 166.685 117.121 170.034Z" fill="#252525"/>
<path d="M176.552 142.323C185.313 144.44 192.881 146.277 195.851 143.401C197.153 142.137 197.494 140.106 196.882 137.182C194.788 127.095 196.424 116.829 198.006 106.897C199.146 99.7715 200.317 92.3979 200.061 85.2491C199.774 77.2164 197.673 70.277 193.641 64.0431C186.88 53.5293 176.226 47.6754 163.658 47.5591C163.534 47.5591 163.417 47.5591 163.293 47.5591C149.004 47.5591 134.729 55.1266 126.844 66.9197C120.982 75.689 114.655 95.7009 111.453 115.589C109.802 125.847 109.15 135.089 109.569 142.323C110.05 150.658 111.903 156.109 115.082 158.528C116.33 159.482 117.749 159.955 119.346 159.955C124.657 159.955 131.899 154.705 140.955 144.269C148.531 135.546 164.069 139.307 176.552 142.323ZM124.859 157.652C121.005 159.66 117.858 159.776 115.508 157.977C109.84 153.651 108.584 137.841 112.143 115.697C115.33 95.8948 121.61 75.9991 127.425 67.3074C135.179 55.7081 149.228 48.2569 163.293 48.2569C163.41 48.2569 163.534 48.2569 163.65 48.2569C175.978 48.3655 186.422 54.1108 193.051 64.4231C201.891 78.0926 199.665 92.0335 197.316 106.796C195.726 116.791 194.075 127.118 196.199 137.33C196.758 139.997 196.479 141.827 195.362 142.905C192.672 145.51 185.275 143.719 176.707 141.648C164.038 138.586 148.275 134.771 140.428 143.812C134.427 150.743 129.185 155.396 124.859 157.652Z" fill="#252525"/>
<path d="M174.885 136.097C183.027 137.764 190.059 139.198 192.858 136.485C193.998 135.376 194.355 133.686 193.936 131.321C192.532 123.397 193.533 115.24 194.494 107.347C195.998 95.0108 197.557 82.2562 189.888 70.3003C186.702 65.307 182.616 61.4224 177.739 58.7707C173.28 56.3438 168.171 55.0102 162.968 54.9017C151.648 54.6768 140.708 60.1508 134.427 69.1915C129.248 76.6504 123.774 92.9717 121.114 108.874C119.727 117.171 119.207 124.73 119.61 130.731C120.068 137.632 121.696 142.346 124.448 144.75C125.844 145.967 127.488 146.572 129.38 146.572C133.675 146.572 139.25 143.447 146.019 137.221C152.253 131.468 164.278 133.926 174.885 136.097ZM124.89 144.215C122.285 141.943 120.735 137.384 120.293 130.677C119.897 124.722 120.417 117.225 121.789 108.983C124.425 93.1732 129.853 76.9683 134.986 69.5869C141.01 60.9107 151.423 55.5918 162.278 55.5918C162.495 55.5918 162.72 55.5918 162.937 55.5995C168.031 55.7003 173.032 57.0107 177.39 59.3832C182.166 61.9807 186.167 65.7799 189.291 70.6802C196.828 82.4268 195.355 94.4913 193.796 107.269C192.827 115.209 191.827 123.42 193.246 131.453C193.618 133.569 193.331 135.058 192.37 135.996C189.842 138.454 182.972 137.051 175.025 135.43C164.255 133.228 152.043 130.731 145.538 136.709C136.087 145.386 129.139 147.921 124.89 144.215Z" fill="#252525"/>
<path d="M189.764 129.902C190.811 128.855 191.222 127.359 190.981 125.459C190.26 119.853 190.671 113.992 191.067 108.332C191.811 97.717 192.579 86.7302 186.12 76.5498C180.514 67.641 171.799 62.3298 162.224 61.9886C154.106 61.7017 146.546 65.2374 141.979 71.4557C137.505 77.55 133.783 90.638 132.496 104.804C131.14 119.799 132.931 130.956 137.288 134.663C138.397 135.609 139.645 136.074 141.018 136.074C143.824 136.074 147.174 134.104 151.027 130.181C156.005 128.793 163.402 129.778 170.559 130.732C178.894 131.84 186.764 132.887 189.764 129.902ZM150.756 129.53L150.671 129.553L150.609 129.615C145.142 135.205 140.816 136.717 137.753 134.12C133.628 130.623 131.884 119.404 133.202 104.858C134.474 90.8163 138.141 77.8601 142.553 71.8589C146.871 65.9817 153.648 62.6632 161.262 62.6632C161.572 62.6632 161.89 62.6709 162.208 62.6787C171.551 63.0121 180.057 68.1992 185.538 76.9142C191.881 86.9086 191.121 97.7713 190.384 108.277C189.989 113.976 189.57 119.869 190.299 125.545C190.516 127.25 190.183 128.514 189.283 129.406C186.523 132.151 178.816 131.127 170.667 130.034C163.394 129.065 155.881 128.064 150.756 129.53Z" fill="#252525"/>
<path d="M186.376 123.389C187.539 122.42 188.097 121.141 188.035 119.605C187.934 117.078 187.95 114.527 187.965 111.836C188.027 102.082 188.089 92.0028 182.359 82.7915C177.234 74.4952 169.302 69.0522 161.665 68.5793C156.749 68.2769 152.454 70.099 149.562 73.7044C145.778 78.4185 143.002 87.7538 142.312 98.0583C141.607 108.611 143.212 117.388 146.6 121.528C148.996 124.459 152.237 125.017 155.982 123.133C159.688 123.947 168.597 125.723 176.079 125.723C180.429 125.731 184.298 125.134 186.376 123.389ZM172.505 124.932C166.1 124.521 159.417 123.195 156.005 122.443L155.881 122.42L155.772 122.474C152.26 124.281 149.352 123.823 147.135 121.102C143.909 117.148 142.32 108.34 143.002 98.1126C143.677 87.9399 146.398 78.7597 150.097 74.1463C152.849 70.7193 156.935 68.9902 161.619 69.2771C169.039 69.7346 176.761 75.0535 181.77 83.1637C187.391 92.1966 187.329 102.183 187.267 111.836C187.252 114.542 187.236 117.093 187.337 119.644C187.391 120.97 186.934 122.025 185.926 122.87C183.778 124.661 179.258 125.359 172.505 124.932Z" fill="#252525"/>
<path d="M165.55 75.2473C162.123 73.5337 159.215 73.7818 157.137 75.9606C153.09 80.2173 151.345 87.6064 152.369 96.2439C153.315 104.277 156.532 111.821 160.766 115.938C164.139 119.21 168.318 120.404 172.202 120.404C174.358 120.404 176.428 120.032 178.211 119.45C182.018 118.202 184.716 115.984 185.081 113.806C186.12 107.572 184.212 99.3453 179.847 91.2351C175.815 83.7684 170.341 77.6431 165.55 75.2473ZM184.391 113.689C184.073 115.589 181.499 117.636 177.994 118.791C173.195 120.365 166.271 120.319 161.254 115.442C157.129 111.433 153.989 104.044 153.059 96.1664C152.066 87.7382 153.733 80.5507 157.641 76.4491C158.773 75.2628 160.076 74.8363 161.378 74.8363C162.758 74.8363 164.115 75.3171 165.24 75.8753C169.907 78.2091 175.273 84.2181 179.227 91.5685C183.522 99.5392 185.407 107.603 184.391 113.689Z" fill="#252525"/>
<path d="M37.4227 -24.1069C55.1474 -2.91641 61.451 10.7066 59.1637 22.9184C56.8997 35.014 46.4556 45.5433 30.6384 61.4924C22.3033 69.8972 12.8595 79.4186 2.41542 91.3746C-4.38445 99.1747 -11.2153 106.727 -17.9919 113.976V114.992C-11.037 107.564 -4.03554 99.826 2.95041 91.8243C13.3789 79.8838 22.815 70.3702 31.1423 61.9809C62.4124 30.4549 74.1126 18.6617 37.9577 -24.5488C35.7014 -27.2471 33.4296 -29.7282 31.1423 -32H30.1576C32.5923 -29.6119 35.0191 -26.9834 37.4227 -24.1069Z" fill="#252525"/>
<path d="M29.6772 -21.1683C46.169 -1.96272 52.054 10.505 50.007 21.8795C47.9756 33.1531 38.3457 43.194 23.7845 58.3987C16.4109 66.098 8.05256 74.8207 -1.15867 85.6214C-6.73348 92.1577 -12.3471 98.4924 -17.9839 104.625V105.649C-12.1687 99.3375 -6.37681 92.8167 -0.623674 86.0711C8.57204 75.2859 16.9226 66.571 24.2963 58.8794C53.1007 28.8189 63.8782 17.5685 30.22 -21.6257C26.7774 -25.6033 23.3116 -29.0692 19.8147 -32H18.7137C22.4044 -28.9839 26.0641 -25.3707 29.6772 -21.1683Z" fill="#252525"/>
<path d="M21.9237 -18.2297C37.1982 -1.00903 42.6799 10.3267 40.8501 20.8793C39.0358 31.3543 30.22 40.93 16.8761 55.4291C10.4717 62.3918 3.20658 70.2772 -4.74857 79.8838C-9.09056 85.1175 -13.4946 90.2116 -17.9839 95.1893V96.2283C-13.3085 91.0645 -8.72614 85.7688 -4.21357 80.3335C3.73383 70.7501 10.9912 62.8648 17.3878 55.9098C43.7732 27.2372 53.6512 16.5063 22.4509 -18.6794C17.3956 -24.3783 12.2627 -28.8133 7.0601 -32H5.742C11.2005 -28.8133 16.628 -24.2077 21.9237 -18.2297Z" fill="#252525"/>
<path d="M10.4326 53.0798C34.4764 25.6865 43.4783 15.4363 14.6815 -15.7641C5.70292 -25.4948 -3.63236 -30.9223 -13.2002 -32H-17.9919V-31.465C-17.5888 -31.4805 -17.1856 -31.5038 -16.7824 -31.5038C-6.16002 -31.5038 4.222 -26.0763 14.1776 -15.2911C28.2503 -0.0398407 33.3288 10.1638 31.7084 19.9333C30.0956 29.633 22.0707 38.7745 9.91311 52.6223C4.49337 58.8019 -1.6552 65.7956 -8.34652 74.1384C-11.603 78.2013 -14.8207 82.0393 -17.9919 85.6757V86.7302C-14.6502 82.9077 -11.2541 78.8681 -7.80377 74.5726C-1.1202 66.2453 5.02061 59.2516 10.4326 53.0798Z" fill="#252525"/>
<path d="M3.40757 50.4977C25.2183 24.2286 33.3751 14.3971 6.91993 -12.8412C-1.05073 -21.0444 -9.39355 -25.5415 -17.9922 -26.2781V-25.5647C-9.57964 -24.8204 -1.39964 -20.4086 6.4237 -12.3449C19.3334 0.944662 24.0165 10.0473 22.5899 19.0647C21.171 28.0278 13.8904 36.7971 2.87257 50.0634C-1.5392 55.3824 -6.548 61.4069 -11.9445 68.4006C-13.9759 71.0291 -15.9918 73.549 -18 75.9681V77.0536C-15.8135 74.4329 -13.6115 71.6959 -11.394 68.827C-5.99749 61.8411 -1.0042 55.8166 3.40757 50.4977Z" fill="#252525"/>
<path d="M-3.7254 48.2959C15.9996 22.8874 23.381 13.3816 -0.841076 -9.91009C-6.33835 -15.198 -12.076 -18.5165 -17.9919 -19.8889V-19.1756C-12.2466 -17.811 -6.67175 -14.5545 -1.3218 -9.40611C10.4636 1.92959 14.7591 9.95452 13.503 18.2973C12.2547 26.5859 5.67966 35.0528 -4.2759 47.8772C-7.6487 52.2191 -11.4712 57.1504 -15.5341 62.6632C-16.3559 63.7797 -17.1778 64.8652 -17.9919 65.9352V67.0827C-16.9917 65.7879 -15.9838 64.4543 -14.9758 63.0819C-10.9129 57.5536 -7.0982 52.6378 -3.7254 48.2959Z" fill="#252525"/>
<path d="M5.15242 17.8011C6.32321 9.76064 2.33788 2.58084 -8.61014 -6.98705C-11.634 -9.63876 -14.7742 -11.6082 -17.9919 -12.9263V-12.1819C-14.9293 -10.8948 -11.9519 -8.98746 -9.05984 -6.46756C1.67883 2.922 5.60213 9.92346 4.47011 17.7003C3.34584 25.4228 -2.60113 33.7269 -11.6108 46.3031C-13.5569 49.0246 -15.7279 52.064 -17.9919 55.2895V56.4991C-15.5418 52.9867 -13.2545 49.7923 -11.0448 46.7063C-1.98085 34.0525 4.0049 25.6864 5.15242 17.8011Z" fill="#252525"/>
<path d="M-16.3792 -4.07159C-16.9142 -4.47478 -17.4492 -4.84695 -17.9919 -5.20361V-4.35072C-17.5888 -4.07935 -17.1933 -3.80797 -16.7979 -3.51334C2.53172 11.0944 -2.70968 20.3599 -17.9919 43.8842V45.1557C-10.3547 33.4091 -4.86517 24.8026 -3.80294 17.5221C-2.67092 9.79176 -6.31509 3.53464 -16.3792 -4.07159Z" fill="#252525"/>
</svg>
